<svg width="18" height="22" viewBox="0 0 18 22" fill="none" xmlns="http://www.w3.org/2000/svg">
<path d="M11.5 0.769531V4.90007C11.5 5.46012 11.5 5.74015 11.609 5.95406C11.7049 6.14222 11.8578 6.2952 12.046 6.39108C12.2599 6.50007 12.5399 6.50007 13.1 6.50007H17.2305M11.5 16.5H4.5M13.5 11.5H4.5M17.5 8.48822V16.7C17.5 18.3802 17.5 19.2202 17.173 19.862C16.8854 20.4265 16.4265 20.8854 15.862 21.173C15.2202 21.5 14.3802 21.5 12.7 21.5H5.3C3.61984 21.5 2.77976 21.5 2.13803 21.173C1.57354 20.8854 1.1146 20.4265 0.82698 19.862C0.5 19.2202 0.5 18.3802 0.5 16.7L0.5 5.3C0.5 3.61984 0.5 2.77976 0.82698 2.13803C1.1146 1.57354 1.57354 1.1146 2.13803 0.82698C2.77976 0.5 3.61984 0.5 5.3 0.5H9.51178C10.2455 0.5 10.6124 0.5 10.9577 0.58289C11.2638 0.65638 11.5564 0.777593 11.8249 0.942079C12.1276 1.1276 12.387 1.38703 12.9059 1.90589L16.0941 5.09411C16.613 5.61297 16.8724 5.8724 17.0579 6.17515C17.2224 6.44356 17.3436 6.7362 17.4171 7.0423C17.5 7.38757 17.5 7.75445 17.5 8.48822Z" stroke="#8956FF" stroke-linecap="round" stroke-linejoin="round"/>
</svg>
