<svg width="20" height="11" viewBox="0 0 20 11" fill="none" xmlns="http://www.w3.org/2000/svg">
<path d="M10 5.5H10.005M15 5.5H15.005M5 5.5H5.005M3.69998 1H16.3C17.4201 1 17.9801 1 18.408 1.21799C18.7843 1.40973 19.0903 1.71569 19.282 2.09202C19.5 2.51984 19.5 3.0799 19.5 4.2V6.8C19.5 7.9201 19.5 8.48016 19.282 8.90798C19.0903 9.28431 18.7843 9.59027 18.408 9.78201C17.9801 10 17.4201 10 16.3 10H3.69999C2.57988 10 2.01983 10 1.592 9.78201C1.21568 9.59027 0.909718 9.28431 0.717972 8.90798C0.499985 8.48016 0.499985 7.9201 0.499985 6.8V4.2C0.499985 3.0799 0.499985 2.51984 0.717972 2.09202C0.909718 1.71569 1.21568 1.40973 1.592 1.21799C2.01983 1 2.57988 1 3.69998 1ZM10.25 5.5C10.25 5.63807 10.1381 5.75 10 5.75C9.86193 5.75 9.75 5.63807 9.75 5.5C9.75 5.36193 9.86193 5.25 10 5.25C10.1381 5.25 10.25 5.36193 10.25 5.5ZM15.25 5.5C15.25 5.63807 15.1381 5.75 15 5.75C14.8619 5.75 14.75 5.63807 14.75 5.5C14.75 5.36193 14.8619 5.25 15 5.25C15.1381 5.25 15.25 5.36193 15.25 5.5ZM5.25 5.5C5.25 5.63807 5.13807 5.75 5 5.75C4.86193 5.75 4.75 5.63807 4.75 5.5C4.75 5.36193 4.86193 5.25 5 5.25C5.13807 5.25 5.25 5.36193 5.25 5.5Z" stroke="#6F6F6F" stroke-linecap="round" stroke-linejoin="round"/>
</svg>
