<svg width="24" height="24" viewBox="0 0 24 24" fill="none" xmlns="http://www.w3.org/2000/svg">
<path d="M13.5 6.49998L16.3373 6.49999C16.5818 6.49999 16.7041 6.49999 16.8192 6.52762C16.9213 6.55212 17.0188 6.59253 17.1083 6.64735C17.2092 6.7092 17.2957 6.79567 17.4686 6.96862L22.0314 11.5314C22.2043 11.7043 22.2908 11.7908 22.3526 11.8917C22.4075 11.9812 22.4479 12.0787 22.4724 12.1808C22.5 12.2958 22.5 12.4181 22.5 12.6627V16C22.5 16.4659 22.5 16.6989 22.4239 16.8827C22.3224 17.1277 22.1277 17.3224 21.8827 17.4239C21.6989 17.5 20.9659 17.5 20.5 17.5M15.5 17.5L13.5 17.5M13.5 17.5V6.69998C13.5 5.57988 13.5 5.01983 13.282 4.592C13.0903 4.21568 12.7843 3.90972 12.408 3.71797C11.9802 3.49998 11.4201 3.49998 10.3 3.49998L4.7 3.49999C3.5799 3.49999 3.01984 3.49999 2.59202 3.71798C2.21569 3.90973 1.90973 4.21569 1.71799 4.59201C1.5 5.01984 1.5 5.57989 1.5 6.69999L1.5 15.5C1.5 16.6046 2.59202 17.4239 4 17.5M13.5 17.5L10 17.5M10 17.5C10 19.1568 8.65685 20.5 7 20.5C5.34315 20.5 4 19.1568 4 17.5M10 17.5C10 15.8431 8.65685 14.5 7 14.5C5.34315 14.5 4 15.8431 4 17.5M20.5 18C20.5 19.3807 19.3807 20.5 18 20.5C16.6193 20.5 15.5 19.3807 15.5 18C15.5 16.6193 16.6193 15.5 18 15.5C19.3807 15.5 20.5 16.6193 20.5 18Z" stroke="#8956FF" stroke-linecap="round" stroke-linejoin="round"/>
</svg>
