<svg width="23" height="19" viewBox="0 0 23 19" fill="none" xmlns="http://www.w3.org/2000/svg">
<path d="M11.5 6.99999V11.5M11.5 15.5V14.5M10 1.89171L1.39019 16.0983C0.933982 16.8862 0.70588 17.2802 0.739593 17.6036C0.768998 17.8856 0.916769 18.1419 1.14613 18.3087C1.40908 18.4999 1.86435 18.4999 2.77487 18.4999L19.6096 18.5C20.5201 18.5 20.9754 18.5 21.2383 18.3088C21.4677 18.142 21.6154 17.8857 21.6448 17.6037C21.6786 17.2803 21.4505 16.8863 20.9942 16.0983L12.7694 1.89171C12.3148 1.10654 12.0875 0.713963 11.791 0.582109C11.5323 0.467096 11.237 0.467096 10.9784 0.582109C10.6819 0.713963 10.4546 1.10655 10 1.89171Z" stroke="#8956FF" stroke-linecap="round" stroke-linejoin="round"/>
</svg>
