<svg width="24" height="24" viewBox="0 0 24 24" fill="none" xmlns="http://www.w3.org/2000/svg">
<rect width="24" height="24" fill="#1E1E1E"/>
<g filter="url(#filter0_dd_0_1)">
<path d="M-24 -9C-24 -15.6274 -18.6274 -21 -12 -21H247C253.627 -21 259 -15.6274 259 -9V435C259 441.627 253.627 447 247 447H-12C-18.6274 447 -24 441.627 -24 435V-9Z" fill="white"/>
<path d="M3.5 22.3174C4.10258 22.5 4.91649 22.5 6.3 22.5H17.7C19.0835 22.5 19.8974 22.5 20.5 22.3174C20.6292 22.2783 20.7487 22.2308 20.862 22.173C21.4265 21.8854 21.8854 21.4265 22.173 20.862C22.5 20.2202 22.5 19.3802 22.5 17.7V7.3C22.5 5.61984 22.5 4.77976 22.173 4.13803C21.8854 3.57354 21.4265 3.1146 20.862 2.82698C20.2202 2.5 19.3802 2.5 17.7 2.5L6.3 2.5C4.61984 2.5 3.77976 2.5 3.13803 2.82698C2.57354 3.1146 2.1146 3.57354 1.82698 4.13803C1.5 4.77976 1.5 5.61984 1.5 7.3L1.5 17.7C1.5 19.3802 1.5 20.2202 1.82698 20.862C2.1146 21.4265 2.57354 21.8854 3.13803 22.173C3.25133 22.2308 3.3708 22.2783 3.5 22.3174ZM3.5 22.3174C3.50033 21.5081 3.50518 21.0799 3.57684 20.7196C3.89246 19.1329 5.13285 17.8925 6.71961 17.5769C7.10601 17.5 7.57067 17.5 8.49998 17.5H15.5C16.4293 17.5 16.894 17.5 17.2804 17.5769C18.8671 17.8925 20.1075 19.1329 20.4231 20.7196C20.4848 21.0296 20.4976 21.3899 20.5 22M16 10.5C16 12.7091 14.2091 14.5 12 14.5C9.79086 14.5 8 12.7091 8 10.5C8 8.29086 9.79086 6.5 12 6.5C14.2091 6.5 16 8.29086 16 10.5Z" stroke="black" stroke-linecap="round" stroke-linejoin="round"/>
</g>
<defs>
<filter id="filter0_dd_0_1" x="-30" y="-23" width="295" height="480" filterUnits="userSpaceOnUse" color-interpolation-filters="sRGB">
<feFlood flood-opacity="0" result="BackgroundImageFix"/>
<feColorMatrix in="SourceAlpha" type="matrix" values="0 0 0 0 0 0 0 0 0 0 0 0 0 0 0 0 0 0 127 0" result="hardAlpha"/>
<feMorphology radius="2" operator="erode" in="SourceAlpha" result="effect1_dropShadow_0_1"/>
<feOffset dy="2"/>
<feGaussianBlur stdDeviation="2"/>
<feColorMatrix type="matrix" values="0 0 0 0 0.0627451 0 0 0 0 0.0941176 0 0 0 0 0.156863 0 0 0 0.06 0"/>
<feBlend mode="normal" in2="BackgroundImageFix" result="effect1_dropShadow_0_1"/>
<feColorMatrix in="SourceAlpha" type="matrix" values="0 0 0 0 0 0 0 0 0 0 0 0 0 0 0 0 0 0 127 0" result="hardAlpha"/>
<feMorphology radius="2" operator="erode" in="SourceAlpha" result="effect2_dropShadow_0_1"/>
<feOffset dy="4"/>
<feGaussianBlur stdDeviation="4"/>
<feColorMatrix type="matrix" values="0 0 0 0 0.0627451 0 0 0 0 0.0941176 0 0 0 0 0.156863 0 0 0 0.1 0"/>
<feBlend mode="normal" in2="effect1_dropShadow_0_1" result="effect2_dropShadow_0_1"/>
<feBlend mode="normal" in="SourceGraphic" in2="effect2_dropShadow_0_1" result="shape"/>
</filter>
</defs>
</svg>
