<svg width="96" height="96" viewBox="0 0 96 96" fill="none" xmlns="http://www.w3.org/2000/svg">
<path d="M48 42V26M48 54V58M39.6 74.8L45.44 82.5867C46.3085 83.7446 46.7427 84.3236 47.2751 84.5307C47.7413 84.712 48.2587 84.712 48.7249 84.5307C49.2573 84.3236 49.6915 83.7446 50.56 82.5867L56.4 74.8C57.5726 73.2366 58.1589 72.4548 58.874 71.858C59.8275 71.0622 60.9532 70.4994 62.162 70.214C63.0685 70 66.0457 70 68 70C73.5913 70 76.3869 70 78.5922 69.0866C81.5325 67.8686 83.8686 65.5325 85.0866 62.5922C86 60.3869 86 57.5913 86 52V29.2C86 22.4794 86 19.1191 84.6921 16.5521C83.5416 14.2942 81.7058 12.4584 79.4479 11.3079C76.8809 10 73.5206 10 66.8 10H29.2C22.4794 10 19.1191 10 16.5521 11.3079C14.2942 12.4584 12.4584 14.2942 11.3079 16.5521C10 19.1191 10 22.4794 10 29.2V52C10 57.5913 10 60.3869 10.9134 62.5922C12.1314 65.5325 14.4675 67.8686 17.4078 69.0866C19.6131 70 22.4087 70 28 70C29.9543 70 32.9315 70 33.838 70.214C35.0468 70.4994 36.1725 71.0622 37.126 71.858C37.8411 72.4548 38.4274 73.2366 39.6 74.8Z" stroke="#BEA2FF" stroke-width="4" stroke-linecap="round" stroke-linejoin="round"/>
</svg>
