<svg width="16" height="16" viewBox="0 0 16 16" fill="none" xmlns="http://www.w3.org/2000/svg">
<path d="M7.99999 6.99983V4.33317M7.99999 8.99984V9.6665M6.59999 12.4665L7.57332 13.7643C7.71807 13.9573 7.79044 14.0538 7.87917 14.0883C7.95688 14.1185 8.0431 14.1185 8.12081 14.0883C8.20954 14.0538 8.28191 13.9573 8.42666 13.7643L9.39999 12.4665C9.59542 12.2059 9.69314 12.0756 9.81233 11.9762C9.97125 11.8435 10.1589 11.7497 10.3603 11.7022C10.5114 11.6665 11.0076 11.6665 11.3333 11.6665C12.2652 11.6665 12.7311 11.6665 13.0987 11.5143C13.5887 11.3113 13.9781 10.9219 14.1811 10.4319C14.3333 10.0643 14.3333 9.59839 14.3333 8.6665V4.8665C14.3333 3.7464 14.3333 3.18635 14.1153 2.75852C13.9236 2.3822 13.6176 2.07624 13.2413 1.88449C12.8135 1.6665 12.2534 1.6665 11.1333 1.6665H4.86666C3.74655 1.6665 3.1865 1.6665 2.75868 1.88449C2.38235 2.07624 2.07639 2.3822 1.88464 2.75852C1.66666 3.18635 1.66666 3.7464 1.66666 4.8665V8.6665C1.66666 9.59839 1.66666 10.0643 1.8189 10.4319C2.02189 10.9219 2.41123 11.3113 2.90129 11.5143C3.26883 11.6665 3.73477 11.6665 4.66666 11.6665C4.99238 11.6665 5.48857 11.6665 5.63966 11.7022C5.84112 11.7497 6.02873 11.8435 6.18765 11.9762C6.30684 12.0756 6.40456 12.2059 6.59999 12.4665Z" stroke="#8956FF" stroke-linecap="round" stroke-linejoin="round"/>
</svg>
