<svg width="48" height="48" viewBox="0 0 48 48" fill="none" xmlns="http://www.w3.org/2000/svg">
<path d="M24 21V13M24 27V29M19.8 37.4L22.72 41.2934C23.1542 41.8723 23.3714 42.1618 23.6375 42.2654C23.8707 42.356 24.1293 42.356 24.3625 42.2654C24.6286 42.1618 24.8458 41.8723 25.28 41.2934L28.2 37.4C28.7863 36.6183 29.0794 36.2274 29.437 35.929C29.9138 35.5311 30.4766 35.2497 31.081 35.107C31.5343 35 33.0228 35 34 35C36.7956 35 38.1935 35 39.2961 34.5433C40.7663 33.9343 41.9343 32.7663 42.5433 31.2961C43 30.1935 43 28.7957 43 26V14.6C43 11.2397 43 9.55956 42.346 8.27609C41.7708 7.14712 40.8529 6.22923 39.7239 5.65399C38.4405 5.00003 36.7603 5.00003 33.4 5.00003H14.6C11.2397 5.00003 9.55953 5.00003 8.27606 5.65399C7.14708 6.22923 6.2292 7.14712 5.65396 8.27609C5 9.55956 5 11.2397 5 14.6V26C5 28.7957 5 30.1935 5.45672 31.2961C6.06569 32.7663 7.23373 33.9343 8.7039 34.5433C9.80653 35 11.2044 35 14 35C14.9772 35 16.4657 35 16.919 35.107C17.5234 35.2497 18.0862 35.5311 18.563 35.929C18.9206 36.2274 19.2137 36.6183 19.8 37.4Z" stroke="#BEA2FF" stroke-width="2" stroke-linecap="round" stroke-linejoin="round"/>
</svg>
