<svg width="16" height="16" viewBox="0 0 16 16" fill="none" xmlns="http://www.w3.org/2000/svg">
<path d="M3.28668 3.28683L12.7133 12.7135M1.33334 5.68199V10.3183C1.33334 10.4814 1.33334 10.5629 1.35176 10.6397C1.36809 10.7077 1.39503 10.7727 1.43158 10.8324C1.47281 10.8996 1.53046 10.9573 1.64576 11.0726L4.92759 14.3544C5.04289 14.4697 5.10054 14.5274 5.16782 14.5686C5.22747 14.6051 5.2925 14.6321 5.36052 14.6484C5.43725 14.6668 5.51878 14.6668 5.68184 14.6668H10.3182C10.4812 14.6668 10.5628 14.6668 10.6395 14.6484C10.7075 14.6321 10.7726 14.6051 10.8322 14.5686C10.8995 14.5274 10.9571 14.4697 11.0724 14.3544L14.3543 11.0726C14.4696 10.9573 14.5272 10.8996 14.5684 10.8324C14.605 10.7727 14.6319 10.7077 14.6483 10.6397C14.6667 10.5629 14.6667 10.4814 14.6667 10.3183V5.68199C14.6667 5.51893 14.6667 5.4374 14.6483 5.36067C14.6319 5.29265 14.605 5.22762 14.5684 5.16797C14.5272 5.1007 14.4696 5.04304 14.3543 4.92774L11.0724 1.64592C10.9571 1.53061 10.8995 1.47296 10.8322 1.43174C10.7726 1.39518 10.7075 1.36825 10.6395 1.35192C10.5628 1.3335 10.4812 1.3335 10.3182 1.3335H5.68184C5.51878 1.3335 5.43725 1.3335 5.36052 1.35192C5.2925 1.36825 5.22747 1.39518 5.16782 1.43174C5.10054 1.47296 5.04289 1.53061 4.92759 1.64592L1.64576 4.92774C1.53046 5.04304 1.47281 5.1007 1.43158 5.16797C1.39503 5.22762 1.36809 5.29265 1.35176 5.36067C1.33334 5.4374 1.33334 5.51893 1.33334 5.68199Z" stroke="#8956FF" stroke-linecap="round" stroke-linejoin="round"/>
</svg>
