<svg width="36" height="32" viewBox="0 0 36 32" fill="none" xmlns="http://www.w3.org/2000/svg">
<path d="M5.12007 30.5465L16.1143 19.5523C16.7743 18.8923 17.1043 18.5622 17.4849 18.4386C17.8196 18.3298 18.1802 18.3298 18.5149 18.4386C18.8955 18.5622 19.2255 18.8923 19.8855 19.5523L30.8065 30.4732M21.3333 21L26.1143 16.219C26.7743 15.5589 27.1043 15.2289 27.4849 15.1053C27.8196 14.9965 28.1802 14.9965 28.5149 15.1053C28.8955 15.2289 29.2255 15.5589 29.8855 16.219L34.6666 21M14.6666 11C14.6666 12.841 13.1742 14.3333 11.3333 14.3333C9.4923 14.3333 7.99992 12.841 7.99992 11C7.99992 9.15905 9.4923 7.66667 11.3333 7.66667C13.1742 7.66667 14.6666 9.15905 14.6666 11ZM9.33325 31H26.6666C29.4668 31 30.867 31 31.9365 30.455C32.8773 29.9757 33.6423 29.2108 34.1216 28.27C34.6666 27.2004 34.6666 25.8003 34.6666 23V9C34.6666 6.19974 34.6666 4.79961 34.1216 3.73005C33.6423 2.78924 32.8773 2.02433 31.9365 1.54497C30.867 1 29.4668 1 26.6666 1H9.33325C6.53299 1 5.13286 1 4.0633 1.54497C3.12249 2.02433 2.35759 2.78924 1.87822 3.73005C1.33325 4.79961 1.33325 6.19974 1.33325 9V23C1.33325 25.8003 1.33325 27.2004 1.87822 28.27C2.35759 29.2108 3.12249 29.9757 4.0633 30.455C5.13286 31 6.53299 31 9.33325 31Z" stroke="#8956FF" stroke-width="2" stroke-linecap="round" stroke-linejoin="round"/>
</svg>
