<svg width="48" height="48" viewBox="0 0 48 48" fill="none" xmlns="http://www.w3.org/2000/svg">
<path d="M24 34C24 39.5228 28.4772 44 34 44C39.5228 44 44 39.5228 44 34C44 28.4772 39.5228 24 34 24C28.4772 24 24 28.4772 24 34ZM24 34C24 31.7484 24.7442 29.6705 26 27.999V10M24 34C24 35.6507 24.4 37.208 25.1083 38.5803C23.4233 40.0035 19.5317 41 15 41C8.92487 41 4 39.2091 4 37V10M26 10C26 12.2091 21.0751 14 15 14C8.92487 14 4 12.2091 4 10M26 10C26 7.79086 21.0751 6 15 6C8.92487 6 4 7.79086 4 10M4 28C4 30.2091 8.92487 32 15 32C19.378 32 23.1586 31.07 24.9293 29.7236M26 19C26 21.2091 21.0751 23 15 23C8.92487 23 4 21.2091 4 19" stroke="#BEA2FF" stroke-width="2" stroke-linecap="round" stroke-linejoin="round"/>
</svg>
