<svg width="16" height="16" viewBox="0 0 16 16" fill="none" xmlns="http://www.w3.org/2000/svg">
<path d="M7.99999 7V4.33334M7.99999 9.00001V9.66667M6.59999 12.4667L7.57332 13.7645C7.71807 13.9574 7.79044 14.0539 7.87917 14.0884C7.95688 14.1187 8.0431 14.1187 8.12081 14.0884C8.20954 14.0539 8.28191 13.9574 8.42666 13.7645L9.39999 12.4667C9.59542 12.2061 9.69314 12.0758 9.81233 11.9763C9.97125 11.8437 10.1589 11.7499 10.3603 11.7023C10.5114 11.6667 11.0076 11.6667 11.3333 11.6667C12.2652 11.6667 12.7311 11.6667 13.0987 11.5144C13.5887 11.3114 13.9781 10.9221 14.1811 10.432C14.3333 10.0645 14.3333 9.59856 14.3333 8.66667V4.86667C14.3333 3.74657 14.3333 3.18651 14.1153 2.75869C13.9236 2.38237 13.6176 2.07641 13.2413 1.88466C12.8135 1.66667 12.2534 1.66667 11.1333 1.66667H4.86666C3.74655 1.66667 3.1865 1.66667 2.75868 1.88466C2.38235 2.07641 2.07639 2.38237 1.88464 2.75869C1.66666 3.18651 1.66666 3.74657 1.66666 4.86667V8.66667C1.66666 9.59856 1.66666 10.0645 1.8189 10.432C2.02189 10.9221 2.41123 11.3114 2.90129 11.5144C3.26883 11.6667 3.73477 11.6667 4.66666 11.6667C4.99238 11.6667 5.48857 11.6667 5.63966 11.7023C5.84112 11.7499 6.02873 11.8437 6.18765 11.9763C6.30684 12.0758 6.40456 12.2061 6.59999 12.4667Z" stroke="#8956FF" stroke-linecap="round" stroke-linejoin="round"/>
</svg>
