<svg width="24" height="24" viewBox="0 0 24 24" fill="none" xmlns="http://www.w3.org/2000/svg">
<path d="M16 3.00042C16.93 3.00042 17.895 3.00042 18.2765 3.10264C19.3117 3.38004 20.1204 4.18868 20.3978 5.22396C20.5 5.60546 20.5 6.07044 20.5 7.00041V17.7004C20.5 19.3806 20.5 20.2207 20.173 20.8624C19.8854 21.4269 19.4265 21.8858 18.862 22.1734C18.2202 22.5004 17.8802 22.5004 16.2 22.5004H7.8C6.11984 22.5004 5.77976 22.5004 5.13803 22.1734C4.57354 21.8858 4.1146 21.4269 3.82698 20.8624C3.5 20.2207 3.5 19.3806 3.5 17.7004V7.00041C3.5 6.07044 3.5 5.60546 3.60222 5.22396C3.87962 4.18868 4.68827 3.38004 5.72354 3.10264C6.10504 3.00042 7.07003 3.00042 8 3.00042M16 3.00042C16 3.56047 16 3.84049 15.891 4.05441C15.7951 4.24257 15.6422 4.39555 15.454 4.49142C15.2401 4.60042 14.9601 4.60042 14.4 4.60042H9.6C9.03995 4.60042 8.75992 4.60042 8.54601 4.49142C8.35785 4.39555 8.20487 4.24257 8.10899 4.05441C8 3.84049 8 3.56047 8 3.00042M16 3.00042C16 2.44036 16 2.16031 15.891 1.9464C15.7951 1.75824 15.6422 1.60526 15.454 1.50938C15.2401 1.40039 14.9601 1.40039 14.4 1.40039H9.6C9.03995 1.40039 8.75992 1.40039 8.54601 1.50938C8.35785 1.60526 8.20487 1.75824 8.10899 1.9464C8 2.16031 8 2.44036 8 3.00042M12.5 17.5004H7.5M16.5 12.5004H7.5M16.5 9.50037H7.5" stroke="#8956FF" stroke-linecap="round" stroke-linejoin="round"/>
</svg>
