<svg width="16" height="16" viewBox="0 0 16 16" fill="none" xmlns="http://www.w3.org/2000/svg">
<path d="M10.6667 2.6665C11.2867 2.6665 11.93 2.6665 12.1843 2.73465C12.8745 2.91959 13.4136 3.45868 13.5985 4.14887C13.6667 4.4032 13.6667 4.71319 13.6667 5.33317V12.1332C13.6667 13.2533 13.6667 13.8133 13.4487 14.2412C13.2569 14.6175 12.951 14.9234 12.5747 15.1152C12.1468 15.3332 11.5868 15.3332 10.4667 15.3332H5.53334C4.41324 15.3332 3.85319 15.3332 3.42536 15.1152C3.04904 14.9234 2.74308 14.6175 2.55133 14.2412C2.33334 13.8133 2.33334 13.2533 2.33334 12.1332V5.33317C2.33334 4.71319 2.33334 4.4032 2.40149 4.14887C2.58643 3.45868 3.12552 2.91959 3.81571 2.73465C4.07004 2.6665 4.71336 2.6665 5.33334 2.6665M6.00001 9.99984L7.33334 11.3332L10.3333 8.33317M6.40001 3.6665H9.60001C9.97338 3.6665 10.1601 3.6665 10.3027 3.59384C10.4281 3.52993 10.5301 3.42794 10.594 3.3025C10.6667 3.15989 10.6667 2.97321 10.6667 2.59984V2.73317C10.6667 2.3598 10.6667 2.17312 10.594 2.03051C10.5301 1.90507 10.4281 1.80308 10.3027 1.73917C10.1601 1.6665 9.97338 1.6665 9.60001 1.6665H6.40001C6.02664 1.6665 5.83996 1.6665 5.69735 1.73917C5.57191 1.80308 5.46992 1.90507 5.40601 2.03051C5.33334 2.17312 5.33334 2.3598 5.33334 2.73317V2.59984C5.33334 2.97321 5.33334 3.15989 5.40601 3.3025C5.46992 3.42794 5.57191 3.52993 5.69735 3.59384C5.83996 3.6665 6.02664 3.6665 6.40001 3.6665Z" stroke="#8956FF" stroke-linecap="round" stroke-linejoin="round"/>
</svg>
