<svg width="24" height="24" viewBox="0 0 24 24" fill="none" xmlns="http://www.w3.org/2000/svg">
<path d="M13.5295 8.35186C12.9571 8.75995 12.2566 9 11.5 9C9.567 9 8 7.433 8 5.5C8 3.567 9.567 2 11.5 2C12.753 2 13.8522 2.65842 14.4705 3.64814M6.5 20.5H8.61029C8.95063 20.5 9.28888 20.5405 9.61881 20.6215L12.3769 21.2917C12.9753 21.4375 13.5988 21.4517 14.2035 21.3342L17.253 20.741C18.0585 20.584 18.7996 20.1983 19.3803 19.6334L21.5379 17.5346C22.154 16.9362 22.154 15.9653 21.5379 15.3659C20.9832 14.8263 20.1047 14.7655 19.4771 15.2232L17.1315 17.0951C16.7714 17.3583 16.3332 17.5001 15.8826 17.5001H13.4544L15 17.5C15.8711 17.5 16.4079 16.7762 16.4079 15.9288V15.622C16.4079 14.9183 15.9156 14.3048 15.2141 14.1347L12.8286 13.5546C12.4404 13.4604 12.0428 13.4128 11.6431 13.4128C10.6783 13.4128 8.93189 14.2117 8.93189 14.2117L6.5 15.4377M20 6.5C20 8.433 18.433 10 16.5 10C14.567 10 13 8.433 13 6.5C13 4.567 14.567 3 16.5 3C18.433 3 20 4.567 20 6.5ZM2.5 14.1L2.5 20.9C2.5 21.4601 2.5 21.7401 2.60899 21.954C2.70487 22.1422 2.85785 22.2951 3.04601 22.391C3.25992 22.5 3.53995 22.5 4.1 22.5H4.9C5.46005 22.5 5.74008 22.5 5.95399 22.391C6.14215 22.2951 6.29513 22.1422 6.39101 21.954C6.5 21.7401 6.5 21.4601 6.5 20.9V14.1C6.5 13.5399 6.5 13.2599 6.39101 13.046C6.29513 12.8578 6.14215 12.7049 5.95399 12.609C5.74008 12.5 5.46005 12.5 4.9 12.5L4.1 12.5C3.53995 12.5 3.25992 12.5 3.04601 12.609C2.85785 12.7049 2.70487 12.8578 2.60899 13.046C2.5 13.2599 2.5 13.5399 2.5 14.1Z" stroke="#8956FF" stroke-linecap="round" stroke-linejoin="round"/>
</svg>
