<svg width="24" height="24" viewBox="0 0 24 24" fill="none" xmlns="http://www.w3.org/2000/svg">
<path d="M12.5 3.50027H7.3C5.61984 3.50027 4.77976 3.50027 4.13803 3.82725C3.57354 4.11487 3.1146 4.57382 2.82698 5.1383C2.5 5.78004 2.5 6.62012 2.5 8.30027V16.7003C2.5 18.3804 2.5 19.2205 2.82698 19.8622C3.1146 20.4267 3.57354 20.8857 4.13803 21.1733C4.77976 21.5003 5.61984 21.5003 7.3 21.5003H15.7C17.3802 21.5003 18.2202 21.5003 18.862 21.1733C19.4265 20.8857 19.8854 20.4267 20.173 19.8622C20.5 19.2205 20.5 18.3804 20.5 16.7003V12.5003M8.49997 16.5002H10.1745C10.6637 16.5002 10.9083 16.5002 11.1385 16.4449C11.3425 16.3959 11.5376 16.3151 11.7166 16.2055C11.9184 16.0818 12.0914 15.9088 12.4373 15.5629L22 6.00018C22.8284 5.17176 22.8284 3.82861 22 3.00018C21.1716 2.17176 19.8284 2.17175 19 3.00018L9.43723 12.5629C9.09133 12.9088 8.91838 13.0818 8.79469 13.2836C8.68504 13.4626 8.60423 13.6576 8.55523 13.8617C8.49997 14.0919 8.49997 14.3365 8.49997 14.8257V16.5002Z" stroke="black" stroke-width="0.833333" stroke-linecap="round" stroke-linejoin="round"/>
</svg>
