<svg width="96" height="96" viewBox="0 0 96 96" fill="none" xmlns="http://www.w3.org/2000/svg">
<path d="M58 7.07812V23.6003C58 25.8405 58 26.9606 58.436 27.8162C58.8195 28.5689 59.4314 29.1808 60.184 29.5643C61.0397 30.0003 62.1598 30.0003 64.4 30.0003H80.9222M58 70H30M66 50H30M82 37.9529V70.8C82 77.5206 82 80.8809 80.6921 83.4479C79.5416 85.7058 77.7058 87.5416 75.4479 88.6921C72.8809 90 69.5206 90 62.8 90H33.2C26.4794 90 23.1191 90 20.5521 88.6921C18.2942 87.5416 16.4584 85.7058 15.3079 83.4479C14 80.8809 14 77.5206 14 70.8L14 25.2C14 18.4794 14 15.1191 15.3079 12.5521C16.4584 10.2942 18.2942 8.4584 20.5521 7.30792C23.1191 6 26.4794 6 33.2 6H50.0471C52.9822 6 54.4497 6 55.8308 6.33156C57.0552 6.62552 58.2258 7.11037 59.2994 7.76832C60.5104 8.51042 61.5481 9.54813 63.6236 11.6235L76.3764 24.3764C78.4519 26.4519 79.4896 27.4896 80.2317 28.7006C80.8896 29.7742 81.3745 30.9448 81.6684 32.1692C82 33.5503 82 35.0178 82 37.9529Z" stroke="#BEA2FF" stroke-width="4" stroke-linecap="round" stroke-linejoin="round"/>
</svg>
