<svg width="24" height="24" viewBox="0 0 24 24" fill="none" xmlns="http://www.w3.org/2000/svg">
<path d="M14.5 2.76953V6.90007C14.5 7.46012 14.5 7.74015 14.609 7.95406C14.7049 8.14222 14.8578 8.2952 15.046 8.39108C15.2599 8.50007 15.5399 8.50007 16.1 8.50007H20.2305M3.5 8.50007V16.7C3.5 18.3802 3.5 19.2202 3.82698 19.862C4.1146 20.4265 4.57354 20.8854 5.13803 21.173C5.77976 21.5 6.61984 21.5 8.3 21.5H15.7C17.3802 21.5 18.2202 21.5 18.862 21.173C19.4265 20.8854 19.8854 20.4265 20.173 19.862C20.5 19.2202 20.5 18.3802 20.5 16.7V10.4882C20.5 9.75445 20.5 9.38757 20.4171 9.0423C20.3436 8.7362 20.2224 8.44356 20.0579 8.17515C19.8724 7.8724 19.613 7.61297 19.0941 7.09411L15.9059 3.90589C15.387 3.38703 15.1276 3.1276 14.8249 2.94208C14.5564 2.77759 14.2638 2.65638 13.9577 2.58289C13.6124 2.5 13.2455 2.5 12.5118 2.5H9.5M14.5 16.5H7.5M16.5 12.5H7.5M5.5 7.5V4.5M5.5 4.5V1.5M5.5 4.5H2.5M5.5 4.5H8.5" stroke="#6938DA" stroke-linecap="round" stroke-linejoin="round"/>
</svg>
