<svg width="24" height="24" viewBox="0 0 24 24" fill="none" xmlns="http://www.w3.org/2000/svg">
<path d="M3.50003 21L3.50002 4.5M3.5 12.5H11.9C12.4601 12.5 12.7401 12.5 12.954 12.391C13.1422 12.2951 13.2951 12.1422 13.391 11.954C13.5 11.7401 13.5 11.4601 13.5 10.9L13.5 5.1C13.5 4.53995 13.5 4.25992 13.391 4.04601C13.2952 3.85785 13.1422 3.70487 12.954 3.60899C12.7401 3.5 12.4601 3.5 11.9 3.5H5.10002C4.53997 3.5 4.25995 3.5 4.04603 3.60899C3.85787 3.70487 3.70489 3.85785 3.60902 4.04601C3.50002 4.25992 3.50002 4.53995 3.50002 5.1L3.5 12.5ZM13.5 5.5H19.9C20.4601 5.5 20.7401 5.5 20.954 5.60899C21.1422 5.70487 21.2952 5.85785 21.391 6.04601C21.5 6.25992 21.5 6.53995 21.5 7.1V12.9C21.5 13.4601 21.5 13.7401 21.391 13.954C21.2952 14.1422 21.1422 14.2951 20.954 14.391C20.7401 14.5 20.4601 14.5 19.9 14.5H15.1C14.54 14.5 14.2599 14.5 14.046 14.391C13.8579 14.2951 13.7049 14.1422 13.609 13.954C13.5 13.7401 13.5 13.4601 13.5 12.9V5.5Z" stroke="#8956FF" stroke-linecap="round" stroke-linejoin="round"/>
<rect x="4" y="4" width="2" height="2" fill="#8956FF"/>
<rect x="13" y="10" width="2" height="2" fill="#8956FF"/>
<rect x="6" y="6" width="2" height="2" fill="#8956FF"/>
<rect x="15" y="12" width="2" height="2" fill="#8956FF"/>
<rect x="19" y="12" width="2" height="2" fill="#8956FF"/>
<rect x="8" y="8" width="2" height="2" fill="#8956FF"/>
<rect x="17" y="6" width="2" height="2" fill="#8956FF"/>
<rect x="4" y="8" width="2" height="2" fill="#8956FF"/>
<rect x="8" y="4" width="2" height="2" fill="#8956FF"/>
<rect x="12" y="4" width="1" height="2" fill="#8956FF"/>
<rect x="12" y="8" width="1" height="2" fill="#8956FF"/>
<rect x="13" y="6" width="2" height="2" fill="#8956FF"/>
<rect x="17" y="10" width="2" height="2" fill="#8956FF"/>
<rect x="10" y="10" width="2" height="2" fill="#8956FF"/>
<rect x="6" y="10" width="2" height="2" fill="#8956FF"/>
<rect x="15" y="8" width="2" height="2" fill="#8956FF"/>
<rect x="19" y="8" width="2" height="2" fill="#8956FF"/>
<rect x="10" y="6" width="2" height="2" fill="#8956FF"/>
</svg>
