<svg width="24" height="25" viewBox="0 0 24 25" fill="none" xmlns="http://www.w3.org/2000/svg">
<path d="M16 8.50011V13.5001C16 14.2958 16.3161 15.0588 16.8787 15.6214C17.4413 16.184 18.2044 16.5001 19 16.5001C19.7956 16.5001 20.5587 16.184 21.1213 15.6214C21.6839 15.0588 22 14.2958 22 13.5001V12.5001C21.9999 10.2431 21.2362 8.05259 19.8333 6.28464C18.4303 4.5167 16.4706 3.27534 14.2726 2.76241C12.0747 2.24948 9.76793 2.49515 7.72735 3.45948C5.68676 4.4238 4.0324 6.05007 3.03326 8.07383C2.03412 10.0976 1.74896 12.3998 2.22417 14.6062C2.69937 16.8126 3.90697 18.7933 5.65063 20.2264C7.39428 21.6594 9.57143 22.4605 11.8281 22.4993C14.0847 22.5381 16.2881 21.8124 18.08 20.4401M16 12.5001C16 14.7093 14.2091 16.5001 12 16.5001C9.79086 16.5001 8 14.7093 8 12.5001C8 10.291 9.79086 8.50011 12 8.50011C14.2091 8.50011 16 10.291 16 12.5001Z" stroke="#6F6F6F" stroke-linecap="round" stroke-linejoin="round"/>
</svg>
