<svg width="24" height="24" viewBox="0 0 24 24" fill="none" xmlns="http://www.w3.org/2000/svg">
<rect x="12.8492" y="3.82812" width="9" height="6" transform="rotate(45 12.8492 3.82812)" stroke="#33CFFF" stroke-linecap="round" stroke-linejoin="round"/>
<path d="M11.8744 2.56066C12.184 2.25102 12.6861 2.25102 12.9957 2.56066V2.56066C13.3054 2.8703 13.3054 3.37234 12.9957 3.68198L8.46018 8.21751C8.15054 8.52716 7.64851 8.52716 7.33886 8.21751V8.21751C7.02922 7.90787 7.02922 7.40584 7.33886 7.09619L11.8744 2.56066Z" stroke="#33CFFF" stroke-linecap="round" stroke-linejoin="round"/>
<path d="M19.3596 10.046C19.6693 9.73637 20.1713 9.73637 20.4809 10.046V10.046C20.7906 10.3557 20.7906 10.8577 20.4809 11.1673L15.9454 15.7029C15.6358 16.0125 15.1337 16.0125 14.8241 15.7029V15.7029C14.5145 15.3932 14.5144 14.8912 14.8241 14.5815L19.3596 10.046Z" stroke="#33CFFF" stroke-linecap="round" stroke-linejoin="round"/>
<path d="M22.5 20.5H14.5C13.9477 20.5 13.5 20.9477 13.5 21.5C13.5 22.0523 13.9477 22.5 14.5 22.5H22.5C23.0523 22.5 23.5 22.0523 23.5 21.5C23.5 20.9477 23.0523 20.5 22.5 20.5Z" stroke="#33CFFF" stroke-linecap="round"/>
<path d="M10.7279 10.1924L12.8492 12.3137L4.7175 20.4454C4.13171 21.0312 3.18196 21.0312 2.59618 20.4454V20.4454C2.01039 19.8596 2.01039 18.9099 2.59618 18.3241L10.7279 10.1924Z" stroke="#33CFFF" stroke-linecap="round" stroke-linejoin="round"/>
</svg>
