<svg width="131" height="55" viewBox="0 0 131 55" fill="none" xmlns="http://www.w3.org/2000/svg">
<g clip-path="url(#clip0_157_5985)">
<path d="M50.8749 51.2015H47.3179L46.5156 53.537C46.4353 53.769 46.2176 53.9262 45.9711 53.9262H45.8355C45.4382 53.9262 45.1593 53.5293 45.2949 53.1535L48.2788 44.8318C48.3609 44.6036 48.5768 44.4502 48.8194 44.4502H49.402C49.6446 44.4502 49.8605 44.6036 49.9426 44.8318L52.9265 53.1535C53.0621 53.5293 52.7832 53.9262 52.3859 53.9262H52.235C51.9905 53.9262 51.7727 53.7709 51.6925 53.5389L50.8768 51.1996L50.8749 51.2015ZM49.0964 45.7522C49.0964 45.7522 48.8824 46.6112 48.722 47.0944L47.6656 50.1009H50.5272L49.4842 47.0944C49.3237 46.6112 49.1231 45.7522 49.1231 45.7522H49.0964Z" fill="#6938DA"/>
<path d="M56.7853 44.4502H56.9591C57.2762 44.4502 57.5341 44.7091 57.5341 45.0274V52.7719H61.1847C61.5018 52.7719 61.7597 53.0308 61.7597 53.3491C61.7597 53.6674 61.5018 53.9262 61.1847 53.9262H56.7853C56.4682 53.9262 56.2103 53.6674 56.2103 53.3491V45.0274C56.2103 44.7091 56.4682 44.4502 56.7853 44.4502Z" fill="#6938DA"/>
<path d="M65.4771 44.4502H65.6509C65.968 44.4502 66.2259 44.7091 66.2259 45.0274V52.7719H69.8765C70.1936 52.7719 70.4515 53.0308 70.4515 53.3491C70.4515 53.6674 70.1936 53.9262 69.8765 53.9262H65.4771C65.16 53.9262 64.9021 53.6674 64.9021 53.3491V45.0274C64.9021 44.7091 65.16 44.4502 65.4771 44.4502Z" fill="#6938DA"/>
<path d="M79.2236 44.4502H79.3974C79.7145 44.4502 79.9724 44.7091 79.9724 45.0274V53.3491C79.9724 53.6674 79.7145 53.9262 79.3974 53.9262H79.2236C78.9065 53.9262 78.6486 53.6674 78.6486 53.3491V45.0274C78.6486 44.7091 78.9065 44.4502 79.2236 44.4502Z" fill="#6938DA"/>
<path d="M84.7328 44.4502H85.1645C85.3536 44.4502 85.5313 44.5442 85.6383 44.7014L89.6671 50.611C90.0147 51.121 90.456 51.98 90.456 51.98H90.4828C90.4828 51.98 90.3892 51.1344 90.3892 50.611V45.0274C90.3892 44.7091 90.647 44.4502 90.9642 44.4502H91.138C91.4551 44.4502 91.713 44.7091 91.713 45.0274V53.3491C91.713 53.6674 91.4551 53.9262 91.138 53.9262H90.7177C90.5286 53.9262 90.351 53.8323 90.244 53.677L86.2018 47.7789C85.8541 47.2554 85.4129 46.3964 85.4129 46.3964H85.3861C85.3861 46.3964 85.4797 47.242 85.4797 47.7789V53.3491C85.4797 53.6674 85.2218 53.9262 84.9047 53.9262H84.7309C84.4138 53.9262 84.1559 53.6674 84.1559 53.3491V45.0274C84.1559 44.7091 84.4138 44.4502 84.7309 44.4502H84.7328Z" fill="#6938DA"/>
<path d="M105.165 44.2892C107.893 44.2892 110.006 46.3964 110.006 49.1211C110.006 51.8458 107.893 54.0873 105.165 54.0873C102.437 54.0873 100.311 51.9129 100.311 49.1211C100.311 46.3293 102.437 44.2892 105.165 44.2892ZM105.165 52.8659C107.091 52.8659 108.642 51.2552 108.642 49.1211C108.642 46.987 107.091 45.4971 105.165 45.4971C103.24 45.4971 101.675 47.0541 101.675 49.1211C101.675 51.1881 103.24 52.8659 105.165 52.8659Z" fill="#6938DA"/>
<path d="M114.125 44.4502H114.556C114.745 44.4502 114.923 44.5442 115.03 44.7014L119.059 50.611C119.406 51.121 119.848 51.98 119.848 51.98H119.874C119.874 51.98 119.781 51.1344 119.781 50.611V45.0274C119.781 44.7091 120.039 44.4502 120.356 44.4502H120.53C120.847 44.4502 121.105 44.7091 121.105 45.0274V53.3491C121.105 53.6674 120.847 53.9262 120.53 53.9262H120.109C119.92 53.9262 119.743 53.8323 119.636 53.677L115.594 47.7789C115.246 47.2554 114.805 46.3964 114.805 46.3964H114.778C114.778 46.3964 114.871 47.242 114.871 47.7789V53.3491C114.871 53.6674 114.614 53.9262 114.296 53.9262H114.123C113.805 53.9262 113.548 53.6674 113.548 53.3491V45.0274C113.548 44.7091 113.805 44.4502 114.123 44.4502H114.125Z" fill="#6938DA"/>
<path d="M125.865 44.4502H130.198C130.515 44.4502 130.773 44.7091 130.773 45.0274C130.773 45.3457 130.515 45.6045 130.198 45.6045H126.614V48.5708H129.422C129.739 48.5708 129.997 48.8297 129.997 49.148C129.997 49.4663 129.739 49.7251 129.422 49.7251H126.614V52.7719H130.425C130.742 52.7719 131 53.0308 131 53.3491C131 53.6674 130.742 53.9262 130.425 53.9262H125.865C125.548 53.9262 125.29 53.6674 125.29 53.3491V45.0274C125.29 44.7091 125.548 44.4502 125.865 44.4502Z" fill="#6938DA"/>
<path d="M32.418 12.4553L17.1873 0.229714C16.8033 -0.0770769 16.2589 -0.0789943 15.8749 0.229714L0.644189 12.4553C0.0711024 12.9155 -0.14285 13.6633 0.0997567 14.3594C0.342364 15.0554 0.974669 15.506 1.71013 15.506H1.95656V30.487C1.95656 32.2664 3.39883 33.7141 5.17158 33.7141H27.8926C29.6653 33.7141 31.1076 32.2664 31.1076 30.487V26.9819C31.1076 26.399 30.6376 25.9273 30.0569 25.9273H29.0846C28.5039 25.9273 28.0339 26.399 28.0339 26.9819V30.5484C28.0339 30.5925 27.9976 30.6289 27.9537 30.6289H5.10854C5.0646 30.6289 5.0283 30.5925 5.0283 30.5484V13.4735C5.0283 13.2952 4.98437 13.1284 4.90604 12.9807L16.5302 3.65044L28.1543 12.9807C28.0759 13.1284 28.032 13.2952 28.032 13.4735V18.6679C28.032 19.2508 28.5019 19.7225 29.0827 19.7225H30.055C30.6357 19.7225 31.1057 19.2508 31.1057 18.6679V15.5041H31.3521C32.0876 15.5041 32.7199 15.0535 32.9625 14.3575C33.2051 13.6614 32.9911 12.9136 32.418 12.4515V12.4553Z" fill="#74DB07"/>
<path d="M39.9308 40.6403C39.6882 39.9442 39.0559 39.4936 38.3204 39.4936H38.074V24.5126C38.074 22.7333 36.6317 21.2856 34.859 21.2856H12.138C10.3652 21.2856 8.92297 22.7333 8.92297 24.5126V28.0177C8.92297 28.6006 9.3929 29.0723 9.97363 29.0723H10.946C11.5267 29.0723 11.9966 28.6006 11.9966 28.0177V24.4513C11.9966 24.4072 12.0329 24.3708 12.0769 24.3708H34.922C34.9659 24.3708 35.0022 24.4072 35.0022 24.4513V41.5261C35.0022 41.7045 35.0462 41.8713 35.1245 42.0189L23.5004 51.3492L11.8763 42.0189C11.9546 41.8713 11.9985 41.7045 11.9985 41.5261V36.3318C11.9985 35.7489 11.5286 35.2772 10.9479 35.2772H9.97554C9.39481 35.2772 8.92488 35.7489 8.92488 36.3318V39.4956H8.67845C7.94299 39.4956 7.31069 39.9462 7.06808 40.6422C6.82547 41.3382 7.03942 42.086 7.61251 42.5481L22.8432 54.7718C23.0343 54.9252 23.2673 55.0019 23.4985 55.0019C23.7296 55.0019 23.9627 54.9252 24.1537 54.7718L39.3844 42.5462C39.9575 42.086 40.1715 41.3382 39.9289 40.6422L39.9308 40.6403Z" fill="#6938DA"/>
<path d="M101.087 16.7336C98.3302 13.9667 94.6472 12.4423 90.7158 12.4423C86.7844 12.4423 83.1033 13.9667 80.3449 16.7336C77.5864 19.5004 76.0391 23.2721 76.0391 27.2949C76.0391 31.3177 77.5673 35.2676 80.3429 38.1342C83.1033 40.9854 86.7883 42.5558 90.7158 42.5558C94.6434 42.5558 98.3283 40.9854 101.089 38.1342C103.864 35.2676 105.393 31.4174 105.393 27.2949C105.393 23.1723 103.862 19.5196 101.087 16.7336ZM102.991 27.2968C102.991 34.5716 97.6005 40.2702 90.7177 40.2702C83.835 40.2702 78.4441 34.5716 78.4441 27.2968C78.4441 20.022 83.835 14.7318 90.7177 14.7318C97.6005 14.7318 102.991 20.2521 102.991 27.2968Z" fill="black"/>
<path d="M129.571 39.8618C128.855 39.8618 128.52 39.764 128.295 39.1504L118.915 14.0165C118.673 13.3685 118.046 12.9313 117.357 12.9313C116.667 12.9313 116.041 13.3665 115.798 14.0165L106.416 39.1523C106.193 39.764 105.857 39.8618 105.125 39.8618C104.52 39.8618 104.025 40.3565 104.025 40.9662C104.025 41.576 104.518 42.0707 105.125 42.0707H105.182C107.351 42.0707 108.025 41.5932 108.783 39.5167L111.519 32.1958H123.195L125.928 39.5147C126.688 41.5913 127.361 42.0707 129.531 42.0707H129.588C130.194 42.0707 130.689 41.576 130.689 40.9662C130.689 40.3565 130.196 39.8618 129.573 39.8618H129.571ZM122.408 29.9869H112.34L116.505 18.7852C116.784 18.0202 117.122 16.8966 117.339 16.1392C117.571 16.8985 117.926 18.0317 118.203 18.7872L122.406 29.9869H122.408Z" fill="black"/>
<path d="M72.8508 39.8618H71.9167C71.4849 39.8618 71.3092 39.6854 71.3092 39.252V15.7499C71.3092 15.3166 71.4849 15.1402 71.9167 15.1402H72.8508C73.4563 15.1402 73.9511 14.6455 73.9511 14.0357C73.9511 13.426 73.4583 12.9313 72.8508 12.9313H71.632C70.1745 12.9313 68.9882 14.122 68.9882 15.585V26.3553H51.5129V15.585C51.5129 14.122 50.3266 12.9313 48.869 12.9313H47.6503C47.0447 12.9313 46.5499 13.426 46.5499 14.0357C46.5499 14.6455 47.0428 15.1402 47.6503 15.1402H48.5863C49.018 15.1402 49.1938 15.3166 49.1938 15.7499V39.252C49.1938 39.6854 49.018 39.8618 48.5863 39.8618H47.6503C47.0447 39.8618 46.5499 40.3565 46.5499 40.9662C46.5499 41.576 47.0428 42.0707 47.6503 42.0707H48.869C50.3266 42.0707 51.5129 40.88 51.5129 39.4169V28.5661H68.9882V39.4169C68.9882 40.88 70.1745 42.0707 71.632 42.0707H72.8508C73.4563 42.0707 73.9511 41.576 73.9511 40.9662C73.9511 40.3565 73.4583 39.8618 72.8508 39.8618Z" fill="black"/>
</g>
<defs>
<clipPath id="clip0_157_5985">
<rect width="131" height="55" fill="white"/>
</clipPath>
</defs>
</svg>
