<svg width="24" height="24" viewBox="0 0 24 24" fill="none" xmlns="http://www.w3.org/2000/svg">
<path d="M13.0115 2.78877C13.0011 2.77984 12.9959 2.77538 12.9893 2.76987C12.9843 2.76579 12.9764 2.75936 12.9714 2.75539C12.9646 2.75004 12.9605 2.74688 12.9522 2.74057C12.8376 2.65318 12.4275 2.34632 12.2614 2.30136C12.0903 2.25502 11.9099 2.25502 11.7387 2.30136C11.5727 2.34632 11.1625 2.65318 11.0479 2.74058C11.0397 2.74689 11.0355 2.75004 11.0288 2.75539C11.0237 2.75936 11.0158 2.76579 11.0109 2.76987C11.0042 2.77538 10.999 2.77984 10.9886 2.78876L2 10.4998H3.50004V18.2998C3.50004 19.4199 3.50004 19.9799 3.71803 20.4077C3.90978 20.7841 4.21574 21.09 4.59206 21.2818C5.01989 21.4998 5.57994 21.4998 6.70004 21.4998C12.0181 21.4998 11.982 21.4998 17.3001 21.4998C18.4202 21.4998 18.9802 21.4998 19.4081 21.2818C19.7844 21.09 20.0904 20.7841 20.2821 20.4077C20.5001 19.9799 20.5001 19.4199 20.5001 18.2998V10.4998H22L13.0115 2.78877Z" stroke="#6F6F6F" stroke-linecap="round" stroke-linejoin="round"/>
</svg>
