<svg width="96" height="96" viewBox="0 0 96 96" fill="none" xmlns="http://www.w3.org/2000/svg">
<path d="M51.9585 11.081C51.9478 11.0718 51.9425 11.0672 51.9364 11.0622C51.9315 11.0581 51.9252 11.053 51.9202 11.049C51.9141 11.0441 51.9093 11.0405 51.8999 11.0332C51.6425 10.8348 49.7674 9.40186 49.0455 9.2064C48.3609 9.02104 47.6394 9.02104 46.9548 9.2064C46.2329 9.40187 44.3577 10.8348 44.1004 11.0332C44.0909 11.0405 44.0862 11.0441 44.0801 11.049C44.0751 11.053 44.0688 11.0581 44.0639 11.0622C44.0578 11.0672 44.0525 11.0718 44.0418 11.081L7.99988 42H14.0001V73.2C14.0001 77.6804 14 79.9206 14.872 81.6319C15.639 83.1372 16.8628 84.3611 18.3681 85.1281C20.0794 86 22.3196 86 26.8 86C48.0723 86 47.928 86 69.2002 86C73.6806 86 75.9209 86 77.6321 85.1281C79.1374 84.3611 80.3613 83.1372 81.1283 81.6319C82.0002 79.9206 82.0002 77.6804 82.0002 73.2V42H87.9999L51.9585 11.081Z" stroke="#BEA2FF" stroke-width="4" stroke-linecap="round" stroke-linejoin="round"/>
</svg>
