<svg width="96" height="96" viewBox="0 0 96 96" fill="none" xmlns="http://www.w3.org/2000/svg">
<path d="M22.0001 85.1281C22.0014 81.8907 22.0209 80.3194 22.3075 78.8786C23.57 72.5315 27.6531 67.5699 34.0001 66.3074C35.5457 66 36.2828 66 40 66H56C59.7173 66 60.4545 66 62.0001 66.3074C68.3472 67.5699 72.4303 72.5315 73.6928 78.8786C73.9794 80.3194 73.9988 81.8907 74.0001 85.1281M82.0001 42V73.2C82.0001 77.6804 82.0001 79.9206 81.1282 81.6319C80.3612 83.1372 79.1373 84.3611 77.632 85.1281C75.9207 86 73.6805 86 69.2001 86C47.9279 86 48.0724 86 26.8001 86C22.3197 86 20.0795 86 18.3682 85.1281C16.8629 84.3611 15.6391 83.1372 14.8721 81.6319C14.0001 79.9206 14.0001 77.6804 14.0001 73.2V42H8.00012L44.0417 11.081C44.0524 11.0718 44.0577 11.0672 44.0638 11.0622C44.0687 11.0581 44.075 11.053 44.08 11.049C44.0861 11.0441 44.0909 11.0405 44.1003 11.0332C44.3577 10.8348 46.2328 9.40186 46.9547 9.2064C47.6393 9.02104 48.3608 9.02104 49.0454 9.2064C49.7673 9.40186 51.6425 10.8348 51.8998 11.0332C51.9093 11.0405 51.914 11.0441 51.9201 11.049C51.9251 11.053 51.9314 11.0581 51.9363 11.0622C51.9424 11.0672 51.9477 11.0718 51.9584 11.081L88.0001 42H82.0001ZM60.0001 46C60.0001 52 54.0001 58 48.0001 58C42 58 36.0001 52 36.0001 46C36.0001 40 42.0001 34 48.0001 34C54 34 60.0001 40 60.0001 46Z" stroke="#BEA2FF" stroke-width="4" stroke-linecap="round" stroke-linejoin="round"/>
</svg>
