<svg width="24" height="24" viewBox="0 0 24 24" fill="none" xmlns="http://www.w3.org/2000/svg">
<path d="M3.77209 21.2279L11.3686 14.6314C11.7646 14.2354 11.9626 14.0373 12.191 13.9632C12.3918 13.8979 12.6082 13.8979 12.809 13.9632C13.0373 14.0373 13.2353 14.2354 13.6314 14.6314L20.1839 21.1839M14.5 15.5L17.3686 12.6314C17.7646 12.2354 17.9626 12.0373 18.191 11.9632C18.3918 11.8979 18.6082 11.8979 18.809 11.9632C19.0373 12.0373 19.2353 12.2354 19.6314 12.6314L22.5 15.5M9.99999 9C9.99999 10.1046 9.10456 11 7.99999 11C6.89542 11 5.99999 10.1046 5.99999 9C5.99999 7.89543 6.89542 7 7.99999 7C9.10456 7 9.99999 7.89543 9.99999 9ZM6.3 21.5H17.7C19.3801 21.5 20.2202 21.5 20.862 21.173C21.4264 20.8854 21.8854 20.4265 22.173 19.862C22.5 19.2202 22.5 18.3802 22.5 16.7V7.3C22.5 5.61984 22.5 4.77976 22.173 4.13803C21.8854 3.57354 21.4264 3.1146 20.862 2.82698C20.2202 2.5 19.3801 2.5 17.7 2.5H6.3C4.61984 2.5 3.77976 2.5 3.13803 2.82698C2.57354 3.1146 2.1146 3.57354 1.82698 4.13803C1.5 4.77976 1.5 5.61984 1.5 7.3V16.7C1.5 18.3802 1.5 19.2202 1.82698 19.862C2.1146 20.4265 2.57354 20.8854 3.13803 21.173C3.77976 21.5 4.61984 21.5 6.3 21.5Z" stroke="#8956FF" stroke-linecap="round" stroke-linejoin="round"/>
</svg>
