<svg width="132" height="56" viewBox="0 0 132 56" fill="none" xmlns="http://www.w3.org/2000/svg">
<g clip-path="url(#clip0_294_6166)">
<path d="M51.3748 51.7018H47.8179L47.0155 54.0372C46.9353 54.2692 46.7175 54.4265 46.4711 54.4265H46.3355C45.9381 54.4265 45.6592 54.0295 45.7949 53.6537L48.7787 45.332C48.8609 45.1038 49.0767 44.9504 49.3194 44.9504H49.902C50.1446 44.9504 50.3605 45.1038 50.4426 45.332L53.4265 53.6537C53.5621 54.0295 53.2832 54.4265 52.8859 54.4265H52.735C52.4904 54.4265 52.2727 54.2711 52.1924 54.0391L51.3767 51.6998L51.3748 51.7018ZM49.5963 46.2524C49.5963 46.2524 49.3824 47.1114 49.2219 47.5946L48.1655 50.6012H51.0272L49.9841 47.5946C49.8237 47.1114 49.6231 46.2524 49.6231 46.2524H49.5963Z" fill="#6938DA"/>
<path d="M57.2853 44.9504H57.4591C57.7762 44.9504 58.0341 45.2093 58.0341 45.5276V53.2722H61.6847C62.0018 53.2722 62.2597 53.531 62.2597 53.8493C62.2597 54.1676 62.0018 54.4265 61.6847 54.4265H57.2853C56.9682 54.4265 56.7103 54.1676 56.7103 53.8493V45.5276C56.7103 45.2093 56.9682 44.9504 57.2853 44.9504Z" fill="#6938DA"/>
<path d="M65.9771 44.9504H66.1509C66.468 44.9504 66.7259 45.2093 66.7259 45.5276V53.2722H70.3765C70.6936 53.2722 70.9515 53.531 70.9515 53.8493C70.9515 54.1676 70.6936 54.4265 70.3765 54.4265H65.9771C65.66 54.4265 65.4021 54.1676 65.4021 53.8493V45.5276C65.4021 45.2093 65.66 44.9504 65.9771 44.9504Z" fill="#6938DA"/>
<path d="M79.7235 44.9504H79.8974C80.2145 44.9504 80.4724 45.2093 80.4724 45.5276V53.8493C80.4724 54.1676 80.2145 54.4265 79.8974 54.4265H79.7235C79.4064 54.4265 79.1485 54.1676 79.1485 53.8493V45.5276C79.1485 45.2093 79.4064 44.9504 79.7235 44.9504Z" fill="#6938DA"/>
<path d="M85.2328 44.9504H85.6645C85.8536 44.9504 86.0313 45.0444 86.1383 45.2016L90.1671 51.1112C90.5147 51.6212 90.956 52.4802 90.956 52.4802H90.9828C90.9828 52.4802 90.8892 51.6347 90.8892 51.1112V45.5276C90.8892 45.2093 91.147 44.9504 91.4642 44.9504H91.638C91.9551 44.9504 92.213 45.2093 92.213 45.5276V53.8493C92.213 54.1676 91.9551 54.4265 91.638 54.4265H91.2177C91.0286 54.4265 90.851 54.3325 90.744 54.1772L86.7018 48.2791C86.3541 47.7557 85.9129 46.8966 85.9129 46.8966H85.8861C85.8861 46.8966 85.9797 47.7422 85.9797 48.2791V53.8493C85.9797 54.1676 85.7218 54.4265 85.4047 54.4265H85.2309C84.9138 54.4265 84.6559 54.1676 84.6559 53.8493V45.5276C84.6559 45.2093 84.9138 44.9504 85.2309 44.9504H85.2328Z" fill="#6938DA"/>
<path d="M105.665 44.7893C108.393 44.7893 110.506 46.8966 110.506 49.6213C110.506 52.346 108.393 54.5875 105.665 54.5875C102.937 54.5875 100.811 52.4131 100.811 49.6213C100.811 46.8295 102.937 44.7893 105.665 44.7893ZM105.665 53.366C107.591 53.366 109.142 51.7554 109.142 49.6213C109.142 47.4872 107.591 45.9973 105.665 45.9973C103.74 45.9973 102.175 47.5543 102.175 49.6213C102.175 51.6883 103.74 53.366 105.665 53.366Z" fill="#6938DA"/>
<path d="M114.625 44.9504H115.056C115.245 44.9504 115.423 45.0444 115.53 45.2016L119.559 51.1112C119.906 51.6212 120.348 52.4802 120.348 52.4802H120.374C120.374 52.4802 120.281 51.6347 120.281 51.1112V45.5276C120.281 45.2093 120.539 44.9504 120.856 44.9504H121.03C121.347 44.9504 121.605 45.2093 121.605 45.5276V53.8493C121.605 54.1676 121.347 54.4265 121.03 54.4265H120.609C120.42 54.4265 120.243 54.3325 120.136 54.1772L116.094 48.2791C115.746 47.7557 115.305 46.8966 115.305 46.8966H115.278C115.278 46.8966 115.371 47.7422 115.371 48.2791V53.8493C115.371 54.1676 115.114 54.4265 114.796 54.4265H114.623C114.305 54.4265 114.048 54.1676 114.048 53.8493V45.5276C114.048 45.2093 114.305 44.9504 114.623 44.9504H114.625Z" fill="#6938DA"/>
<path d="M126.365 44.9504H130.698C131.015 44.9504 131.273 45.2093 131.273 45.5276C131.273 45.8459 131.015 46.1047 130.698 46.1047H127.114V49.071H129.922C130.239 49.071 130.497 49.3299 130.497 49.6482C130.497 49.9665 130.239 50.2253 129.922 50.2253H127.114V53.2722H130.925C131.242 53.2722 131.5 53.531 131.5 53.8493C131.5 54.1676 131.242 54.4265 130.925 54.4265H126.365C126.048 54.4265 125.79 54.1676 125.79 53.8493V45.5276C125.79 45.2093 126.048 44.9504 126.365 44.9504Z" fill="#6938DA"/>
<path d="M32.918 12.9555L17.6873 0.729836C17.3033 0.423045 16.7589 0.421128 16.3749 0.729836L1.14416 12.9555C0.571072 13.4157 0.357119 14.1635 0.599726 14.8595C0.842333 15.5555 1.47464 16.0061 2.2101 16.0061H2.45653V30.9871C2.45653 32.7665 3.8988 34.2142 5.67154 34.2142H28.3925C30.1653 34.2142 31.6075 32.7665 31.6075 30.9871V27.482C31.6075 26.8991 31.1376 26.4274 30.5569 26.4274H29.5845C29.0038 26.4274 28.5339 26.8991 28.5339 27.482V31.0485C28.5339 31.0926 28.4976 31.129 28.4537 31.129H5.60851C5.56457 31.129 5.52827 31.0926 5.52827 31.0485V13.9736C5.52827 13.7953 5.48434 13.6285 5.40601 13.4808L17.0301 4.15056L28.6542 13.4808C28.5759 13.6285 28.532 13.7953 28.532 13.9736V19.168C28.532 19.7509 29.0019 20.2226 29.5826 20.2226H30.555C31.1357 20.2226 31.6056 19.7509 31.6056 19.168V16.0042H31.8521C32.5875 16.0042 33.2198 15.5536 33.4624 14.8576C33.705 14.1615 33.4911 13.4137 32.918 12.9516V12.9555Z" fill="#74DB07"/>
<path d="M40.4308 41.1403C40.1881 40.4443 39.5558 39.9937 38.8204 39.9937H38.574V25.0127C38.574 23.2333 37.1317 21.7856 35.3589 21.7856H12.638C10.8652 21.7856 9.42294 23.2333 9.42294 25.0127V28.5178C9.42294 29.1007 9.89287 29.5724 10.4736 29.5724H11.4459C12.0267 29.5724 12.4966 29.1007 12.4966 28.5178V24.9513C12.4966 24.9072 12.5329 24.8708 12.5768 24.8708H35.422C35.4659 24.8708 35.5022 24.9072 35.5022 24.9513V42.0262C35.5022 42.2045 35.5461 42.3713 35.6245 42.519L24.0004 51.8493L12.3762 42.519C12.4546 42.3713 12.4985 42.2045 12.4985 42.0262V36.8318C12.4985 36.2489 12.0286 35.7772 11.4478 35.7772H10.4755C9.89478 35.7772 9.42485 36.2489 9.42485 36.8318V39.9956H9.17842C8.44296 39.9956 7.81066 40.4462 7.56805 41.1423C7.32544 41.8383 7.53939 42.5861 8.11248 43.0482L23.3432 55.2719C23.5342 55.4253 23.7673 55.502 23.9984 55.502C24.2296 55.502 24.4626 55.4253 24.6537 55.2719L39.8844 43.0463C40.4575 42.5861 40.6715 41.8383 40.4288 41.1423L40.4308 41.1403Z" fill="#6938DA"/>
<path d="M101.587 17.2336C98.8302 14.4668 95.1472 12.9424 91.2158 12.9424C87.2844 12.9424 83.6033 14.4668 80.8449 17.2336C78.0864 20.0005 76.5391 23.7721 76.5391 27.7949C76.5391 31.8177 78.0673 35.7677 80.8429 38.6342C83.6033 41.4855 87.2883 43.0559 91.2158 43.0559C95.1434 43.0559 98.8283 41.4855 101.589 38.6342C104.364 35.7677 105.893 31.9174 105.893 27.7949C105.893 23.6724 104.362 20.0197 101.587 17.2336ZM103.491 27.7968C103.491 35.0716 98.1005 40.7703 91.2177 40.7703C84.335 40.7703 78.9441 35.0716 78.9441 27.7968C78.9441 20.522 84.335 15.2318 91.2177 15.2318C98.1005 15.2318 103.491 20.7521 103.491 27.7968Z" fill="black"/>
<path d="M130.071 40.3617C129.355 40.3617 129.02 40.2639 128.795 39.6503L119.416 14.5164C119.173 13.8683 118.546 13.4312 117.857 13.4312C117.167 13.4312 116.541 13.8664 116.298 14.5164L106.916 39.6522C106.693 40.2639 106.357 40.3617 105.625 40.3617C105.02 40.3617 104.525 40.8564 104.525 41.4661C104.525 42.0759 105.018 42.5706 105.625 42.5706H105.682C107.851 42.5706 108.525 42.0931 109.283 40.0165L112.019 32.6957H123.695L126.428 40.0146C127.188 42.0912 127.861 42.5706 130.031 42.5706H130.088C130.694 42.5706 131.189 42.0759 131.189 41.4661C131.189 40.8564 130.696 40.3617 130.073 40.3617H130.071ZM122.908 30.4868H112.84L117.005 19.2851C117.284 18.5201 117.622 17.3964 117.84 16.639C118.071 17.3983 118.426 18.5316 118.703 19.287L122.906 30.4868H122.908Z" fill="black"/>
<path d="M73.3508 40.3617H72.4167C71.9849 40.3617 71.8092 40.1853 71.8092 39.7519V16.2498C71.8092 15.8165 71.9849 15.64 72.4167 15.64H73.3508C73.9563 15.64 74.4511 15.1453 74.4511 14.5356C74.4511 13.9259 73.9583 13.4312 73.3508 13.4312H72.132C70.6745 13.4312 69.4882 14.6219 69.4882 16.0849V26.8552H52.0129V16.0849C52.0129 14.6219 50.8266 13.4312 49.369 13.4312H48.1503C47.5447 13.4312 47.0499 13.9259 47.0499 14.5356C47.0499 15.1453 47.5428 15.64 48.1503 15.64H49.0863C49.518 15.64 49.6938 15.8165 49.6938 16.2498V39.7519C49.6938 40.1853 49.518 40.3617 49.0863 40.3617H48.1503C47.5447 40.3617 47.0499 40.8564 47.0499 41.4661C47.0499 42.0759 47.5428 42.5706 48.1503 42.5706H49.369C50.8266 42.5706 52.0129 41.3798 52.0129 39.9168V29.066H69.4882V39.9168C69.4882 41.3798 70.6745 42.5706 72.132 42.5706H73.3508C73.9563 42.5706 74.4511 42.0759 74.4511 41.4661C74.4511 40.8564 73.9583 40.3617 73.3508 40.3617Z" fill="black"/>
</g>
<defs>
<clipPath id="clip0_294_6166">
<rect width="131" height="55" fill="white" transform="translate(0.5 0.5)"/>
</clipPath>
</defs>
</svg>
