<svg width="22" height="18" viewBox="0 0 22 18" fill="none" xmlns="http://www.w3.org/2000/svg">
<path d="M21 15.5L14 9.01809M8.10769 9.01809L1.00003 15.5M0.5 3.5L9.16492 9.71544C9.82609 10.1783 10.1567 10.4097 10.5163 10.4993C10.8339 10.5785 11.1661 10.5785 11.4837 10.4993C11.8433 10.4097 12.1739 10.1783 12.8351 9.71544L21.5 3.5M5.3 17.5H16.7C18.3802 17.5 19.2202 17.5 19.862 17.173C20.4265 16.8854 20.8854 16.4265 21.173 15.862C21.5 15.2202 21.5 14.3802 21.5 12.7V5.3C21.5 3.61984 21.5 2.77976 21.173 2.13803C20.8854 1.57354 20.4265 1.1146 19.862 0.82698C19.2202 0.5 18.3802 0.5 16.7 0.5L5.3 0.5C3.61984 0.5 2.77976 0.5 2.13803 0.82698C1.57354 1.1146 1.1146 1.57354 0.82698 2.13803C0.5 2.77976 0.5 3.61984 0.5 5.3V12.7C0.5 14.3802 0.5 15.2202 0.82698 15.862C1.1146 16.4265 1.57354 16.8854 2.13803 17.173C2.77976 17.5 3.61984 17.5 5.3 17.5Z" stroke="#6F6F6F" stroke-linecap="round" stroke-linejoin="round"/>
</svg>
