<svg width="24" height="24" viewBox="0 0 24 24" fill="none" xmlns="http://www.w3.org/2000/svg">
<path d="M22 18.5L15 12.0181M9.10769 12.0181L2.00003 18.5M1.5 6.5L10.1649 12.7154C10.8261 13.1783 11.1567 13.4097 11.5163 13.4993C11.8339 13.5785 12.1661 13.5785 12.4837 13.4993C12.8433 13.4097 13.1739 13.1783 13.8351 12.7154L22.5 6.5M6.3 20.5H17.7C19.3802 20.5 20.2202 20.5 20.862 20.173C21.4265 19.8854 21.8854 19.4265 22.173 18.862C22.5 18.2202 22.5 17.3802 22.5 15.7V8.3C22.5 6.61984 22.5 5.77976 22.173 5.13803C21.8854 4.57354 21.4265 4.1146 20.862 3.82698C20.2202 3.5 19.3802 3.5 17.7 3.5L6.3 3.5C4.61984 3.5 3.77976 3.5 3.13803 3.82698C2.57354 4.1146 2.1146 4.57354 1.82698 5.13803C1.5 5.77976 1.5 6.61984 1.5 8.3V15.7C1.5 17.3802 1.5 18.2202 1.82698 18.862C2.1146 19.4265 2.57354 19.8854 3.13803 20.173C3.77976 20.5 4.61984 20.5 6.3 20.5Z" stroke="#8956FF" stroke-linecap="round" stroke-linejoin="round"/>
</svg>
