<svg width="96" height="96" viewBox="0 0 96 96" fill="none" xmlns="http://www.w3.org/2000/svg">
<path d="M87.9999 74L60 48.0724M36.4308 48.0724L8.00014 74M6 26L40.6597 50.8618C43.3044 52.7131 44.6267 53.6387 46.0651 53.9972C47.3356 54.3139 48.6644 54.3139 49.9349 53.9972C51.3733 53.6387 52.6956 52.7131 55.3403 50.8618L90 26M25.2 82H70.8C77.5206 82 80.8809 82 83.4479 80.6921C85.7058 79.5416 87.5416 77.7058 88.6921 75.4479C90 72.8809 90 69.5206 90 62.8V33.2C90 26.4794 90 23.1191 88.6921 20.5521C87.5416 18.2942 85.7058 16.4584 83.4479 15.3079C80.8809 14 77.5206 14 70.8 14L25.2 14C18.4794 14 15.1191 14 12.5521 15.3079C10.2942 16.4584 8.4584 18.2942 7.30792 20.5521C6 23.1191 6 26.4794 6 33.2V62.8C6 69.5206 6 72.8809 7.30792 75.4479C8.4584 77.7058 10.2942 79.5416 12.5521 80.6921C15.1191 82 18.4794 82 25.2 82Z" stroke="#BEA2FF" stroke-width="4" stroke-linecap="round" stroke-linejoin="round"/>
</svg>
