<svg width="80" height="71" viewBox="0 0 80 71" fill="none" xmlns="http://www.w3.org/2000/svg">
<path d="M18 31.0005V47.0005M62 23.0005V39.0005M57.8713 2.07131C67.6661 2.07131 73.0925 4.49951 75.7285 5.66224C76.0795 5.81708 76.255 5.89451 76.7616 6.37795C77.0653 6.66774 77.6195 7.51804 77.7621 7.91282C78 8.57142 78 8.93143 78 9.65144V52.645C78 56.2801 78 58.0977 77.4549 59.0319C76.9004 59.9822 76.3656 60.424 75.3278 60.7892C74.3075 61.1483 72.1192 59.8234 68 59.0319C65.1168 58.4779 61.6974 58.0713 57.8713 58.0713C45.8713 58.0713 38 69.0005 22 69.0005C12.2052 69.0005 6.90747 65.5014 4.27153 64.3387C3.92049 64.1838 3.74497 64.1064 3.2384 63.623C2.93475 63.3332 2.38047 62.4829 2.23788 62.0881C2 61.4295 2 61.0695 2 60.3495L2 17.3559C2 13.7208 2 11.9033 2.54511 10.969C3.09961 10.0187 3.63436 9.57694 4.67224 9.21171C8.81277 7.75469 17.3155 13.0005 22 13.0005C34 13.0005 41.8713 2.07131 57.8713 2.07131ZM50 35.0005C50 40.5233 45.5228 45.0005 40 45.0005C34.4772 45.0005 30 40.5233 30 35.0005C30 29.4776 34.4772 25.0005 40 25.0005C45.5228 25.0005 50 29.4776 50 35.0005Z" stroke="#BEA2FF" stroke-width="4" stroke-linecap="round" stroke-linejoin="round"/>
</svg>
