<svg width="20" height="20" viewBox="0 0 20 20" fill="none" xmlns="http://www.w3.org/2000/svg">
<path d="M12.4998 15.8333C12.4998 17.214 11.3805 18.3333 9.99977 18.3333C8.61905 18.3333 7.49977 17.214 7.49977 15.8333M11.4969 5.19879C11.8598 4.82386 12.0831 4.313 12.0831 3.74999C12.0831 2.5994 11.1504 1.66666 9.99977 1.66666C8.84917 1.66666 7.91643 2.5994 7.91643 3.74999C7.91643 4.313 8.13977 4.82386 8.50268 5.19879M14.9998 9.33332C14.9998 8.18405 14.473 7.08185 13.5353 6.26919C12.5976 5.45654 11.3258 4.99999 9.99977 4.99999C8.67368 4.99999 7.40191 5.45654 6.46423 6.26919C5.52655 7.08185 4.99977 8.18405 4.99977 9.33332C4.99977 11.2348 4.52821 12.6255 3.93982 13.6206C3.26922 14.7547 2.93391 15.3217 2.94715 15.4572C2.9623 15.6122 2.9902 15.6611 3.11588 15.753C3.22574 15.8333 3.77769 15.8333 4.88159 15.8333H15.1179C16.2218 15.8333 16.7738 15.8333 16.8837 15.753C17.0093 15.6611 17.0372 15.6122 17.0524 15.4572C17.0656 15.3217 16.7303 14.7547 16.0597 13.6206C15.4713 12.6255 14.9998 11.2348 14.9998 9.33332Z" stroke="black" stroke-linecap="round" stroke-linejoin="round"/>
</svg>
