<svg width="49" height="48" viewBox="0 0 49 48" fill="none" xmlns="http://www.w3.org/2000/svg">
<path d="M27.7257 16.7037C26.5809 17.5199 25.1799 18 23.6667 18C19.8008 18 16.6667 14.866 16.6667 11C16.6667 7.13401 19.8008 4 23.6667 4C26.1727 4 28.3711 5.31683 29.6078 7.29628M13.6667 41H17.8873C18.568 41 19.2445 41.081 19.9044 41.243L25.4205 42.5835C26.6174 42.875 27.8643 42.9034 29.0737 42.6685L35.1727 41.4819C36.7838 41.1681 38.2659 40.3966 39.4274 39.2667L43.7425 35.0691C44.9748 33.8724 44.9748 31.9306 43.7425 30.7318C42.633 29.6526 40.8762 29.5311 39.621 30.4463L34.9298 34.1902C34.2096 34.7167 33.3332 35.0001 32.4319 35.0001H27.5756L30.6667 35C32.409 35 33.4825 33.5524 33.4825 31.8575V31.244C33.4825 29.8367 32.4979 28.6096 31.0949 28.2694L26.3239 27.1092C25.5475 26.9209 24.7524 26.8257 23.953 26.8257C22.0234 26.8257 18.5305 28.4233 18.5305 28.4233L13.6667 30.8755M40.6667 13C40.6667 16.866 37.5327 20 33.6667 20C29.8008 20 26.6667 16.866 26.6667 13C26.6667 9.13401 29.8008 6 33.6667 6C37.5327 6 40.6667 9.13401 40.6667 13ZM5.66675 28.2L5.66675 41.8C5.66675 42.9201 5.66675 43.4802 5.88473 43.908C6.07648 44.2843 6.38244 44.5903 6.75877 44.782C7.18659 45 7.74664 45 8.86675 45H10.4667C11.5869 45 12.1469 45 12.5747 44.782C12.9511 44.5903 13.257 44.2843 13.4488 43.908C13.6667 43.4802 13.6667 42.9201 13.6667 41.8V28.2C13.6667 27.0799 13.6667 26.5198 13.4488 26.092C13.257 25.7157 12.9511 25.4097 12.5747 25.218C12.1469 25 11.5869 25 10.4667 25L8.86675 25C7.74664 25 7.18659 25 6.75877 25.218C6.38244 25.4097 6.07648 25.7157 5.88474 26.092C5.66675 26.5198 5.66675 27.0799 5.66675 28.2Z" stroke="#BEA2FF" stroke-linecap="round" stroke-linejoin="round"/>
</svg>
