<svg width="49" height="48" viewBox="0 0 49 48" fill="none" xmlns="http://www.w3.org/2000/svg">
<path d="M24.3334 21V13M24.3334 27V29M20.1334 37.4L23.0534 41.2934C23.4876 41.8723 23.7047 42.1618 23.9709 42.2654C24.204 42.356 24.4627 42.356 24.6958 42.2654C24.962 42.1618 25.1791 41.8723 25.6134 41.2934L28.5334 37.4C29.1197 36.6183 29.4128 36.2274 29.7704 35.929C30.2471 35.5311 30.81 35.2497 31.4144 35.107C31.8676 35 33.3562 35 34.3334 35C37.129 35 38.5268 35 39.6295 34.5433C41.0996 33.9343 42.2677 32.7663 42.8767 31.2961C43.3334 30.1935 43.3334 28.7957 43.3334 26V14.6C43.3334 11.2397 43.3334 9.55956 42.6794 8.27609C42.1042 7.14712 41.1863 6.22923 40.0573 5.65399C38.7738 5.00003 37.0937 5.00003 33.7334 5.00003H14.9334C11.5731 5.00003 9.8929 5.00003 8.60943 5.65399C7.48046 6.22923 6.56258 7.14712 5.98733 8.27609C5.33337 9.55956 5.33337 11.2397 5.33337 14.6V26C5.33337 28.7957 5.33337 30.1935 5.7901 31.2961C6.39906 32.7663 7.5671 33.9343 9.03727 34.5433C10.1399 35 11.5377 35 14.3334 35C15.3105 35 16.7991 35 17.2524 35.107C17.8568 35.2497 18.4196 35.5311 18.8964 35.929C19.2539 36.2274 19.5471 36.6183 20.1334 37.4Z" stroke="#BEA2FF" stroke-linecap="round" stroke-linejoin="round"/>
</svg>
