<svg width="96" height="96" viewBox="0 0 96 96" fill="none" xmlns="http://www.w3.org/2000/svg">
<path d="M64 11.9997C67.7199 11.9997 71.5798 11.9997 73.1058 12.4086C77.2469 13.5182 80.4815 16.7528 81.5911 20.8939C82 22.4199 82 24.2798 82 27.9997V70.7997C82 77.5203 82 80.8807 80.6921 83.4476C79.5416 85.7055 77.7058 87.5413 75.4479 88.6918C72.8809 89.9997 71.5206 89.9997 64.8 89.9997H31.2C24.4794 89.9997 23.1191 89.9997 20.5521 88.6918C18.2942 87.5413 16.4584 85.7055 15.3079 83.4476C14 80.8807 14 77.5203 14 70.7997V27.9997C14 24.2798 14 22.4199 14.4089 20.8939C15.5185 16.7528 18.7531 13.5182 22.8942 12.4086C24.4202 11.9997 28.2801 11.9997 32 11.9997M64 11.9997C64 14.2399 64 15.36 63.564 16.2157C63.1805 16.9683 62.5686 17.5802 61.816 17.9637C60.9603 18.3997 59.8402 18.3997 57.6 18.3997H38.4C36.1598 18.3997 35.0397 18.3997 34.184 17.9637C33.4314 17.5802 32.8195 16.9683 32.436 16.2157C32 15.36 32 14.2399 32 11.9997M64 11.9997C64 9.7595 64 8.63929 63.564 7.78365C63.1805 7.031 62.5686 6.41908 61.816 6.03558C60.9603 5.59961 59.8402 5.59961 57.6 5.59961H38.4C36.1598 5.59961 35.0397 5.59961 34.184 6.03558C33.4314 6.41908 32.8195 7.031 32.436 7.78365C32 8.63929 32 9.7595 32 11.9997M50 69.9996H30M66 49.9996H30M66 37.9995H30" stroke="#BEA2FF" stroke-width="4" stroke-linecap="round" stroke-linejoin="round"/>
</svg>
