<svg width="24" height="24" viewBox="0 0 24 24" fill="none" xmlns="http://www.w3.org/2000/svg">
<path d="M16.5 5.5V5.2C16.5 4.0799 16.5 4.01984 16.282 3.59202C16.0902 3.21569 15.7843 2.90973 15.408 2.71799C14.9801 2.5 14.4201 2.5 13.3 2.5H10.7C9.57986 2.5 9.01981 2.5 8.59199 2.71799C8.21566 2.90973 7.9097 3.21569 7.71796 3.59202C7.49997 4.01984 7.5 4.0799 7.5 5.2V5.5M9.5 10.5V15.5M14.5 10.5V15.5M3.5 5.5H20.5M18.5 5.5L18.5 16.7C18.5 18.3802 18.5 19.2202 18.173 19.862C17.8854 20.4265 17.4264 20.8854 16.8619 21.173C16.2202 21.5 15.3801 21.5 13.7 21.5H10.3C8.61981 21.5 7.77973 21.5 7.138 21.173C6.57351 20.8854 6.11457 20.4265 5.82695 19.862C5.49997 19.2202 5.49997 18.3802 5.49997 16.7L5.5 5.5" stroke="#FF515F" stroke-linecap="round" stroke-linejoin="round"/>
</svg>
