<svg width="40" height="40" viewBox="0 0 40 40" fill="none" xmlns="http://www.w3.org/2000/svg">
<path d="M36.6666 14.8858C36.6666 13.8761 36.6666 13.3712 36.4669 13.1375C36.2937 12.9346 36.0338 12.827 35.7679 12.8479C35.4614 12.872 35.1044 13.229 34.3904 13.943L28.3333 20.0002L34.3904 26.0574C35.1044 26.7713 35.4614 27.1283 35.7679 27.1524C36.0338 27.1733 36.2937 27.0657 36.4669 26.8629C36.6666 26.6291 36.6666 26.1242 36.6666 25.1145V14.8858Z" stroke="#6938DA" stroke-width="2" stroke-linecap="round" stroke-linejoin="round"/>
<path d="M3.33325 16.3335C3.33325 13.5332 3.33325 12.1331 3.87822 11.0635C4.35759 10.1227 5.12249 9.35783 6.0633 8.87846C7.13286 8.3335 8.53299 8.3335 11.3333 8.3335H20.3333C23.1335 8.3335 24.5336 8.3335 25.6032 8.87846C26.544 9.35783 27.3089 10.1227 27.7883 11.0635C28.3333 12.1331 28.3333 13.5332 28.3333 16.3335V23.6668C28.3333 26.4671 28.3333 27.8672 27.7883 28.9368C27.3089 29.8776 26.544 30.6425 25.6032 31.1219C24.5336 31.6668 23.1335 31.6668 20.3333 31.6668H11.3333C8.53299 31.6668 7.13286 31.6668 6.0633 31.1219C5.12249 30.6425 4.35759 29.8776 3.87822 28.9368C3.33325 27.8672 3.33325 26.4671 3.33325 23.6668V16.3335Z" stroke="#6938DA" stroke-width="2" stroke-linecap="round" stroke-linejoin="round"/>
</svg>
