<svg width="24" height="24" viewBox="0 0 24 24" fill="none" xmlns="http://www.w3.org/2000/svg">
<path d="M6.5 11V15M17.5 9V13M16.4678 3.76771C18.9165 3.76771 20.2731 4.37476 20.9321 4.66545C21.0199 4.70416 21.0638 4.72351 21.1904 4.84437C21.2663 4.91682 21.4049 5.1294 21.4405 5.22809C21.5 5.39274 21.5 5.48274 21.5 5.66274V16.4111C21.5 17.3199 21.5 17.7743 21.3637 18.0079C21.2251 18.2454 21.0914 18.3559 20.8319 18.4472C20.5769 18.5369 20.0298 18.2057 19 18.0079C18.2792 17.8694 17.4243 17.7677 16.4678 17.7677C13.4678 17.7677 11.5 20.5 7.5 20.5C5.05129 20.5 3.72687 19.6252 3.06788 19.3346C2.98012 19.2958 2.93624 19.2765 2.8096 19.1556C2.73369 19.0832 2.59512 18.8706 2.55947 18.7719C2.5 18.6073 2.5 18.5173 2.5 18.3373L2.5 7.58886C2.5 6.68009 2.5 6.2257 2.63628 5.99215C2.7749 5.75457 2.90859 5.64412 3.16806 5.55281C4.20319 5.18856 6.32888 6.5 7.5 6.5C10.5 6.5 12.4678 3.76771 16.4678 3.76771ZM14.5 12C14.5 13.3807 13.3807 14.5 12 14.5C10.6193 14.5 9.5 13.3807 9.5 12C9.5 10.6193 10.6193 9.5 12 9.5C13.3807 9.5 14.5 10.6193 14.5 12Z" stroke="#8956FF" stroke-linecap="round" stroke-linejoin="round"/>
</svg>
