<svg width="20" height="18" viewBox="0 0 20 18" fill="none" xmlns="http://www.w3.org/2000/svg">
<path d="M4.5 8V12M15.5 6V10M14.4678 0.767713C16.9165 0.767713 18.2731 1.37476 18.9321 1.66545C19.0199 1.70416 19.0638 1.72351 19.1904 1.84437C19.2663 1.91682 19.4049 2.1294 19.4405 2.22809C19.5 2.39274 19.5 2.48274 19.5 2.66274V13.4111C19.5 14.3199 19.5 14.7743 19.3637 15.0079C19.2251 15.2454 19.0914 15.3559 18.8319 15.4472C18.5769 15.5369 18.0298 15.2057 17 15.0079C16.2792 14.8694 15.4243 14.7677 14.4678 14.7677C11.4678 14.7677 9.5 17.5 5.5 17.5C3.05129 17.5 1.72687 16.6252 1.06788 16.3346C0.980123 16.2958 0.936243 16.2765 0.8096 16.1556C0.733686 16.0832 0.595118 15.8706 0.55947 15.7719C0.5 15.6073 0.5 15.5173 0.5 15.3373L0.5 4.58886C0.5 3.68009 0.5 3.2257 0.636278 2.99215C0.774902 2.75457 0.908591 2.64412 1.16806 2.55281C2.20319 2.18856 4.32888 3.5 5.5 3.5C8.5 3.5 10.4678 0.767713 14.4678 0.767713ZM12.5 9C12.5 10.3807 11.3807 11.5 10 11.5C8.61929 11.5 7.5 10.3807 7.5 9C7.5 7.61929 8.61929 6.5 10 6.5C11.3807 6.5 12.5 7.61929 12.5 9Z" stroke="#8956FF" stroke-linecap="round" stroke-linejoin="round"/>
</svg>
