<svg width="24" height="24" viewBox="0 0 24 24" fill="none" xmlns="http://www.w3.org/2000/svg">
<path d="M5.5 21.2818C5.50033 20.4724 5.50518 20.0796 5.57684 19.7194C5.89246 18.1326 6.91324 16.8922 8.5 16.5766C8.8864 16.4998 9.07067 16.4998 9.99998 16.4998H14C14.9293 16.4998 15.1136 16.4998 15.5 16.5766C17.0868 16.8922 18.1075 18.1326 18.4232 19.7194C18.4948 20.0796 18.4997 20.4724 18.5 21.2818M20.5 10.4998V18.2998C20.5 19.4199 20.5 19.9799 20.282 20.4077C20.0903 20.7841 19.7843 21.09 19.408 21.2818C18.9802 21.4998 18.4201 21.4998 17.3 21.4998C11.9819 21.4998 12.0181 21.4998 6.7 21.4998C5.57989 21.4998 5.01984 21.4998 4.59202 21.2818C4.21569 21.09 3.90973 20.7841 3.71799 20.4077C3.5 19.9799 3.5 19.4199 3.5 18.2998V10.4998H2L10.9885 2.78876C10.9989 2.77984 11.0041 2.77538 11.0108 2.76987C11.0157 2.76579 11.0236 2.75936 11.0287 2.75539C11.0354 2.75004 11.0396 2.74688 11.0479 2.74057C11.1625 2.65318 11.5726 2.34632 11.7386 2.30136C11.9098 2.25502 12.0902 2.25502 12.2613 2.30136C12.4274 2.34632 12.8375 2.65318 12.9521 2.74057C12.9604 2.74689 12.9645 2.75004 12.9713 2.75539C12.9763 2.75936 12.9843 2.76579 12.9892 2.76987C12.9958 2.77538 13.001 2.77984 13.0114 2.78876L22 10.4998H20.5ZM15 11.4998C15 12.9998 13.5 14.4998 12 14.4998C10.5 14.4998 8.99998 12.9998 8.99998 11.4998C8.99998 9.99976 10.5 8.49976 12 8.49976C13.5 8.49976 15 9.99976 15 11.4998Z" stroke="#6938DA" stroke-linecap="round" stroke-linejoin="round"/>
</svg>
