<svg width="24" height="24" viewBox="0 0 24 24" fill="none" xmlns="http://www.w3.org/2000/svg">
<path d="M12.5 9.00023V13.5002M12.5 17.5002V16.5002M11 3.89195L2.39019 18.0985C1.93398 18.8865 1.70588 19.2805 1.73959 19.6038C1.769 19.8859 1.91677 20.1422 2.14613 20.309C2.40908 20.5002 2.86435 20.5002 3.77487 20.5002L20.6096 20.5002C21.5201 20.5002 21.9754 20.5002 22.2383 20.309C22.4677 20.1423 22.6154 19.886 22.6448 19.6039C22.6786 19.2806 22.4505 18.8866 21.9942 18.0986L13.7694 3.89195C13.3148 3.10679 13.0875 2.71421 12.791 2.58235C12.5323 2.46734 12.237 2.46734 11.9784 2.58235C11.6819 2.71421 11.4546 3.10679 11 3.89195Z" stroke="#6938DA" stroke-linecap="round" stroke-linejoin="round"/>
</svg>
