<svg width="24" height="24" viewBox="0 0 24 24" fill="none" xmlns="http://www.w3.org/2000/svg">
<path d="M12 10.5V6.5M12 13.5V14.5M9.9 18.7L11.36 20.6467C11.5771 20.9362 11.6857 21.0809 11.8188 21.1327C11.9353 21.178 12.0647 21.178 12.1812 21.1327C12.3143 21.0809 12.4229 20.9362 12.64 20.6467L14.1 18.7C14.3931 18.3091 14.5397 18.1137 14.7185 17.9645C14.9569 17.7656 15.2383 17.6248 15.5405 17.5535C15.7671 17.5 16.5114 17.5 17 17.5C18.3978 17.5 19.0967 17.5 19.6481 17.2716C20.3831 16.9672 20.9672 16.3831 21.2716 15.6481C21.5 15.0967 21.5 14.3978 21.5 13V7.3C21.5 5.61984 21.5 4.77976 21.173 4.13803C20.8854 3.57354 20.4265 3.1146 19.862 2.82698C19.2202 2.5 18.3802 2.5 16.7 2.5H7.3C5.61984 2.5 4.77976 2.5 4.13803 2.82698C3.57354 3.1146 3.1146 3.57354 2.82698 4.13803C2.5 4.77976 2.5 5.61984 2.5 7.3V13C2.5 14.3978 2.5 15.0967 2.72836 15.6481C3.03284 16.3831 3.61687 16.9672 4.35195 17.2716C4.90326 17.5 5.60218 17.5 7 17.5C7.48858 17.5 8.23287 17.5 8.45951 17.5535C8.76169 17.6248 9.04312 17.7656 9.2815 17.9645C9.46028 18.1137 9.60685 18.3091 9.9 18.7Z" stroke="#8956FF" stroke-linecap="round" stroke-linejoin="round"/>
</svg>
