<svg width="20" height="20" viewBox="0 0 20 20" fill="none" xmlns="http://www.w3.org/2000/svg">
<path d="M10 8.49999V4.5M10 11.5V12.5M7.9 16.7L9.36 18.6467C9.57712 18.9362 9.68568 19.0809 9.81876 19.1327C9.93534 19.178 10.0647 19.178 10.1812 19.1327C10.3143 19.0809 10.4229 18.9362 10.64 18.6467L12.1 16.7C12.3931 16.3091 12.5397 16.1137 12.7185 15.9645C12.9569 15.7656 13.2383 15.6248 13.5405 15.5535C13.7671 15.5 14.5114 15.5 15 15.5C16.3978 15.5 17.0967 15.5 17.6481 15.2716C18.3831 14.9672 18.9672 14.3831 19.2716 13.6481C19.5 13.0967 19.5 12.3978 19.5 11V5.3C19.5 3.61984 19.5 2.77976 19.173 2.13803C18.8854 1.57354 18.4265 1.1146 17.862 0.82698C17.2202 0.5 16.3802 0.5 14.7 0.5H5.3C3.61984 0.5 2.77976 0.5 2.13803 0.82698C1.57354 1.1146 1.1146 1.57354 0.82698 2.13803C0.5 2.77976 0.5 3.61984 0.5 5.3V11C0.5 12.3978 0.5 13.0967 0.728361 13.6481C1.03284 14.3831 1.61687 14.9672 2.35195 15.2716C2.90326 15.5 3.60218 15.5 5 15.5C5.48858 15.5 6.23287 15.5 6.45951 15.5535C6.76169 15.6248 7.04312 15.7656 7.2815 15.9645C7.46028 16.1137 7.60685 16.3091 7.9 16.7Z" stroke="#8956FF" stroke-linecap="round" stroke-linejoin="round"/>
</svg>
