<svg width="96" height="96" viewBox="0 0 96 96" fill="none" xmlns="http://www.w3.org/2000/svg">
<path d="M66 19.9998L66 75.9998M38 15.9998L38 79.9998M10 49.9998L86 49.9998M10 23.9565L10 72.0431C10 77.4992 10 80.2273 11.1254 82.1182C12.1121 83.7762 13.6648 85.0217 15.4974 85.6253C17.5874 86.3137 20.2505 85.7219 25.5767 84.5383L75.9767 74.2272C79.5532 73.4324 81.3414 73.035 82.6763 72.0734C83.8537 71.2251 84.7782 70.0726 85.3508 68.7393C86 67.2276 86 65.3957 86 61.732V34.2676C86 30.6039 86 28.772 85.3508 27.2603C84.7782 25.927 83.8537 24.7745 82.6763 23.9262C81.3414 22.9646 79.5532 22.5672 75.9767 21.7724L25.5767 11.4613C20.2505 10.2777 17.5874 9.68587 15.4974 10.3742C13.6648 10.9778 12.1121 12.2233 11.1254 13.8813C10 15.7722 10 18.5003 10 23.9565Z" stroke="#BEA2FF" stroke-width="4" stroke-linecap="round" stroke-linejoin="round"/>
</svg>
