<svg width="24" height="24" viewBox="0 0 24 24" fill="none" xmlns="http://www.w3.org/2000/svg">
<path d="M10 13.0002C10.4295 13.5743 10.9774 14.0494 11.6066 14.3931C12.2358 14.7369 12.9315 14.9413 13.6467 14.9925C14.3618 15.0438 15.0796 14.9406 15.7514 14.69C16.4231 14.4394 17.0331 14.0473 17.54 13.5402L20.54 10.5402C21.4508 9.5972 21.9548 8.33419 21.9434 7.0232C21.932 5.71222 21.4062 4.45816 20.4791 3.53112C19.5521 2.60408 18.298 2.07823 16.987 2.06684C15.676 2.05545 14.413 2.55942 13.47 3.47021L11.75 5.18021M14 11.0002C13.5706 10.4261 13.0227 9.95103 12.3935 9.60727C11.7643 9.26351 11.0685 9.05909 10.3534 9.00788C9.63822 8.95666 8.92043 9.05984 8.24867 9.31043C7.57691 9.56101 6.9669 9.95314 6.46002 10.4602L3.46002 13.4602C2.54923 14.4032 2.04525 15.6662 2.05665 16.9772C2.06804 18.2882 2.59388 19.5423 3.52092 20.4693C4.44796 21.3963 5.70203 21.9222 7.01301 21.9336C8.32399 21.945 9.58701 21.441 10.53 20.5302L12.24 18.8202" stroke="#8956FF" stroke-linecap="round" stroke-linejoin="round"/>
</svg>
