<svg width="72" height="72" viewBox="0 0 72 72" fill="none" xmlns="http://www.w3.org/2000/svg">
<path d="M30 53.1L37.5 45.6M45 38.1L37.5 45.6M30 38.1L37.5 45.6M45 53.1L37.5 45.6M64.5 28.5H7.5M49.5 4.5V16.5M22.5 4.5V16.5M21.9 67.5H50.1C55.1405 67.5 57.6607 67.5 59.5859 66.5191C61.2794 65.6562 62.6562 64.2794 63.5191 62.5859C64.5 60.6607 64.5 58.1405 64.5 53.1V24.9C64.5 19.8595 64.5 17.3393 63.5191 15.4141C62.6562 13.7206 61.2794 12.3438 59.5859 11.4809C57.6607 10.5 55.1405 10.5 50.1 10.5H21.9C16.8595 10.5 14.3393 10.5 12.4141 11.4809C10.7206 12.3438 9.3438 13.7206 8.48094 15.4141C7.5 17.3393 7.5 19.8595 7.5 24.9V53.1C7.5 58.1405 7.5 60.6607 8.48094 62.5859C9.3438 64.2794 10.7206 65.6562 12.4141 66.5191C14.3393 67.5 16.8595 67.5 21.9 67.5Z" stroke="#FF515F" stroke-width="3" stroke-linecap="round" stroke-linejoin="round"/>
</svg>
