<svg width="18" height="18" viewBox="0 0 18 18" fill="none" xmlns="http://www.w3.org/2000/svg">
<g clip-path="url(#clip0_2195_18424)">
<path d="M13.875 16.1252V11.6252M11.625 13.8752H16.125M16.125 7.12524H1.875M16.125 9.52524V6.22524C16.125 4.96513 16.125 4.33507 15.8798 3.85377C15.664 3.4304 15.3198 3.08619 14.8965 2.87048C14.4152 2.62524 13.7851 2.62524 12.525 2.62524H5.475C4.21488 2.62524 3.58482 2.62524 3.10352 2.87048C2.68016 3.08619 2.33595 3.4304 2.12024 3.85377C1.875 4.33507 1.875 4.96513 1.875 6.22524V13.2752C1.875 14.5354 1.875 15.1654 2.12024 15.6467C2.33595 16.0701 2.68016 16.4143 3.10352 16.63C3.58482 16.8752 4.21488 16.8752 5.475 16.8752H9.525M12.375 1.12524V4.12524M5.625 1.12524V4.12524" stroke="white" stroke-width="1.5" stroke-linecap="round" stroke-linejoin="round"/>
</g>
<defs>
<clipPath id="clip0_2195_18424">
<rect width="18" height="18" fill="white" transform="translate(0 0.000244141)"/>
</clipPath>
</defs>
</svg>
