<svg width="20" height="20" viewBox="0 0 20 20" fill="none" xmlns="http://www.w3.org/2000/svg">
<g clip-path="url(#clip0_258_5630)">
<path d="M9.16675 3.33369H5.66675C4.26662 3.33369 3.56655 3.33369 3.03177 3.60617C2.56137 3.84585 2.17892 4.2283 1.93923 4.69871C1.66675 5.23349 1.66675 5.93355 1.66675 7.33369V14.3337C1.66675 15.7338 1.66675 16.4339 1.93923 16.9687C2.17892 17.4391 2.56137 17.8215 3.03177 18.0612C3.56655 18.3337 4.26662 18.3337 5.66675 18.3337H12.6667C14.0669 18.3337 14.7669 18.3337 15.3017 18.0612C15.7721 17.8215 16.1546 17.4391 16.3943 16.9687C16.6667 16.4339 16.6667 15.7338 16.6667 14.3337V10.8337M6.66673 13.3337H8.06218C8.46983 13.3337 8.67366 13.3337 8.86547 13.2876C9.03553 13.2468 9.1981 13.1795 9.34722 13.0881C9.51542 12.985 9.65954 12.8409 9.9478 12.5526L17.9167 4.58369C18.6071 3.89333 18.6071 2.77404 17.9167 2.08369C17.2264 1.39333 16.1071 1.39333 15.4167 2.08368L7.44778 10.0526C7.15952 10.3409 7.0154 10.485 6.91233 10.6532C6.82094 10.8023 6.7536 10.9649 6.71278 11.135C6.66673 11.3268 6.66673 11.5306 6.66673 11.9383V13.3337Z" stroke="#6F6F6F" stroke-width="1.66667" stroke-linecap="round" stroke-linejoin="round"/>
</g>
<defs>
<clipPath id="clip0_258_5630">
<rect width="20" height="20" fill="white"/>
</clipPath>
</defs>
</svg>
