<svg width="22" height="21" viewBox="0 0 22 21" fill="none" xmlns="http://www.w3.org/2000/svg">
<path d="M10.5 2.50015H5.3C3.61984 2.50015 2.77976 2.50015 2.13803 2.82713C1.57354 3.11475 1.1146 3.57369 0.82698 4.13818C0.5 4.77992 0.5 5.61999 0.5 7.30015V15.7002C0.5 17.3803 0.5 18.2204 0.82698 18.8621C1.1146 19.4266 1.57354 19.8856 2.13803 20.1732C2.77976 20.5002 3.61984 20.5002 5.3 20.5002H13.7C15.3802 20.5002 16.2202 20.5002 16.862 20.1732C17.4265 19.8856 17.8854 19.4266 18.173 18.8621C18.5 18.2204 18.5 17.3803 18.5 15.7002V11.5002M6.49997 15.5001H8.17452C8.6637 15.5001 8.90829 15.5001 9.13846 15.4448C9.34254 15.3958 9.53763 15.315 9.71657 15.2053C9.9184 15.0817 10.0914 14.9087 10.4373 14.5628L20 5.00006C20.8284 4.17163 20.8284 2.82849 20 2.00006C19.1716 1.17163 17.8284 1.17163 17 2.00006L7.43723 11.5628C7.09133 11.9087 6.91838 12.0817 6.79469 12.2835C6.68504 12.4624 6.60423 12.6575 6.55523 12.8616C6.49997 13.0918 6.49997 13.3364 6.49997 13.8255V15.5001Z" stroke="black" stroke-width="0.833333" stroke-linecap="round" stroke-linejoin="round"/>
</svg>
