<svg width="20" height="20" viewBox="0 0 20 20" fill="none" xmlns="http://www.w3.org/2000/svg">
<path d="M1.25 4.25002C1.25 3.78331 1.25 3.54995 1.34083 3.37169C1.42072 3.21489 1.54821 3.08741 1.70501 3.00751C1.88327 2.91669 2.11662 2.91669 2.58333 2.91669H17.4167C17.8834 2.91669 18.1167 2.91669 18.295 3.00751C18.4518 3.08741 18.5793 3.21489 18.6592 3.37169C18.75 3.54995 18.75 3.78331 18.75 4.25002V5.22452C18.75 5.44852 18.75 5.56052 18.7226 5.66466C18.6984 5.75695 18.6584 5.84439 18.6046 5.92316C18.5438 6.01205 18.4592 6.0854 18.2899 6.23211L12.5434 10.8513C12.3742 10.998 12.2895 11.0713 12.2287 11.1602C12.1749 11.239 12.135 11.3264 12.1107 11.4187C12.0833 11.5229 12.0833 11.6349 12.0833 11.8589V16.2153C12.0833 16.3783 12.0833 16.4598 12.057 16.5302C12.0338 16.5925 11.9961 16.6483 11.9469 16.693C11.8912 16.7435 11.8156 16.7738 11.6643 16.8343L8.83093 17.9677C8.52464 18.0902 8.3715 18.1514 8.24856 18.1259C8.14105 18.1035 8.04671 18.0397 7.98604 17.9481C7.91667 17.8435 7.91667 17.6786 7.91667 17.3487V11.8589C7.91667 11.6349 7.91667 11.5229 7.88929 11.4187C7.86504 11.3264 7.82511 11.239 7.77126 11.1602C7.71048 11.0713 7.62585 10.998 7.45657 10.8513L1.71009 6.23211C1.54082 6.0854 1.45618 6.01205 1.39541 5.92316C1.34155 5.84439 1.30163 5.75695 1.27737 5.66466C1.25 5.56052 1.25 5.44852 1.25 5.22452L1.25 4.25002Z" stroke="#8956FF" stroke-linecap="round" stroke-linejoin="round"/>
</svg>
