<svg width="24" height="24" viewBox="0 0 24 24" fill="none" xmlns="http://www.w3.org/2000/svg">
<path d="M4.5 12.5H19.5871C20.0495 12.5 20.2808 12.5 20.4128 12.403C20.528 12.3185 20.6015 12.1887 20.6148 12.0464C20.63 11.8833 20.511 11.685 20.273 11.2884L18.247 7.9116C18.1572 7.76195 18.1123 7.68712 18.0947 7.60724C18.0792 7.53659 18.0792 7.46341 18.0947 7.39276C18.1123 7.31288 18.1572 7.23805 18.247 7.0884L20.273 3.7116C20.511 3.31503 20.63 3.11674 20.6148 2.95359C20.6015 2.81133 20.528 2.68154 20.4128 2.59698C20.2808 2.5 20.0495 2.5 19.5871 2.5L4.5 2.5V20.5" stroke="#8956FF" stroke-linecap="round" stroke-linejoin="round"/>
</svg>
