<svg width="24" height="24" viewBox="0 0 24 24" fill="none" xmlns="http://www.w3.org/2000/svg">
<path d="M14.5 1.76953V5.90007C14.5 6.46012 14.5 6.74015 14.609 6.95406C14.7049 7.14222 14.8578 7.2952 15.046 7.39108C15.2599 7.50007 15.5399 7.50007 16.1 7.50007H20.2305M14.5 17.5H7.5M16.5 12.5H7.5M20.5 9.48822V17.7C20.5 19.3802 20.5 20.2202 20.173 20.862C19.8854 21.4265 19.4265 21.8854 18.862 22.173C18.2202 22.5 17.3802 22.5 15.7 22.5H8.3C6.61984 22.5 5.77976 22.5 5.13803 22.173C4.57354 21.8854 4.1146 21.4265 3.82698 20.862C3.5 20.2202 3.5 19.3802 3.5 17.7L3.5 6.3C3.5 4.61984 3.5 3.77976 3.82698 3.13803C4.1146 2.57354 4.57354 2.1146 5.13803 1.82698C5.77976 1.5 6.61984 1.5 8.3 1.5H12.5118C13.2455 1.5 13.6124 1.5 13.9577 1.58289C14.2638 1.65638 14.5564 1.77759 14.8249 1.94208C15.1276 2.1276 15.387 2.38703 15.9059 2.90589L19.0941 6.09411C19.613 6.61297 19.8724 6.8724 20.0579 7.17515C20.2224 7.44356 20.3436 7.7362 20.4171 8.0423C20.5 8.38757 20.5 8.75445 20.5 9.48822Z" stroke="#6F6F6F" stroke-linecap="round" stroke-linejoin="round"/>
</svg>
