<svg width="45" height="55" viewBox="0 0 45 55" fill="none" xmlns="http://www.w3.org/2000/svg">
<g clip-path="url(#clip0_409_18136)">
<path d="M32.418 12.4553L17.1872 0.229714C16.8033 -0.0770769 16.2588 -0.0789943 15.8749 0.229714L0.644128 12.4553C0.0710414 12.9155 -0.142911 13.6633 0.0996957 14.3594C0.342302 15.0554 0.974608 15.506 1.71007 15.506H1.9565V30.487C1.9565 32.2664 3.39877 33.7141 5.17151 33.7141H27.8925C29.6652 33.7141 31.1075 32.2664 31.1075 30.487V26.9819C31.1075 26.399 30.6376 25.9273 30.0569 25.9273H29.0845C28.5038 25.9273 28.0339 26.399 28.0339 26.9819V30.5484C28.0339 30.5925 27.9976 30.6289 27.9536 30.6289H5.10847C5.06454 30.6289 5.02824 30.5925 5.02824 30.5484V13.4735C5.02824 13.2952 4.98431 13.1284 4.90598 12.9807L16.5301 3.65044L28.1542 12.9807C28.0759 13.1284 28.0319 13.2952 28.0319 13.4735V18.6679C28.0319 19.2508 28.5019 19.7225 29.0826 19.7225H30.0549C30.6357 19.7225 31.1056 19.2508 31.1056 18.6679V15.5041H31.352C32.0875 15.5041 32.7198 15.0535 32.9624 14.3575C33.205 13.6614 32.9911 12.9136 32.418 12.4515V12.4553Z" fill="#74DB07"/>
<path d="M39.9308 40.6403C39.6882 39.9442 39.0559 39.4936 38.3204 39.4936H38.074V24.5126C38.074 22.7333 36.6317 21.2856 34.859 21.2856H12.138C10.3652 21.2856 8.92297 22.7333 8.92297 24.5126V28.0177C8.92297 28.6006 9.3929 29.0723 9.97363 29.0723H10.946C11.5267 29.0723 11.9966 28.6006 11.9966 28.0177V24.4513C11.9966 24.4072 12.0329 24.3708 12.0769 24.3708H34.922C34.9659 24.3708 35.0022 24.4072 35.0022 24.4513V41.5261C35.0022 41.7045 35.0462 41.8713 35.1245 42.0189L23.5004 51.3492L11.8763 42.0189C11.9546 41.8713 11.9985 41.7045 11.9985 41.5261V36.3318C11.9985 35.7489 11.5286 35.2772 10.9479 35.2772H9.97554C9.39481 35.2772 8.92488 35.7489 8.92488 36.3318V39.4956H8.67845C7.94299 39.4956 7.31069 39.9462 7.06808 40.6422C6.82547 41.3382 7.03942 42.086 7.61251 42.5481L22.8432 54.7718C23.0343 54.9252 23.2673 55.0019 23.4985 55.0019C23.7296 55.0019 23.9627 54.9252 24.1537 54.7718L39.3844 42.5462C39.9575 42.086 40.1715 41.3382 39.9289 40.6422L39.9308 40.6403Z" fill="#6938DA"/>
</g>
<defs>
<clipPath id="clip0_409_18136">
<rect width="45" height="55" fill="white"/>
</clipPath>
</defs>
</svg>
