<svg width="24" height="24" viewBox="0 0 24 24" fill="none" xmlns="http://www.w3.org/2000/svg">
<path d="M13.0115 2.78925C13.0011 2.78033 12.9959 2.77587 12.9893 2.77036C12.9843 2.76628 12.9764 2.75985 12.9714 2.75588C12.9646 2.75053 12.9605 2.74737 12.9522 2.74106C12.8376 2.65366 12.4275 2.34681 12.2614 2.30184C12.0903 2.2555 11.9099 2.2555 11.7387 2.30184C11.5727 2.34681 11.1625 2.65367 11.0479 2.74106C11.0397 2.74737 11.0355 2.75053 11.0288 2.75588C11.0237 2.75985 11.0158 2.76628 11.0109 2.77036C11.0042 2.77587 10.999 2.78033 10.9886 2.78925L2 10.5002H3.50004V18.3002C3.50004 19.4203 3.50004 19.9804 3.71803 20.4082C3.90978 20.7845 4.21574 21.0905 4.59206 21.2823C5.01989 21.5002 5.57994 21.5002 6.70004 21.5002C12.0181 21.5002 11.982 21.5002 17.3001 21.5002C18.4202 21.5002 18.9802 21.5002 19.4081 21.2823C19.7844 21.0905 20.0904 20.7845 20.2821 20.4082C20.5001 19.9804 20.5001 19.4203 20.5001 18.3002V10.5002H22L13.0115 2.78925Z" stroke="#8956FF" stroke-linecap="round" stroke-linejoin="round"/>
</svg>
