<svg width="22" height="21" viewBox="0 0 22 21" fill="none" xmlns="http://www.w3.org/2000/svg">
<path d="M4.5 20.282C4.50033 19.4727 4.50518 19.0799 4.57684 18.7197C4.89246 17.1329 5.91324 15.8925 7.5 15.5769C7.8864 15.5 8.07067 15.5 8.99998 15.5H13C13.9293 15.5 14.1136 15.5 14.5 15.5769C16.0868 15.8925 17.1075 17.1329 17.4232 18.7197C17.4948 19.0799 17.4997 19.4727 17.5 20.282M19.5 9.50002V17.3C19.5 18.4201 19.5 18.9802 19.282 19.408C19.0903 19.7843 18.7843 20.0903 18.408 20.282C17.9802 20.5 17.4201 20.5 16.3 20.5C10.9819 20.5 11.0181 20.5 5.7 20.5C4.57989 20.5 4.01984 20.5 3.59202 20.282C3.21569 20.0903 2.90973 19.7843 2.71799 19.408C2.5 18.9802 2.5 18.4201 2.5 17.3V9.50002H1L9.98853 1.78902C9.99893 1.7801 10.0041 1.77564 10.0108 1.77013C10.0157 1.76605 10.0236 1.75962 10.0287 1.75565C10.0354 1.7503 10.0396 1.74714 10.0479 1.74083C10.1625 1.65344 10.5726 1.34658 10.7386 1.30162C10.9098 1.25528 11.0902 1.25528 11.2613 1.30162C11.4274 1.34658 11.8375 1.65344 11.9521 1.74083C11.9604 1.74715 11.9645 1.7503 11.9713 1.75565C11.9763 1.75962 11.9843 1.76605 11.9892 1.77013C11.9958 1.77564 12.001 1.7801 12.0114 1.78902L21 9.50002H19.5ZM14 10.5C14 12 12.5 13.5 11 13.5C9.49997 13.5 7.99998 12 7.99998 10.5C7.99998 9.00002 9.5 7.50002 11 7.50002C12.5 7.50002 14 9.00002 14 10.5Z" stroke="#8956FF" stroke-linecap="round" stroke-linejoin="round"/>
</svg>
