<svg width="24" height="24" viewBox="0 0 24 24" fill="none" xmlns="http://www.w3.org/2000/svg">
<path d="M5.5 21.282C5.50033 20.4727 5.50518 20.0799 5.57684 19.7197C5.89246 18.1329 6.91324 16.8925 8.5 16.5769C8.8864 16.5 9.07067 16.5 9.99998 16.5H14C14.9293 16.5 15.1136 16.5 15.5 16.5769C17.0868 16.8925 18.1075 18.1329 18.4232 19.7197C18.4948 20.0799 18.4997 20.4727 18.5 21.282M20.5 10.5V18.3C20.5 19.4201 20.5 19.9802 20.282 20.408C20.0903 20.7843 19.7843 21.0903 19.408 21.282C18.9802 21.5 18.4201 21.5 17.3 21.5C11.9819 21.5 12.0181 21.5 6.7 21.5C5.57989 21.5 5.01984 21.5 4.59202 21.282C4.21569 21.0903 3.90973 20.7843 3.71799 20.408C3.5 19.9802 3.5 19.4201 3.5 18.3V10.5H2L11.0177 2.76401C11.0177 2.76401 11.5447 2.35413 11.7386 2.30162C11.9098 2.25528 12.0902 2.25528 12.2613 2.30162C12.4553 2.35413 12.9823 2.76401 12.9823 2.76401L22 10.5H20.5ZM15 11.5C15 13 13.5 14.5 12 14.5C10.5 14.5 8.99998 13 8.99998 11.5C8.99998 10 10.5 8.50002 12 8.50002C13.5 8.50002 15 10 15 11.5Z" stroke="#8956FF" stroke-linecap="round" stroke-linejoin="round"/>
</svg>
