<svg width="24" height="24" viewBox="0 0 24 24" fill="none" xmlns="http://www.w3.org/2000/svg">
<path d="M5.5 21.282C5.50033 20.4727 5.50518 20.0799 5.57684 19.7197C5.89246 18.1329 6.91324 16.8925 8.5 16.5769C8.8864 16.5 9.07067 16.5 9.99998 16.5H14C14.9293 16.5 15.1136 16.5 15.5 16.5769C17.0868 16.8925 18.1075 18.1329 18.4232 19.7197C18.4948 20.0799 18.4997 20.4727 18.5 21.282M20.5 10.5V18.3C20.5 19.4201 20.5 19.9802 20.282 20.408C20.0903 20.7843 19.7843 21.0903 19.408 21.282C18.9802 21.5 18.4201 21.5 17.3 21.5C11.9819 21.5 12.0181 21.5 6.7 21.5C5.57989 21.5 5.01984 21.5 4.59202 21.282C4.21569 21.0903 3.90973 20.7843 3.71799 20.408C3.5 19.9802 3.5 19.4201 3.5 18.3V10.5H2L10.9885 2.78902C10.9989 2.7801 11.0041 2.77564 11.0108 2.77013C11.0157 2.76605 11.0236 2.75962 11.0287 2.75565C11.0354 2.7503 11.0396 2.74714 11.0479 2.74083C11.1625 2.65344 11.5726 2.34658 11.7386 2.30162C11.9098 2.25528 12.0902 2.25528 12.2613 2.30162C12.4274 2.34658 12.8375 2.65344 12.9521 2.74083C12.9604 2.74715 12.9645 2.7503 12.9713 2.75565C12.9763 2.75962 12.9843 2.76605 12.9892 2.77013C12.9958 2.77564 13.001 2.7801 13.0114 2.78902L22 10.5H20.5ZM15 11.5C15 13 13.5 14.5 12 14.5C10.5 14.5 8.99998 13 8.99998 11.5C8.99998 10 10.5 8.50002 12 8.50002C13.5 8.50002 15 10 15 11.5Z" stroke="#8956FF" stroke-linecap="round" stroke-linejoin="round"/>
</svg>
