<svg width="18" height="18" viewBox="0 0 18 18" fill="none" xmlns="http://www.w3.org/2000/svg">
<path d="M4.12502 15.9615C4.12527 15.3545 4.12891 15.0599 4.18265 14.7898C4.41937 13.5997 5.18495 12.6694 6.37502 12.4327C6.66482 12.375 6.80302 12.375 7.50001 12.375H10.5C11.197 12.375 11.3352 12.375 11.625 12.4327C12.8151 12.6694 13.5807 13.5997 13.8174 14.7898C13.8711 15.0599 13.8748 15.3545 13.875 15.9615M3.375 4.5V2.62501M3.375 2.62501V0.75M3.375 2.62501H5.25M3.375 2.62501H1.5M15.375 7.87502V13.725C15.375 14.5651 15.375 14.9851 15.2115 15.306C15.0677 15.5883 14.8383 15.8177 14.556 15.9615C14.2351 16.125 13.8151 16.125 12.975 16.125C8.98647 16.125 9.01357 16.125 5.02502 16.125C4.18494 16.125 3.7649 16.125 3.44404 15.9615C3.16179 15.8177 2.93232 15.5883 2.78851 15.306C2.62502 14.9851 2.62502 14.5651 2.62502 13.725V7.87502H1.50002L8.23413 2.09803C8.24441 2.08921 8.24955 2.0848 8.25641 2.07913C8.26134 2.07505 8.26987 2.06816 8.2749 2.0642C8.28189 2.05868 8.28579 2.05572 8.29358 2.04981C8.3888 1.97747 8.68292 1.75901 8.804 1.72622C8.93236 1.69147 9.06766 1.69147 9.19602 1.72622C9.3171 1.75901 9.61122 1.97747 9.70644 2.04981C9.71423 2.05573 9.71813 2.05868 9.72513 2.0642C9.73015 2.06816 9.73868 2.07505 9.74361 2.07913C9.75047 2.0848 9.75561 2.08921 9.76589 2.09803L16.5 7.87502H15.375ZM11.25 8.62502C11.25 9.75002 10.125 10.875 9.00001 10.875C7.875 10.875 6.75001 9.75002 6.75001 8.62502C6.75001 7.50002 7.87502 6.37502 9.00001 6.37502C10.125 6.37502 11.25 7.50002 11.25 8.62502Z" stroke="white" stroke-linecap="round" stroke-linejoin="round"/>
</svg>
