<svg width="24" height="24" viewBox="0 0 24 24" fill="none" xmlns="http://www.w3.org/2000/svg">
<path d="M12 12L7.22711 8.43926C6.59226 7.91022 6.27484 7.6457 6.04664 7.32144C5.84444 7.03413 5.69429 6.71354 5.60301 6.37428C5.5 5.99139 5.5 5.57819 5.5 4.7518V2M12 12L16.6699 8.43926C17.3047 7.91022 17.6221 7.6457 17.8503 7.32144C18.0525 7.03413 18.2027 6.71354 18.294 6.37428C18.397 5.99139 18.397 5.57819 18.397 4.7518V2M12 12L7.22711 15.5607C6.59226 16.0898 6.27484 16.3543 6.04664 16.6786C5.84444 16.9659 5.69429 17.2865 5.60301 17.6257C5.5 18.0086 5.5 18.4218 5.5 19.2482V22.5M12 12L16.7729 15.5607C17.4077 16.0898 17.7252 16.3543 17.9534 16.6786C18.1556 16.9659 18.3057 17.2865 18.397 17.6257C18.5 18.0086 18.5 18.4218 18.5 19.2482V22.5M4.5 2H19.5M4.5 22.5H19.5" stroke="#8956FF" stroke-linecap="round" stroke-linejoin="round"/>
</svg>
