<svg width="19" height="23" viewBox="0 0 19 23" fill="none" xmlns="http://www.w3.org/2000/svg">
<path d="M12.5 7.5L12.5 6.5H14C14 6.5 8.50001 1.7797 8.48233 1.764C8.14954 1.46845 7.95534 1.35412 7.76137 1.3016C7.59022 1.25526 7.40983 1.25526 7.23868 1.3016C7.07271 1.34654 6.66291 1.65312 6.54807 1.74069C6.53974 1.74704 6.53558 1.75022 6.52877 1.7556C6.52372 1.75959 6.51574 1.76605 6.51078 1.77015C6.5041 1.77569 6.49887 1.78018 6.48842 1.78915L1 6.5H2.5L2.50003 9.79998C2.50003 10.9201 2.50004 12 2.50004 12C2.50004 13 3.1442 13.5 4.00004 13.5H11.0177C12 13.5 12.5 13 12.5 12L12.5 11.5M6.5 15.5L6.5 16.5H4.5L10.4845 21.7071C10.4964 21.7175 10.5023 21.7226 10.5099 21.7289C10.5155 21.7336 10.5244 21.7409 10.5302 21.7455C10.5379 21.7516 10.5428 21.7553 10.5526 21.7628C10.6733 21.8547 11.0748 22.154 11.2387 22.1984C11.4098 22.2447 11.5902 22.2447 11.7613 22.1984C11.9252 22.154 12.3267 21.8547 12.4474 21.7628C12.4572 21.7553 12.4621 21.7516 12.4698 21.7455C12.4756 21.7409 12.4845 21.7336 12.4901 21.7289C12.4977 21.7226 12.5036 21.7175 12.5155 21.7071L18.5 16.5H16.5V10.9C16.5 9.88407 16 9.5 15 9.5L8 9.5C6.76133 9.5 6.5 10.108 6.5 10.5V11.5" stroke="#6938DA" stroke-linecap="round" stroke-linejoin="round"/>
</svg>
