<svg width="24" height="24" viewBox="0 0 24 24" fill="none" xmlns="http://www.w3.org/2000/svg">
<path d="M14.5 7.5L14.5 6.5H16C16 6.5 10.5 1.7797 10.4823 1.764C10.1495 1.46845 9.95534 1.35412 9.76137 1.3016C9.59022 1.25526 9.40983 1.25526 9.23868 1.3016C9.07271 1.34654 8.66291 1.65312 8.54807 1.74069C8.53974 1.74704 8.53558 1.75022 8.52877 1.7556C8.52372 1.75959 8.51574 1.76605 8.51078 1.77015C8.5041 1.77569 8.49887 1.78018 8.48842 1.78915L3 6.5H4.5L4.50003 9.79998C4.50003 10.9201 4.50004 12 4.50004 12C4.50004 13 5.1442 13.5 6.00004 13.5H13.0177C14 13.5 14.5 13 14.5 12L14.5 11.5M8.5 15.5L8.5 16.5H6.5L12.4845 21.7071C12.4964 21.7175 12.5023 21.7226 12.5099 21.7289C12.5155 21.7336 12.5244 21.7409 12.5302 21.7455C12.5379 21.7516 12.5428 21.7553 12.5526 21.7628C12.6733 21.8547 13.0748 22.154 13.2387 22.1984C13.4098 22.2447 13.5902 22.2447 13.7613 22.1984C13.9252 22.154 14.3267 21.8547 14.4474 21.7628C14.4572 21.7553 14.4621 21.7516 14.4698 21.7455C14.4756 21.7409 14.4845 21.7336 14.4901 21.7289C14.4977 21.7226 14.5036 21.7175 14.5155 21.7071L20.5 16.5H18.5V10.9C18.5 9.88407 18 9.5 17 9.5L10 9.5C8.76133 9.5 8.5 10.108 8.5 10.5V11.5" stroke="#6938DA" stroke-linecap="round" stroke-linejoin="round"/>
</svg>
