<svg width="24" height="24" viewBox="0 0 24 24" fill="none" xmlns="http://www.w3.org/2000/svg">
<path d="M14.5 7.5L14.5 6.5H16C16 6.5 10.5 1.7797 10.4823 1.764C10.1495 1.46845 9.95534 1.35412 9.76137 1.3016C9.59022 1.25526 9.40983 1.25526 9.23868 1.3016C9.04471 1.35412 8.51772 1.764 8.51772 1.764L3 6.5H4.5L4.50003 9.79998C4.50003 10.9201 4.50004 12 4.50004 12C4.50004 13 5.1442 13.5 6.00004 13.5H13.0177C14 13.5 14.5 13 14.5 12L14.5 11.5M8.5 15.5L8.5 16.5H6.5L12.5177 21.736C12.5177 21.736 13.0447 22.1459 13.2387 22.1984C13.4098 22.2447 13.5902 22.2447 13.7613 22.1984C13.9553 22.1459 14.4823 21.736 14.4823 21.736L20.5 16.5H18.5V10.9C18.5 9.88407 18 9.5 17 9.5L10 9.5C8.76133 9.5 8.5 10.108 8.5 10.5V11.5" stroke="#6938DA" stroke-linecap="round" stroke-linejoin="round"/>
</svg>
