<svg width="40" height="40" viewBox="0 0 40 40" fill="none" xmlns="http://www.w3.org/2000/svg">
<path d="M7.12007 34.5465L18.1143 23.5523C18.7743 22.8923 19.1043 22.5622 19.4849 22.4386C19.8196 22.3298 20.1802 22.3298 20.5149 22.4386C20.8955 22.5622 21.2255 22.8923 21.8855 23.5523L32.8065 34.4732M23.3333 25L28.1143 20.219C28.7743 19.5589 29.1043 19.2289 29.4849 19.1053C29.8196 18.9965 30.1802 18.9965 30.5149 19.1053C30.8955 19.2289 31.2255 19.5589 31.8855 20.219L36.6666 25M16.6666 15C16.6666 16.841 15.1742 18.3333 13.3333 18.3333C11.4923 18.3333 9.99992 16.841 9.99992 15C9.99992 13.1591 11.4923 11.6667 13.3333 11.6667C15.1742 11.6667 16.6666 13.1591 16.6666 15ZM11.3333 35H28.6666C31.4668 35 32.867 35 33.9365 34.455C34.8773 33.9757 35.6423 33.2108 36.1216 32.27C36.6666 31.2004 36.6666 29.8003 36.6666 27V13C36.6666 10.1997 36.6666 8.79961 36.1216 7.73005C35.6423 6.78924 34.8773 6.02433 33.9365 5.54497C32.867 5 31.4668 5 28.6666 5H11.3333C8.53299 5 7.13286 5 6.0633 5.54497C5.12249 6.02433 4.35759 6.78924 3.87822 7.73005C3.33325 8.79961 3.33325 10.1997 3.33325 13V27C3.33325 29.8003 3.33325 31.2004 3.87822 32.27C4.35759 33.2108 5.12249 33.9757 6.0633 34.455C7.13286 35 8.53299 35 11.3333 35Z" stroke="#8956FF" stroke-width="2" stroke-linecap="round" stroke-linejoin="round"/>
</svg>
