<svg width="24" height="24" viewBox="0 0 24 24" fill="none" xmlns="http://www.w3.org/2000/svg">
<path d="M16.5 5.00001L16.5 19M9.5 4.00001L9.5 20M2.5 12.5L21.5 12.5M2.5 5.98918L2.5 18.0108C2.5 19.3749 2.5 20.0569 2.78134 20.5296C3.02803 20.9441 3.4162 21.2555 3.87434 21.4064C4.39685 21.5785 5.06262 21.4305 6.39418 21.1346L18.9942 18.5569C19.8883 18.3582 20.3354 18.2588 20.6691 18.0184C20.9634 17.8063 21.1945 17.5182 21.3377 17.1849C21.5 16.807 21.5 16.349 21.5 15.4331V8.56696C21.5 7.65103 21.5 7.19306 21.3377 6.81514C21.1945 6.4818 20.9634 6.19367 20.6691 5.98162C20.3354 5.7412 19.8883 5.64185 18.9942 5.44316L6.39418 2.86538C5.06262 2.56948 4.39685 2.42153 3.87434 2.59362C3.4162 2.74451 3.02803 3.0559 2.78134 3.47039C2.5 3.94312 2.5 4.62514 2.5 5.98918Z" stroke="#8956FF" stroke-linecap="round" stroke-linejoin="round"/>
</svg>
