<svg width="72" height="72" viewBox="0 0 72 72" fill="none" xmlns="http://www.w3.org/2000/svg">
<path d="M49.5 16.5V15.6C49.5 12.2397 49.4999 12.0595 48.8459 10.7761C48.2707 9.64708 47.3528 8.7292 46.2239 8.15396C44.9404 7.5 43.2602 7.5 39.8999 7.5H32.0999C28.7396 7.5 27.0594 7.5 25.776 8.15396C24.647 8.7292 23.7291 9.64708 23.1539 10.7761C22.4999 12.0595 22.5 12.2397 22.5 15.6V16.5M28.5 31.5V46.5M43.5 31.5V46.5M10.5 16.5H61.5M55.5 16.5L55.4999 50.1C55.4999 55.1405 55.4999 57.6607 54.519 59.5859C53.6561 61.2794 52.2793 62.6562 50.5858 63.5191C48.6606 64.5 46.1404 64.5 41.0999 64.5H30.8999C25.8594 64.5 23.3392 64.5 21.414 63.5191C19.7205 62.6562 18.3437 61.2794 17.4808 59.5859C16.4999 57.6607 16.4999 55.1405 16.4999 50.1L16.5 16.5" stroke="#FF515F" stroke-width="4" stroke-linecap="round" stroke-linejoin="round"/>
</svg>
