<svg width="18" height="23" viewBox="0 0 18 23" fill="none" xmlns="http://www.w3.org/2000/svg">
<path d="M13 3.00003C13.93 3.00003 14.895 3.00003 15.2765 3.10225C16.3117 3.37965 17.1204 4.18829 17.3978 5.22357C17.5 5.60507 17.5 6.07005 17.5 7.00003V17.7C17.5 19.3802 17.5 20.2203 17.173 20.862C16.8854 21.4265 16.4265 21.8854 15.862 22.173C15.2202 22.5 14.8802 22.5 13.2 22.5H4.8C3.11984 22.5 2.77976 22.5 2.13803 22.173C1.57354 21.8854 1.1146 21.4265 0.82698 20.862C0.5 20.2203 0.5 19.3802 0.5 17.7V7.00003C0.5 6.07005 0.5 5.60507 0.602223 5.22357C0.879624 4.18829 1.68827 3.37965 2.72354 3.10225C3.10504 3.00003 4.07003 3.00003 5 3.00003M13 3.00003C13 3.56008 13 3.8401 12.891 4.05402C12.7951 4.24218 12.6422 4.39516 12.454 4.49103C12.2401 4.60003 11.9601 4.60003 11.4 4.60003H6.6C6.03995 4.60003 5.75992 4.60003 5.54601 4.49103C5.35785 4.39516 5.20487 4.24218 5.10899 4.05402C5 3.8401 5 3.56008 5 3.00003M13 3.00003C13 2.43997 13 2.15992 12.891 1.94601C12.7951 1.75785 12.6422 1.60487 12.454 1.50899C12.2401 1.4 11.9601 1.4 11.4 1.4H6.6C6.03995 1.4 5.75992 1.4 5.54601 1.50899C5.35785 1.60487 5.20487 1.75785 5.10899 1.94601C5 2.15992 5 2.43997 5 3.00003M9.5 17.5H4.5M13.5 12.5H4.5M13.5 9.49998H4.5" stroke="#8956FF" stroke-linecap="round" stroke-linejoin="round"/>
</svg>
