<svg width="24" height="24" viewBox="0 0 24 24" fill="none" xmlns="http://www.w3.org/2000/svg">
<path d="M16 3.00003C16.93 3.00003 17.895 3.00003 18.2765 3.10225C19.3117 3.37965 20.1204 4.18829 20.3978 5.22357C20.5 5.60507 20.5 6.07005 20.5 7.00003V17.7C20.5 19.3802 20.5 20.2203 20.173 20.862C19.8854 21.4265 19.4265 21.8854 18.862 22.173C18.2202 22.5 17.8802 22.5 16.2 22.5H7.8C6.11984 22.5 5.77976 22.5 5.13803 22.173C4.57354 21.8854 4.1146 21.4265 3.82698 20.862C3.5 20.2203 3.5 19.3802 3.5 17.7V7.00003C3.5 6.07005 3.5 5.60507 3.60222 5.22357C3.87962 4.18829 4.68827 3.37965 5.72354 3.10225C6.10504 3.00003 7.07003 3.00003 8 3.00003M16 3.00003C16 3.56008 16 3.8401 15.891 4.05402C15.7951 4.24218 15.6422 4.39516 15.454 4.49103C15.2401 4.60003 14.9601 4.60003 14.4 4.60003H9.6C9.03995 4.60003 8.75992 4.60003 8.54601 4.49103C8.35785 4.39516 8.20487 4.24218 8.10899 4.05402C8 3.8401 8 3.56008 8 3.00003M16 3.00003C16 2.43997 16 2.15992 15.891 1.94601C15.7951 1.75785 15.6422 1.60487 15.454 1.50899C15.2401 1.4 14.9601 1.4 14.4 1.4H9.6C9.03995 1.4 8.75992 1.4 8.54601 1.50899C8.35785 1.60487 8.20487 1.75785 8.10899 1.94601C8 2.15992 8 2.43997 8 3.00003M12.5 17.5H7.5M16.5 12.5H7.5M16.5 9.49998H7.5" stroke="#8956FF" stroke-linecap="round" stroke-linejoin="round"/>
</svg>
