<svg width="18" height="18" viewBox="0 0 18 18" fill="none" xmlns="http://www.w3.org/2000/svg">
<path d="M5.25 2.25024V4.80024C5.25 5.22028 5.25 5.4303 5.33175 5.59074C5.40365 5.73186 5.51839 5.84659 5.65951 5.9185C5.81994 6.00024 6.02996 6.00024 6.45 6.00024H11.55C11.97 6.00024 12.1801 6.00024 12.3405 5.9185C12.4816 5.84659 12.5964 5.73186 12.6683 5.59074C12.75 5.4303 12.75 5.22028 12.75 4.80024V3.00024M12.75 15.7502V10.9502C12.75 10.5302 12.75 10.3202 12.6683 10.1598C12.5964 10.0186 12.4816 9.90389 12.3405 9.83199C12.1801 9.75024 11.97 9.75024 11.55 9.75024H6.45C6.02996 9.75024 5.81994 9.75024 5.65951 9.83199C5.51839 9.90389 5.40365 10.0186 5.33175 10.1598C5.25 10.3202 5.25 10.5302 5.25 10.9502V15.7502M15.75 6.99436V12.1502C15.75 13.4104 15.75 14.0404 15.5048 14.5217C15.289 14.9451 14.9448 15.2893 14.5215 15.505C14.0402 15.7502 13.4101 15.7502 12.15 15.7502H5.85C4.58988 15.7502 3.95982 15.7502 3.47852 15.505C3.05516 15.2893 2.71095 14.9451 2.49524 14.5217C2.25 14.0404 2.25 13.4104 2.25 12.1502V5.85024C2.25 4.59013 2.25 3.96007 2.49524 3.47877C2.71095 3.0554 3.05516 2.71119 3.47852 2.49548C3.95982 2.25024 4.58988 2.25024 5.85 2.25024H11.0059C11.3728 2.25024 11.5562 2.25024 11.7288 2.29169C11.8819 2.32843 12.0282 2.38904 12.1624 2.47128C12.3138 2.56405 12.4435 2.69376 12.7029 2.95319L15.0471 5.2973C15.3065 5.55673 15.4362 5.68644 15.529 5.83782C15.6112 5.97203 15.6718 6.11834 15.7086 6.2714C15.75 6.44403 15.75 6.62747 15.75 6.99436Z" stroke="#6938DA" stroke-linecap="round" stroke-linejoin="round"/>
</svg>
