<svg width="131" height="55" viewBox="0 0 131 55" fill="none" xmlns="http://www.w3.org/2000/svg">
<g clip-path="url(#clip0_306_9387)">
<path d="M50.8749 51.2015H47.3179L46.5156 53.537C46.4353 53.769 46.2176 53.9262 45.9711 53.9262H45.8355C45.4382 53.9262 45.1593 53.5293 45.2949 53.1535L48.2788 44.8318C48.3609 44.6036 48.5768 44.4502 48.8194 44.4502H49.402C49.6446 44.4502 49.8605 44.6036 49.9426 44.8318L52.9265 53.1535C53.0621 53.5293 52.7832 53.9262 52.3859 53.9262H52.235C51.9905 53.9262 51.7727 53.7709 51.6925 53.5389L50.8768 51.1996L50.8749 51.2015ZM49.0964 45.7521C49.0964 45.7521 48.8824 46.6112 48.722 47.0944L47.6656 50.1009H50.5272L49.4842 47.0944C49.3237 46.6112 49.1231 45.7521 49.1231 45.7521H49.0964Z" fill="#6938DA"/>
<path d="M56.7853 44.4502H56.9591C57.2762 44.4502 57.5341 44.709 57.5341 45.0273V52.7719H61.1847C61.5018 52.7719 61.7597 53.0308 61.7597 53.3491C61.7597 53.6674 61.5018 53.9262 61.1847 53.9262H56.7853C56.4682 53.9262 56.2103 53.6674 56.2103 53.3491V45.0273C56.2103 44.709 56.4682 44.4502 56.7853 44.4502Z" fill="#6938DA"/>
<path d="M65.4771 44.4502H65.6509C65.968 44.4502 66.2259 44.709 66.2259 45.0273V52.7719H69.8765C70.1936 52.7719 70.4515 53.0308 70.4515 53.3491C70.4515 53.6674 70.1936 53.9262 69.8765 53.9262H65.4771C65.16 53.9262 64.9021 53.6674 64.9021 53.3491V45.0273C64.9021 44.709 65.16 44.4502 65.4771 44.4502Z" fill="#6938DA"/>
<path d="M79.2236 44.4502H79.3974C79.7145 44.4502 79.9724 44.709 79.9724 45.0273V53.3491C79.9724 53.6674 79.7145 53.9262 79.3974 53.9262H79.2236C78.9065 53.9262 78.6486 53.6674 78.6486 53.3491V45.0273C78.6486 44.709 78.9065 44.4502 79.2236 44.4502Z" fill="#6938DA"/>
<path d="M84.7328 44.4502H85.1645C85.3536 44.4502 85.5313 44.5441 85.6383 44.7014L89.6671 50.6109C90.0147 51.121 90.456 51.98 90.456 51.98H90.4828C90.4828 51.98 90.3892 51.1344 90.3892 50.6109V45.0273C90.3892 44.709 90.647 44.4502 90.9642 44.4502H91.138C91.4551 44.4502 91.713 44.709 91.713 45.0273V53.3491C91.713 53.6674 91.4551 53.9262 91.138 53.9262H90.7177C90.5286 53.9262 90.351 53.8323 90.244 53.6769L86.2018 47.7789C85.8541 47.2554 85.4129 46.3964 85.4129 46.3964H85.3861C85.3861 46.3964 85.4797 47.242 85.4797 47.7789V53.3491C85.4797 53.6674 85.2218 53.9262 84.9047 53.9262H84.7309C84.4138 53.9262 84.1559 53.6674 84.1559 53.3491V45.0273C84.1559 44.709 84.4138 44.4502 84.7309 44.4502H84.7328Z" fill="#6938DA"/>
<path d="M105.165 44.2891C107.893 44.2891 110.006 46.3963 110.006 49.121C110.006 51.8457 107.893 54.0872 105.165 54.0872C102.437 54.0872 100.311 51.9128 100.311 49.121C100.311 46.3292 102.437 44.2891 105.165 44.2891ZM105.165 52.8658C107.091 52.8658 108.642 51.2551 108.642 49.121C108.642 46.9869 107.091 45.4971 105.165 45.4971C103.24 45.4971 101.675 47.054 101.675 49.121C101.675 51.188 103.24 52.8658 105.165 52.8658Z" fill="#6938DA"/>
<path d="M114.125 44.4502H114.556C114.745 44.4502 114.923 44.5441 115.03 44.7014L119.059 50.6109C119.406 51.121 119.848 51.98 119.848 51.98H119.874C119.874 51.98 119.781 51.1344 119.781 50.6109V45.0273C119.781 44.709 120.039 44.4502 120.356 44.4502H120.53C120.847 44.4502 121.105 44.709 121.105 45.0273V53.3491C121.105 53.6674 120.847 53.9262 120.53 53.9262H120.109C119.92 53.9262 119.743 53.8323 119.636 53.6769L115.594 47.7789C115.246 47.2554 114.805 46.3964 114.805 46.3964H114.778C114.778 46.3964 114.871 47.242 114.871 47.7789V53.3491C114.871 53.6674 114.614 53.9262 114.296 53.9262H114.123C113.805 53.9262 113.548 53.6674 113.548 53.3491V45.0273C113.548 44.709 113.805 44.4502 114.123 44.4502H114.125Z" fill="#6938DA"/>
<path d="M125.865 44.4502H130.198C130.515 44.4502 130.773 44.709 130.773 45.0273C130.773 45.3456 130.515 45.6045 130.198 45.6045H126.614V48.5708H129.422C129.739 48.5708 129.997 48.8296 129.997 49.1479C129.997 49.4662 129.739 49.7251 129.422 49.7251H126.614V52.7719H130.425C130.742 52.7719 131 53.0308 131 53.3491C131 53.6674 130.742 53.9262 130.425 53.9262H125.865C125.548 53.9262 125.29 53.6674 125.29 53.3491V45.0273C125.29 44.709 125.548 44.4502 125.865 44.4502Z" fill="#6938DA"/>
<path d="M32.418 12.4552L17.1873 0.229592C16.8033 -0.0771989 16.2589 -0.0791164 15.8749 0.229592L0.644189 12.4552C0.0711024 12.9154 -0.14285 13.6632 0.0997567 14.3592C0.342364 15.0553 0.974669 15.5059 1.71013 15.5059H1.95656V30.4869C1.95656 32.2663 3.39883 33.7139 5.17158 33.7139H27.8926C29.6653 33.7139 31.1076 32.2663 31.1076 30.4869V26.9818C31.1076 26.3989 30.6376 25.9272 30.0569 25.9272H29.0846C28.5039 25.9272 28.0339 26.3989 28.0339 26.9818V30.5482C28.0339 30.5923 27.9976 30.6288 27.9537 30.6288H5.10854C5.0646 30.6288 5.0283 30.5923 5.0283 30.5482V13.4734C5.0283 13.2951 4.98437 13.1282 4.90604 12.9806L16.5302 3.65032L28.1543 12.9806C28.0759 13.1282 28.032 13.2951 28.032 13.4734V18.6677C28.032 19.2507 28.5019 19.7223 29.0827 19.7223H30.055C30.6357 19.7223 31.1057 19.2507 31.1057 18.6677V15.504H31.3521C32.0876 15.504 32.7199 15.0534 32.9625 14.3573C33.2051 13.6613 32.9911 12.9135 32.418 12.4514V12.4552Z" fill="#74DB07"/>
<path d="M39.9308 40.6401C39.6882 39.9441 39.0559 39.4935 38.3204 39.4935H38.074V24.5125C38.074 22.7331 36.6317 21.2854 34.859 21.2854H12.138C10.3652 21.2854 8.92297 22.7331 8.92297 24.5125V28.0175C8.92297 28.6005 9.3929 29.0721 9.97363 29.0721H10.946C11.5267 29.0721 11.9966 28.6005 11.9966 28.0175V24.4511C11.9966 24.407 12.0329 24.3706 12.0769 24.3706H34.922C34.9659 24.3706 35.0022 24.407 35.0022 24.4511V41.526C35.0022 41.7043 35.0462 41.8711 35.1245 42.0187L23.5004 51.349L11.8763 42.0187C11.9546 41.8711 11.9985 41.7043 11.9985 41.526V36.3316C11.9985 35.7487 11.5286 35.277 10.9479 35.277H9.97554C9.39481 35.277 8.92488 35.7487 8.92488 36.3316V39.4954H8.67845C7.94299 39.4954 7.31069 39.946 7.06808 40.642C6.82547 41.338 7.03942 42.0858 7.61251 42.548L22.8432 54.7717C23.0343 54.9251 23.2673 55.0018 23.4985 55.0018C23.7296 55.0018 23.9627 54.9251 24.1537 54.7717L39.3844 42.546C39.9575 42.0858 40.1715 41.338 39.9289 40.642L39.9308 40.6401Z" fill="#6938DA"/>
<path d="M101.087 16.7334C98.3302 13.9665 94.6472 12.4421 90.7158 12.4421C86.7844 12.4421 83.1033 13.9665 80.3449 16.7334C77.5864 19.5003 76.0391 23.2719 76.0391 27.2947C76.0391 31.3175 77.5673 35.2674 80.3429 38.134C83.1033 40.9852 86.7883 42.5556 90.7158 42.5556C94.6434 42.5556 98.3283 40.9852 101.089 38.134C103.864 35.2674 105.393 31.4172 105.393 27.2947C105.393 23.1722 103.862 19.5194 101.087 16.7334ZM102.991 27.2966C102.991 34.5714 97.6005 40.27 90.7177 40.27C83.835 40.27 78.4441 34.5714 78.4441 27.2966C78.4441 20.0218 83.835 14.7316 90.7177 14.7316C97.6005 14.7316 102.991 20.2519 102.991 27.2966Z" fill="white"/>
<path d="M129.571 39.8617C128.855 39.8617 128.52 39.7639 128.295 39.1503L118.915 14.0164C118.673 13.3683 118.046 12.9312 117.357 12.9312C116.667 12.9312 116.041 13.3664 115.798 14.0164L106.416 39.1522C106.193 39.7639 105.857 39.8617 105.125 39.8617C104.52 39.8617 104.025 40.3564 104.025 40.9661C104.025 41.5759 104.518 42.0706 105.125 42.0706H105.182C107.351 42.0706 108.025 41.5931 108.783 39.5165L111.519 32.1957H123.195L125.928 39.5146C126.688 41.5912 127.361 42.0706 129.531 42.0706H129.588C130.194 42.0706 130.689 41.5759 130.689 40.9661C130.689 40.3564 130.196 39.8617 129.573 39.8617H129.571ZM122.408 29.9868H112.34L116.505 18.7851C116.784 18.0201 117.122 16.8964 117.339 16.139C117.571 16.8983 117.926 18.0316 118.203 18.787L122.406 29.9868H122.408Z" fill="white"/>
<path d="M72.8508 39.8617H71.9167C71.4849 39.8617 71.3092 39.6853 71.3092 39.2519V15.7498C71.3092 15.3165 71.4849 15.14 71.9167 15.14H72.8508C73.4563 15.14 73.9511 14.6453 73.9511 14.0356C73.9511 13.4259 73.4583 12.9312 72.8508 12.9312H71.632C70.1745 12.9312 68.9882 14.1219 68.9882 15.5849V26.3552H51.5129V15.5849C51.5129 14.1219 50.3266 12.9312 48.869 12.9312H47.6503C47.0447 12.9312 46.5499 13.4259 46.5499 14.0356C46.5499 14.6453 47.0428 15.14 47.6503 15.14H48.5863C49.018 15.14 49.1938 15.3165 49.1938 15.7498V39.2519C49.1938 39.6853 49.018 39.8617 48.5863 39.8617H47.6503C47.0447 39.8617 46.5499 40.3564 46.5499 40.9661C46.5499 41.5759 47.0428 42.0706 47.6503 42.0706H48.869C50.3266 42.0706 51.5129 40.8798 51.5129 39.4168V28.566H68.9882V39.4168C68.9882 40.8798 70.1745 42.0706 71.632 42.0706H72.8508C73.4563 42.0706 73.9511 41.5759 73.9511 40.9661C73.9511 40.3564 73.4583 39.8617 72.8508 39.8617Z" fill="white"/>
</g>
<defs>
<clipPath id="clip0_306_9387">
<rect width="131" height="55" fill="white"/>
</clipPath>
</defs>
</svg>
