<svg width="24" height="24" viewBox="0 0 24 24" fill="none" xmlns="http://www.w3.org/2000/svg">
<path d="M21 11.5L9 11.5M21 5.5L9 5.5M21 17.5L9 17.5M5 11.5C5 12.0523 4.55228 12.5 4 12.5C3.44772 12.5 3 12.0523 3 11.5C3 10.9477 3.44772 10.5 4 10.5C4.55228 10.5 5 10.9477 5 11.5ZM5 5.5C5 6.05228 4.55228 6.5 4 6.5C3.44772 6.5 3 6.05228 3 5.5C3 4.94772 3.44772 4.5 4 4.5C4.55228 4.5 5 4.94772 5 5.5ZM5 17.5C5 18.0523 4.55228 18.5 4 18.5C3.44772 18.5 3 18.0523 3 17.5C3 16.9477 3.44772 16.5 4 16.5C4.55228 16.5 5 16.9477 5 17.5Z" stroke="#8956FF" stroke-linecap="round" stroke-linejoin="round"/>
</svg>
