<svg width="18" height="18" viewBox="0 0 18 18" fill="none" xmlns="http://www.w3.org/2000/svg">
<path d="M12.375 4.125V3.9C12.375 3.05992 12.375 3.01488 12.2115 2.69401C12.0677 2.41177 11.8382 2.1823 11.556 2.03849C11.2351 1.875 10.8151 1.875 9.97498 1.875H8.02498C7.1849 1.875 6.76486 1.875 6.44399 2.03849C6.16175 2.1823 5.93228 2.41177 5.78847 2.69401C5.62498 3.01488 5.625 3.05992 5.625 3.9V4.125M7.125 7.875V11.625M10.875 7.875V11.625M2.625 4.125H15.375M13.875 4.125L13.875 12.525C13.875 13.7851 13.875 14.4152 13.6297 14.8965C13.414 15.3198 13.0698 15.664 12.6465 15.8798C12.1652 16.125 11.5351 16.125 10.275 16.125H7.72498C6.46486 16.125 5.8348 16.125 5.3535 15.8798C4.93013 15.664 4.58593 15.3198 4.37021 14.8965C4.12498 14.4152 4.12498 13.7851 4.12498 12.525L4.125 4.125" stroke="#6F6F6F" stroke-linecap="round" stroke-linejoin="round"/>
</svg>
