<svg width="18" height="18" viewBox="0 0 18 18" fill="none" xmlns="http://www.w3.org/2000/svg">
<path d="M10.125 4.875H12.2529C12.4364 4.875 12.5281 4.875 12.6144 4.89572C12.691 4.91409 12.7641 4.9444 12.8312 4.98552C12.9069 5.0319 12.9718 5.09676 13.1015 5.22647L16.5235 8.64853C16.6532 8.77824 16.7181 8.8431 16.7645 8.91878C16.8056 8.98589 16.8359 9.05905 16.8543 9.13557C16.875 9.22189 16.875 9.31361 16.875 9.49705V12C16.875 12.3495 16.875 12.5242 16.8179 12.662C16.7418 12.8458 16.5958 12.9918 16.412 13.0679C16.2742 13.125 16.0995 13.125 15.375 13.125M11.625 13.125H10.125M10.125 13.125V5.025C10.125 3.80992 10.125 3.76488 9.96151 3.44401C9.8177 3.16177 9.58823 2.9323 9.30599 2.78849C8.98512 2.625 8.56508 2.625 7.725 2.625H7.125M10.125 13.125H7.5M1.125 8.25L1.125 11.625C1.125 12.4534 1.875 13.125 3 13.125M7.5 13.125C7.5 14.3676 6.49264 15.375 5.25 15.375C4.00736 15.375 3 14.3676 3 13.125M7.5 13.125C7.5 11.8824 6.49264 10.875 5.25 10.875C4.00736 10.875 3 11.8824 3 13.125M3.375 6.375V4.125M3.375 4.125V1.875M3.375 4.125H1.125M3.375 4.125H5.625M15.375 13.5C15.375 14.5355 14.5355 15.375 13.5 15.375C12.4645 15.375 11.625 14.5355 11.625 13.5C11.625 12.4645 12.4645 11.625 13.5 11.625C14.5355 11.625 15.375 12.4645 15.375 13.5Z" stroke="white" stroke-width="1.5" stroke-linecap="round" stroke-linejoin="round"/>
</svg>
