<svg width="24" height="24" viewBox="0 0 24 24" fill="none" xmlns="http://www.w3.org/2000/svg">
<path d="M12.5 8.99999V13.5M12.5 17.5V16.5M11 3.89171L2.39019 18.0983C1.93398 18.8862 1.70588 19.2802 1.73959 19.6036C1.769 19.8856 1.91677 20.1419 2.14613 20.3087C2.40908 20.4999 2.86435 20.4999 3.77487 20.4999L20.6096 20.5C21.5201 20.5 21.9754 20.5 22.2383 20.3088C22.4677 20.142 22.6154 19.8857 22.6448 19.6037C22.6786 19.2803 22.4505 18.8863 21.9942 18.0983L13.7694 3.89171C13.3148 3.10654 13.0875 2.71396 12.791 2.58211C12.5323 2.4671 12.237 2.4671 11.9784 2.58211C11.6819 2.71396 11.4546 3.10655 11 3.89171Z" stroke="#8956FF" stroke-linecap="round" stroke-linejoin="round"/>
</svg>
