<svg width="18" height="18" viewBox="0 0 18 18" fill="none" xmlns="http://www.w3.org/2000/svg">
<path d="M9 10.1252V5.62524M6.75 7.87524H11.25M7.425 14.4002L8.52 15.8602C8.68284 16.0774 8.76426 16.1859 8.86407 16.2247C8.9515 16.2587 9.0485 16.2587 9.13593 16.2247C9.23574 16.1859 9.31716 16.0774 9.48 15.8602L10.575 14.4002C10.7949 14.1071 10.9048 13.9605 11.0389 13.8486C11.2177 13.6994 11.4287 13.5939 11.6554 13.5404C11.8253 13.5002 12.0086 13.5002 12.375 13.5002C13.4234 13.5002 13.9476 13.5002 14.361 13.329C14.9124 13.1006 15.3504 12.6626 15.5787 12.1113C15.75 11.6978 15.75 11.1736 15.75 10.1252V5.85024C15.75 4.59013 15.75 3.96007 15.5048 3.47877C15.289 3.0554 14.9448 2.71119 14.5215 2.49548C14.0402 2.25024 13.4101 2.25024 12.15 2.25024H5.85C4.58988 2.25024 3.95982 2.25024 3.47852 2.49548C3.05516 2.71119 2.71095 3.0554 2.49524 3.47877C2.25 3.96007 2.25 4.59013 2.25 5.85024V10.1252C2.25 11.1736 2.25 11.6978 2.42127 12.1113C2.64963 12.6626 3.08765 13.1006 3.63896 13.329C4.05245 13.5002 4.57663 13.5002 5.625 13.5002C5.99143 13.5002 6.17465 13.5002 6.34463 13.5404C6.57127 13.5939 6.78234 13.6994 6.96112 13.8486C7.09521 13.9605 7.20514 14.1071 7.425 14.4002Z" stroke="white" stroke-linecap="round" stroke-linejoin="round"/>
</svg>
