<svg width="22" height="21" viewBox="0 0 22 21" fill="none" xmlns="http://www.w3.org/2000/svg">
<path d="M2.5 20.3174C3.10258 20.5 3.91649 20.5 5.3 20.5H16.7C18.0835 20.5 18.8974 20.5 19.5 20.3174C19.6292 20.2783 19.7487 20.2308 19.862 20.173C20.4265 19.8854 20.8854 19.4265 21.173 18.862C21.5 18.2202 21.5 17.3802 21.5 15.7V5.3C21.5 3.61984 21.5 2.77976 21.173 2.13803C20.8854 1.57354 20.4265 1.1146 19.862 0.82698C19.2202 0.5 18.3802 0.5 16.7 0.5L5.3 0.5C3.61984 0.5 2.77976 0.5 2.13803 0.82698C1.57354 1.1146 1.1146 1.57354 0.82698 2.13803C0.5 2.77976 0.5 3.61984 0.5 5.3L0.5 15.7C0.5 17.3802 0.5 18.2202 0.82698 18.862C1.1146 19.4265 1.57354 19.8854 2.13803 20.173C2.25133 20.2308 2.3708 20.2783 2.5 20.3174ZM2.5 20.3174C2.50033 19.5081 2.50518 19.0799 2.57684 18.7196C2.89246 17.1329 4.13285 15.8925 5.71961 15.5769C6.10601 15.5 6.57067 15.5 7.49998 15.5H14.5C15.4293 15.5 15.894 15.5 16.2804 15.5769C17.8671 15.8925 19.1075 17.1329 19.4231 18.7196C19.4848 19.0296 19.4976 19.3899 19.5 20M15 8.5C15 10.7091 13.2091 12.5 11 12.5C8.79086 12.5 7 10.7091 7 8.5C7 6.29086 8.79086 4.5 11 4.5C13.2091 4.5 15 6.29086 15 8.5Z" stroke="white" stroke-linecap="round" stroke-linejoin="round"/>
</svg>
