<svg width="16" height="16" viewBox="0 0 16 16" fill="none" xmlns="http://www.w3.org/2000/svg">
<path d="M7.99935 6.99983V4.33317M7.99935 8.99984V9.6665M6.59935 12.4665L7.57268 13.7643C7.71743 13.9573 7.7898 14.0538 7.87853 14.0883C7.95624 14.1185 8.04246 14.1185 8.12017 14.0883C8.2089 14.0538 8.28127 13.9573 8.42602 13.7643L9.39935 12.4665C9.59478 12.2059 9.6925 12.0756 9.81169 11.9762C9.97061 11.8435 10.1582 11.7497 10.3597 11.7022C10.5108 11.6665 11.007 11.6665 11.3327 11.6665C12.2646 11.6665 12.7305 11.6665 13.0981 11.5143C13.5881 11.3113 13.9775 10.9219 14.1804 10.4319C14.3327 10.0643 14.3327 9.59839 14.3327 8.6665V4.8665C14.3327 3.7464 14.3327 3.18635 14.1147 2.75852C13.9229 2.3822 13.617 2.07624 13.2407 1.88449C12.8128 1.6665 12.2528 1.6665 11.1327 1.6665H4.86602C3.74591 1.6665 3.18586 1.6665 2.75803 1.88449C2.38171 2.07624 2.07575 2.3822 1.884 2.75852C1.66602 3.18635 1.66602 3.7464 1.66602 4.8665V8.6665C1.66602 9.59839 1.66602 10.0643 1.81826 10.4319C2.02124 10.9219 2.41059 11.3113 2.90065 11.5143C3.26819 11.6665 3.73413 11.6665 4.66602 11.6665C4.99173 11.6665 5.48793 11.6665 5.63902 11.7022C5.84048 11.7497 6.02809 11.8435 6.18701 11.9762C6.3062 12.0756 6.40392 12.2059 6.59935 12.4665Z" stroke="#6938DA" stroke-linecap="round" stroke-linejoin="round"/>
</svg>
