<svg width="96" height="96" viewBox="0 0 96 96" fill="none" xmlns="http://www.w3.org/2000/svg">
<path d="M84 46L36 46M84 22L36 22M84 70L36 70M20 46C20 48.2091 18.2091 50 16 50C13.7909 50 12 48.2091 12 46C12 43.7909 13.7909 42 16 42C18.2091 42 20 43.7909 20 46ZM20 22C20 24.2091 18.2091 26 16 26C13.7909 26 12 24.2091 12 22C12 19.7909 13.7909 18 16 18C18.2091 18 20 19.7909 20 22ZM20 70C20 72.2091 18.2091 74 16 74C13.7909 74 12 72.2091 12 70C12 67.7909 13.7909 66 16 66C18.2091 66 20 67.7909 20 70Z" stroke="#471EA7" stroke-width="4" stroke-linecap="round" stroke-linejoin="round"/>
</svg>
