<svg width="96" height="96" viewBox="0 0 96 96" fill="none" xmlns="http://www.w3.org/2000/svg">
<path d="M27.6 47.3333V58.4445M27.6 47.3333V20.6667C27.6 16.9848 30.6445 14 34.4 14C38.1555 14 41.2 16.9848 41.2 20.6667M27.6 47.3333C27.6 43.6514 24.5555 40.6667 20.8 40.6667C17.0445 40.6667 14 43.6514 14 47.3333V56.2222C14 74.6317 29.2223 90 48 90C66.7777 90 82 74.6317 82 56.2222V40.2223C82 36.5404 78.9555 33.5557 75.2 33.5557C71.4445 33.5557 68.4 36.5404 68.4 40.2223M41.2 20.6667V38.2223C41.2 34.5404 44.2445 31.5557 48 31.5557C51.7555 31.5557 54.8 34.5404 54.8 38.2223M41.2 20.6667V38.889V45.1111M54.8 38.2223V45.1111M54.8 38.2223C54.8 34.5404 57.8445 31.5557 61.6 31.5557C65.3555 31.5557 68.4 34.5404 68.4 38.2223V40.2223M68.4 40.2223V45.1111" stroke="#471EA7" stroke-width="4" stroke-linecap="round" stroke-linejoin="round"/>
</svg>
