<svg width="96" height="96" viewBox="0 0 96 96" fill="none" xmlns="http://www.w3.org/2000/svg">
<path d="M50 35.9999V54M50 70V66M44 15.5668L9.56075 72.393C7.73593 75.545 6.82352 77.1209 6.95837 78.4144C7.07599 79.5426 7.66708 80.5678 8.58451 81.2348C9.63634 81.9996 11.4574 81.9996 15.0995 81.9996L82.4383 81.9999C86.0804 81.9999 87.9014 81.9999 88.9532 81.2352C89.8707 80.5681 90.4618 79.5429 90.5794 78.4147C90.7142 77.1213 89.8018 75.5453 87.977 72.3933L55.0774 15.5668C53.2592 12.4262 52.35 10.8559 51.1639 10.3284C50.1293 9.86839 48.9482 9.86839 47.9135 10.3284C46.7274 10.8559 45.8183 12.4262 44 15.5668Z" stroke="#471EA7" stroke-width="4" stroke-linecap="round" stroke-linejoin="round"/>
</svg>
