<svg width="16" height="16" viewBox="0 0 16 16" fill="none" xmlns="http://www.w3.org/2000/svg">
<path d="M3.28732 3.28683L12.714 12.7135M1.33398 5.68199V10.3183C1.33398 10.4814 1.33398 10.5629 1.3524 10.6397C1.36874 10.7077 1.39567 10.7727 1.43222 10.8324C1.47345 10.8996 1.5311 10.9573 1.6464 11.0726L4.92823 14.3544C5.04353 14.4697 5.10118 14.5274 5.16846 14.5686C5.22811 14.6051 5.29314 14.6321 5.36116 14.6484C5.43789 14.6668 5.51942 14.6668 5.68248 14.6668H10.3188C10.4819 14.6668 10.5634 14.6668 10.6401 14.6484C10.7082 14.6321 10.7732 14.6051 10.8328 14.5686C10.9001 14.5274 10.9578 14.4697 11.0731 14.3544L14.3549 11.0726C14.4702 10.9573 14.5279 10.8996 14.5691 10.8324C14.6056 10.7727 14.6326 10.7077 14.6489 10.6397C14.6673 10.5629 14.6673 10.4814 14.6673 10.3183V5.68199C14.6673 5.51893 14.6673 5.4374 14.6489 5.36067C14.6326 5.29265 14.6056 5.22762 14.5691 5.16797C14.5279 5.1007 14.4702 5.04304 14.3549 4.92774L11.0731 1.64592C10.9578 1.53061 10.9001 1.47296 10.8328 1.43174C10.7732 1.39518 10.7082 1.36825 10.6401 1.35192C10.5634 1.3335 10.4819 1.3335 10.3188 1.3335H5.68248C5.51942 1.3335 5.43789 1.3335 5.36116 1.35192C5.29314 1.36825 5.22811 1.39518 5.16846 1.43174C5.10118 1.47296 5.04353 1.53061 4.92823 1.64592L1.6464 4.92774C1.5311 5.04304 1.47345 5.1007 1.43222 5.16797C1.39567 5.22762 1.36874 5.29265 1.3524 5.36067C1.33398 5.4374 1.33398 5.51893 1.33398 5.68199Z" stroke="#6938DA" stroke-linecap="round" stroke-linejoin="round"/>
</svg>
