<svg width="36" height="32" viewBox="0 0 36 32" fill="none" xmlns="http://www.w3.org/2000/svg">
<path d="M5.12081 30.5465L16.115 19.5523C16.7751 18.8923 17.1051 18.5622 17.4856 18.4386C17.8204 18.3298 18.1809 18.3298 18.5157 18.4386C18.8962 18.5622 19.2263 18.8923 19.8863 19.5523L30.8072 30.4732M21.334 21L26.115 16.219C26.7751 15.5589 27.1051 15.2289 27.4856 15.1053C27.8204 14.9965 28.1809 14.9965 28.5157 15.1053C28.8962 15.2289 29.2262 15.5589 29.8863 16.219L34.6673 21M14.6673 11C14.6673 12.841 13.1749 14.3333 11.334 14.3333C9.49304 14.3333 8.00065 12.841 8.00065 11C8.00065 9.15905 9.49304 7.66667 11.334 7.66667C13.1749 7.66667 14.6673 9.15905 14.6673 11ZM9.33399 31H26.6673C29.4676 31 30.8677 31 31.9373 30.455C32.8781 29.9757 33.643 29.2108 34.1224 28.27C34.6673 27.2004 34.6673 25.8003 34.6673 23V9C34.6673 6.19974 34.6673 4.79961 34.1224 3.73005C33.643 2.78924 32.8781 2.02433 31.9373 1.54497C30.8677 1 29.4676 1 26.6673 1H9.33399C6.53372 1 5.13359 1 4.06403 1.54497C3.12322 2.02433 2.35832 2.78924 1.87895 3.73005C1.33398 4.79961 1.33398 6.19974 1.33398 9V23C1.33398 25.8003 1.33398 27.2004 1.87895 28.27C2.35832 29.2108 3.12322 29.9757 4.06403 30.455C5.13359 31 6.53372 31 9.33399 31Z" stroke="#6938DA" stroke-width="2" stroke-linecap="round" stroke-linejoin="round"/>
</svg>
