<svg width="48" height="48" viewBox="0 0 48 48" fill="none" xmlns="http://www.w3.org/2000/svg">
<rect width="48" height="48" rx="24" fill="#6938DA"/>
<path d="M0.5 24C0.5 11.0213 11.0213 0.5 24 0.5C36.9787 0.5 47.5 11.0213 47.5 24C47.5 36.9787 36.9787 47.5 24 47.5C11.0213 47.5 0.5 36.9787 0.5 24Z" stroke="#471EA7"/>
<path d="M10.6326 38.8768C11.8492 36.0104 14.6898 34 18 34H30C33.3102 34 36.1507 36.0104 37.3674 38.8768M32 19C32 23.4183 28.4183 27 24 27C19.5817 27 16 23.4183 16 19C16 14.5817 19.5817 11 24 11C28.4183 11 32 14.5817 32 19ZM44 24C44 35.0457 35.0457 44 24 44C12.9543 44 4 35.0457 4 24C4 12.9543 12.9543 4 24 4C35.0457 4 44 12.9543 44 24Z" stroke="#8956FF" stroke-linecap="round" stroke-linejoin="round"/>
</svg>
