<svg width="24" height="24" viewBox="0 0 24 24" fill="none" xmlns="http://www.w3.org/2000/svg">
<path d="M6.5 10.9999V14.9999M17.5 8.99987V12.9999M16.4678 3.76758C18.9165 3.76758 20.2731 4.37463 20.9321 4.66532C21.0199 4.70403 21.0638 4.72338 21.1904 4.84424C21.2663 4.91669 21.4049 5.12927 21.4405 5.22796C21.5 5.39261 21.5 5.48261 21.5 5.66262V16.411C21.5 17.3198 21.5 17.7742 21.3637 18.0077C21.2251 18.2453 21.0914 18.3558 20.8319 18.4471C20.5769 18.5368 20.0298 18.2056 19 18.0077C18.2792 17.8692 17.4243 17.7676 16.4678 17.7676C13.4678 17.7676 11.5 20.4999 7.5 20.4999C5.05129 20.4999 3.72687 19.6251 3.06788 19.3344C2.98012 19.2957 2.93624 19.2764 2.8096 19.1555C2.73369 19.0831 2.59512 18.8705 2.55947 18.7718C2.5 18.6071 2.5 18.5171 2.5 18.3371L2.5 7.58873C2.5 6.67996 2.5 6.22557 2.63628 5.99202C2.7749 5.75444 2.90859 5.64399 3.16806 5.55268C4.20319 5.18843 6.32888 6.49987 7.5 6.49987C10.5 6.49987 12.4678 3.76758 16.4678 3.76758ZM14.5 11.9999C14.5 13.3806 13.3807 14.4999 12 14.4999C10.6193 14.4999 9.5 13.3806 9.5 11.9999C9.5 10.6192 10.6193 9.49987 12 9.49987C13.3807 9.49987 14.5 10.6192 14.5 11.9999Z" stroke="#6938DA" stroke-linecap="round" stroke-linejoin="round"/>
</svg>
