<svg width="24" height="24" viewBox="0 0 24 24" fill="none" xmlns="http://www.w3.org/2000/svg">
<path d="M18.5 21.5V15.5M15.5 18.5H21.5M21.5 9.5H2.5M21.5 12.7V8.3C21.5 6.61984 21.5 5.77976 21.173 5.13803C20.8854 4.57354 20.4265 4.1146 19.862 3.82698C19.2202 3.5 18.3802 3.5 16.7 3.5H7.3C5.61984 3.5 4.77976 3.5 4.13803 3.82698C3.57354 4.1146 3.1146 4.57354 2.82698 5.13803C2.5 5.77976 2.5 6.61984 2.5 8.3V17.7C2.5 19.3802 2.5 20.2202 2.82698 20.862C3.1146 21.4265 3.57354 21.8854 4.13803 22.173C4.77976 22.5 5.61984 22.5 7.3 22.5H12.7M16.5 1.5V5.5M7.5 1.5V5.5" stroke="#979797" stroke-linecap="round" stroke-linejoin="round"/>
</svg>
