<svg width="24" height="24" viewBox="0 0 24 24" fill="none" xmlns="http://www.w3.org/2000/svg">
<path d="M4.5 13.5H7.5M1.5 9L3.5 10L4.77064 5.68807C5.03292 4.90125 5.16405 4.50784 5.40729 4.21698C5.62208 3.96013 5.89792 3.76132 6.20951 3.63878C6.56236 3.5 6.97705 3.5 7.80643 3.5H16.1936C17.0229 3.5 17.4376 3.5 17.7905 3.63878C18.1021 3.76132 18.3779 3.96013 18.5927 4.21698C18.8359 4.50784 18.9671 4.90125 19.2293 5.68807L20.5 10L22.5 9M16.5 13.5H19.5M6.3 10H17.7C19.3801 10 20.2202 10 20.862 10.327C21.4264 10.6146 21.8854 11.0735 22.173 11.638C22.5 12.2798 22.5 13.1198 22.5 14.8V17.5C22.5 17.9647 22.5 18.197 22.4616 18.3902C22.3037 19.1836 21.6835 19.8038 20.8902 19.9616C20.8902 19.9616 20.6954 20 20.5 20C19.3954 20 18.5 19.1046 18.5 18C18.5 17.7239 18.2761 17.5 18 17.5H6C5.72386 17.5 5.5 17.7239 5.5 18C5.5 19.1046 4.60457 20 3.5 20C3.5 20 3.30302 20 3.10982 19.9616C2.31644 19.8038 1.69624 19.1836 1.53843 18.3902C1.5 18.197 1.5 17.9647 1.5 17.5V14.8C1.5 13.1198 1.5 12.2798 1.82698 11.638C2.1146 11.0735 2.57354 10.6146 3.13803 10.327C3.77976 10 4.61984 10 6.3 10Z" stroke="#6938DA" stroke-linecap="round" stroke-linejoin="round"/>
</svg>
