<svg width="24" height="24" viewBox="0 0 24 24" fill="none" xmlns="http://www.w3.org/2000/svg">
<path d="M12 12H12.005M17 12H17.005M7.00001 12H7.00501M5.7 7.5H18.3C19.4201 7.5 19.9802 7.5 20.408 7.71799C20.7843 7.90973 21.0903 8.21569 21.282 8.59202C21.5 9.01984 21.5 9.5799 21.5 10.7V13.3C21.5 14.4201 21.5 14.9802 21.282 15.408C21.0903 15.7843 20.7843 16.0903 20.408 16.282C19.9802 16.5 19.4201 16.5 18.3 16.5H5.7C4.5799 16.5 4.01984 16.5 3.59202 16.282C3.21569 16.0903 2.90973 15.7843 2.71799 15.408C2.5 14.9802 2.5 14.4201 2.5 13.3V10.7C2.5 9.5799 2.5 9.01984 2.71799 8.59202C2.90973 8.21569 3.21569 7.90973 3.59202 7.71799C4.01984 7.5 4.5799 7.5 5.7 7.5ZM12.25 12C12.25 12.1381 12.1381 12.25 12 12.25C11.8619 12.25 11.75 12.1381 11.75 12C11.75 11.8619 11.8619 11.75 12 11.75C12.1381 11.75 12.25 11.8619 12.25 12ZM17.25 12C17.25 12.1381 17.1381 12.25 17 12.25C16.8619 12.25 16.75 12.1381 16.75 12C16.75 11.8619 16.8619 11.75 17 11.75C17.1381 11.75 17.25 11.8619 17.25 12ZM7.25001 12C7.25001 12.1381 7.13808 12.25 7.00001 12.25C6.86194 12.25 6.75001 12.1381 6.75001 12C6.75001 11.8619 6.86194 11.75 7.00001 11.75C7.13808 11.75 7.25001 11.8619 7.25001 12Z" stroke="white" stroke-linecap="round" stroke-linejoin="round"/>
</svg>
