<svg width="16" height="16" viewBox="0 0 16 16" fill="none" xmlns="http://www.w3.org/2000/svg">
<path d="M7.99935 7V4.33334M7.99935 9.00001V9.66667M6.59935 12.4667L7.57268 13.7645C7.71743 13.9574 7.7898 14.0539 7.87853 14.0884C7.95624 14.1187 8.04246 14.1187 8.12017 14.0884C8.2089 14.0539 8.28127 13.9574 8.42602 13.7645L9.39935 12.4667C9.59478 12.2061 9.6925 12.0758 9.81169 11.9763C9.97061 11.8437 10.1582 11.7499 10.3597 11.7023C10.5108 11.6667 11.007 11.6667 11.3327 11.6667C12.2646 11.6667 12.7305 11.6667 13.0981 11.5144C13.5881 11.3114 13.9775 10.9221 14.1804 10.432C14.3327 10.0645 14.3327 9.59856 14.3327 8.66667V4.86667C14.3327 3.74657 14.3327 3.18651 14.1147 2.75869C13.9229 2.38237 13.617 2.07641 13.2407 1.88466C12.8128 1.66667 12.2528 1.66667 11.1327 1.66667H4.86602C3.74591 1.66667 3.18586 1.66667 2.75803 1.88466C2.38171 2.07641 2.07575 2.38237 1.884 2.75869C1.66602 3.18651 1.66602 3.74657 1.66602 4.86667V8.66667C1.66602 9.59856 1.66602 10.0645 1.81826 10.432C2.02124 10.9221 2.41059 11.3114 2.90065 11.5144C3.26819 11.6667 3.73413 11.6667 4.66602 11.6667C4.99173 11.6667 5.48793 11.6667 5.63902 11.7023C5.84048 11.7499 6.02809 11.8437 6.18701 11.9763C6.3062 12.0758 6.40392 12.2061 6.59935 12.4667Z" stroke="#6938DA" stroke-linecap="round" stroke-linejoin="round"/>
</svg>
