<svg width="14" height="15" viewBox="0 0 14 15" fill="none" xmlns="http://www.w3.org/2000/svg">
<path d="M9.66732 1.6665C10.2873 1.6665 10.9306 1.6665 11.185 1.73465C11.8751 1.91959 12.4142 2.45868 12.5992 3.14887C12.6673 3.4032 12.6673 3.71319 12.6673 4.33317V11.1332C12.6673 12.2533 12.6673 12.8133 12.4493 13.2412C12.2576 13.6175 11.9516 13.9234 11.5753 14.1152C11.1475 14.3332 10.5874 14.3332 9.46732 14.3332H4.53398C3.41388 14.3332 2.85383 14.3332 2.426 14.1152C2.04968 13.9234 1.74372 13.6175 1.55197 13.2412C1.33398 12.8133 1.33398 12.2533 1.33398 11.1332V4.33317C1.33398 3.71319 1.33398 3.4032 1.40213 3.14887C1.58707 2.45868 2.12616 1.91959 2.81635 1.73465C3.07068 1.6665 3.714 1.6665 4.33398 1.6665M5.00065 8.99984L6.33398 10.3332L9.33398 7.33317M5.40065 2.6665H8.60065C8.97402 2.6665 9.1607 2.6665 9.30331 2.59384C9.42875 2.52993 9.53074 2.42794 9.59466 2.3025C9.66732 2.15989 9.66732 1.97321 9.66732 1.59984V1.73317C9.66732 1.3598 9.66732 1.17312 9.59466 1.03051C9.53074 0.905069 9.42875 0.803082 9.30331 0.739166C9.1607 0.666504 8.97402 0.666504 8.60065 0.666504H5.40065C5.02728 0.666504 4.8406 0.666504 4.69799 0.739166C4.57255 0.803082 4.47056 0.905069 4.40665 1.03051C4.33398 1.17312 4.33398 1.3598 4.33398 1.73317V1.59984C4.33398 1.97321 4.33398 2.15989 4.40665 2.3025C4.47056 2.42794 4.57255 2.52993 4.69799 2.59384C4.8406 2.6665 5.02728 2.6665 5.40065 2.6665Z" stroke="#6938DA" stroke-linecap="round" stroke-linejoin="round"/>
</svg>
