<svg width="24" height="24" viewBox="0 0 24 24" fill="none" xmlns="http://www.w3.org/2000/svg">
<path d="M6.5 11.0001V15.0001M17.5 9.00012V13.0001M16.4678 3.76783C18.9165 3.76783 20.2731 4.37488 20.9321 4.66556C21.0199 4.70427 21.0638 4.72363 21.1904 4.84449C21.2663 4.91694 21.4049 5.12951 21.4405 5.22821C21.5 5.39286 21.5 5.48286 21.5 5.66286V16.4113C21.5 17.32 21.5 17.7744 21.3637 18.008C21.2251 18.2456 21.0914 18.356 20.8319 18.4473C20.5769 18.5371 20.0298 18.2058 19 18.008C18.2792 17.8695 17.4243 17.7678 16.4678 17.7678C13.4678 17.7678 11.5 20.5001 7.5 20.5001C5.05129 20.5001 3.72687 19.6254 3.06788 19.3347C2.98012 19.296 2.93624 19.2766 2.8096 19.1557C2.73369 19.0833 2.59512 18.8707 2.55947 18.772C2.5 18.6074 2.5 18.5174 2.5 18.3374L2.5 7.58897C2.5 6.6802 2.5 6.22582 2.63628 5.99226C2.7749 5.75468 2.90859 5.64423 3.16806 5.55293C4.20319 5.18867 6.32888 6.50012 7.5 6.50012C10.5 6.50012 12.4678 3.76783 16.4678 3.76783ZM14.5 12.0001C14.5 13.3808 13.3807 14.5001 12 14.5001C10.6193 14.5001 9.5 13.3808 9.5 12.0001C9.5 10.6194 10.6193 9.50012 12 9.50012C13.3807 9.50012 14.5 10.6194 14.5 12.0001Z" stroke="#6938DA" stroke-linecap="round" stroke-linejoin="round"/>
</svg>
