<svg width="24" height="24" viewBox="0 0 24 24" fill="none" xmlns="http://www.w3.org/2000/svg">
<path d="M14.5 1.76953V5.90007C14.5 6.46012 14.5 6.74015 14.609 6.95406C14.7049 7.14222 14.8578 7.2952 15.046 7.39108C15.2599 7.50007 15.5399 7.50007 16.1 7.50007H20.2305M8.5 14.5C9.67157 15.6716 11.5 17.5 11.5 17.5M11.5 17.5C11.5 17.5 13.3284 15.6716 14.5 14.5M11.5 17.5V11.5M14.5 1.5H8.3C6.61984 1.5 5.77976 1.5 5.13803 1.82698C4.57354 2.1146 4.1146 2.57354 3.82698 3.13803C3.5 3.77976 3.5 4.61984 3.5 6.3V17.7C3.5 19.3802 3.5 20.2202 3.82698 20.862C4.1146 21.4265 4.57354 21.8854 5.13803 22.173C5.77976 22.5 6.61984 22.5 8.3 22.5H15.7C17.3802 22.5 18.2202 22.5 18.862 22.173C19.4265 21.8854 19.8854 21.4265 20.173 20.862C20.5 20.2202 20.5 19.3802 20.5 17.7V7.5L14.5 1.5Z" stroke="white" stroke-linecap="round" stroke-linejoin="round"/>
</svg>
