<svg width="24" height="24" viewBox="0 0 24 24" fill="none" xmlns="http://www.w3.org/2000/svg">
<path d="M6.9 11.8333V14.6111M6.9 11.8333V5.16667C6.9 4.24619 7.66112 3.5 8.6 3.5C9.53888 3.5 10.3 4.24619 10.3 5.16667M6.9 11.8333C6.9 10.9129 6.13888 10.1667 5.2 10.1667C4.26112 10.1667 3.5 10.9129 3.5 11.8333V14.0556C3.5 18.6579 7.30558 22.5 12 22.5C16.6944 22.5 20.5 18.6579 20.5 14.0556V10.0556C20.5 9.13511 19.7389 8.38892 18.8 8.38892C17.8611 8.38892 17.1 9.13511 17.1 10.0556M10.3 5.16667V9.55558C10.3 8.63511 11.0611 7.88892 12 7.88892C12.9389 7.88892 13.7 8.63511 13.7 9.55558M10.3 5.16667V9.72225V11.2778M13.7 9.55558V11.2778M13.7 9.55558C13.7 8.63511 14.4611 7.88892 15.4 7.88892C16.3389 7.88892 17.1 8.63511 17.1 9.55558V10.0556M17.1 10.0556V11.2778" stroke="#6938DA" stroke-linecap="round" stroke-linejoin="round"/>
</svg>
