<svg width="24" height="24" viewBox="0 0 24 24" fill="none" xmlns="http://www.w3.org/2000/svg">
<rect x="12.8496" y="3.82812" width="9" height="6" transform="rotate(45 12.8496 3.82812)" stroke="#7EDDF1" stroke-linecap="round" stroke-linejoin="round"/>
<path d="M11.8749 2.56066C12.1845 2.25102 12.6866 2.25102 12.9962 2.56066V2.56066C13.3059 2.8703 13.3059 3.37234 12.9962 3.68198L8.46067 8.21751C8.15103 8.52716 7.649 8.52716 7.33935 8.21751V8.21751C7.02971 7.90787 7.02971 7.40584 7.33935 7.09619L11.8749 2.56066Z" stroke="#7EDDF1" stroke-linecap="round" stroke-linejoin="round"/>
<path d="M19.3593 10.046C19.6689 9.73637 20.1709 9.73637 20.4806 10.046V10.046C20.7902 10.3557 20.7902 10.8577 20.4806 11.1673L15.945 15.7029C15.6354 16.0125 15.1334 16.0125 14.8237 15.7029V15.7029C14.5141 15.3932 14.5141 14.8912 14.8237 14.5815L19.3593 10.046Z" stroke="#7EDDF1" stroke-linecap="round" stroke-linejoin="round"/>
<path d="M22.5 20.5H14.5C13.9477 20.5 13.5 20.9477 13.5 21.5C13.5 22.0523 13.9477 22.5 14.5 22.5H22.5C23.0523 22.5 23.5 22.0523 23.5 21.5C23.5 20.9477 23.0523 20.5 22.5 20.5Z" stroke="#7EDDF1" stroke-linecap="round"/>
<path d="M10.7285 10.1924L12.8498 12.3137L4.71811 20.4454C4.13232 21.0312 3.18257 21.0312 2.59679 20.4454V20.4454C2.011 19.8596 2.011 18.9099 2.59679 18.3241L10.7285 10.1924Z" stroke="#7EDDF1" stroke-linecap="round" stroke-linejoin="round"/>
</svg>
