<svg width="131" height="55" viewBox="0 0 131 55" fill="none" xmlns="http://www.w3.org/2000/svg">
<g clip-path="url(#clip0_1200_16102)">
<path d="M50.8764 51.2015H47.3194L46.5171 53.537C46.4369 53.769 46.2191 53.9262 45.9727 53.9262H45.837C45.4397 53.9262 45.1608 53.5293 45.2964 53.1535L48.2803 44.8318C48.3624 44.6036 48.5783 44.4502 48.8209 44.4502H49.4035C49.6462 44.4502 49.862 44.6036 49.9442 44.8318L52.928 53.1535C53.0637 53.5293 52.7848 53.9262 52.3874 53.9262H52.2365C51.992 53.9262 51.7742 53.7709 51.694 53.5389L50.8783 51.1996L50.8764 51.2015ZM49.0979 45.7522C49.0979 45.7522 48.884 46.6112 48.7235 47.0944L47.6671 50.1009H50.5287L49.4857 47.0944C49.3252 46.6112 49.1246 45.7522 49.1246 45.7522H49.0979Z" fill="#6938DA"/>
<path d="M56.7859 44.4502H56.9598C57.2769 44.4502 57.5348 44.7091 57.5348 45.0274V52.7719H61.1853C61.5024 52.7719 61.7603 53.0308 61.7603 53.3491C61.7603 53.6674 61.5024 53.9262 61.1853 53.9262H56.7859C56.4688 53.9262 56.2109 53.6674 56.2109 53.3491V45.0274C56.2109 44.7091 56.4688 44.4502 56.7859 44.4502Z" fill="#6938DA"/>
<path d="M65.4793 44.4502H65.6531C65.9702 44.4502 66.2281 44.7091 66.2281 45.0274V52.7719H69.8787C70.1958 52.7719 70.4537 53.0308 70.4537 53.3491C70.4537 53.6674 70.1958 53.9262 69.8787 53.9262H65.4793C65.1622 53.9262 64.9043 53.6674 64.9043 53.3491V45.0274C64.9043 44.7091 65.1622 44.4502 65.4793 44.4502Z" fill="#6938DA"/>
<path d="M79.2254 44.4502H79.3992C79.7163 44.4502 79.9742 44.7091 79.9742 45.0274V53.3491C79.9742 53.6674 79.7163 53.9262 79.3992 53.9262H79.2254C78.9083 53.9262 78.6504 53.6674 78.6504 53.3491V45.0274C78.6504 44.7091 78.9083 44.4502 79.2254 44.4502Z" fill="#6938DA"/>
<path d="M84.7351 44.4502H85.1668C85.356 44.4502 85.5336 44.5442 85.6406 44.7014L89.6694 50.611C90.0171 51.121 90.4583 51.98 90.4583 51.98H90.4851C90.4851 51.98 90.3915 51.1344 90.3915 50.611V45.0274C90.3915 44.7091 90.6494 44.4502 90.9665 44.4502H91.1403C91.4574 44.4502 91.7153 44.7091 91.7153 45.0274V53.3491C91.7153 53.6674 91.4574 53.9262 91.1403 53.9262H90.72C90.5309 53.9262 90.3533 53.8323 90.2463 53.677L86.2041 47.7789C85.8564 47.2554 85.4152 46.3964 85.4152 46.3964H85.3884C85.3884 46.3964 85.482 47.242 85.482 47.7789V53.3491C85.482 53.6674 85.2241 53.9262 84.907 53.9262H84.7332C84.4161 53.9262 84.1582 53.6674 84.1582 53.3491V45.0274C84.1582 44.7091 84.4161 44.4502 84.7332 44.4502H84.7351Z" fill="#6938DA"/>
<path d="M105.167 44.2892C107.894 44.2892 110.007 46.3964 110.007 49.1211C110.007 51.8458 107.894 54.0873 105.167 54.0873C102.439 54.0873 100.312 51.9129 100.312 49.1211C100.312 46.3293 102.439 44.2892 105.167 44.2892ZM105.167 52.8659C107.092 52.8659 108.643 51.2552 108.643 49.1211C108.643 46.987 107.092 45.4971 105.167 45.4971C103.241 45.4971 101.676 47.0541 101.676 49.1211C101.676 51.1881 103.241 52.8659 105.167 52.8659Z" fill="#6938DA"/>
<path d="M114.126 44.4502H114.557C114.747 44.4502 114.924 44.5442 115.031 44.7014L119.06 50.611C119.408 51.121 119.849 51.98 119.849 51.98H119.876C119.876 51.98 119.782 51.1344 119.782 50.611V45.0274C119.782 44.7091 120.04 44.4502 120.357 44.4502H120.531C120.848 44.4502 121.106 44.7091 121.106 45.0274V53.3491C121.106 53.6674 120.848 53.9262 120.531 53.9262H120.111C119.922 53.9262 119.744 53.8323 119.637 53.677L115.595 47.7789C115.247 47.2554 114.806 46.3964 114.806 46.3964H114.779C114.779 46.3964 114.873 47.242 114.873 47.7789V53.3491C114.873 53.6674 114.615 53.9262 114.298 53.9262H114.124C113.807 53.9262 113.549 53.6674 113.549 53.3491V45.0274C113.549 44.7091 113.807 44.4502 114.124 44.4502H114.126Z" fill="#6938DA"/>
<path d="M125.866 44.4502H130.199C130.516 44.4502 130.774 44.7091 130.774 45.0274C130.774 45.3457 130.516 45.6045 130.199 45.6045H126.615V48.5708H129.423C129.74 48.5708 129.998 48.8297 129.998 49.148C129.998 49.4663 129.74 49.7251 129.423 49.7251H126.615V52.7719H130.426C130.743 52.7719 131.001 53.0308 131.001 53.3491C131.001 53.6674 130.743 53.9262 130.426 53.9262H125.866C125.549 53.9262 125.291 53.6674 125.291 53.3491V45.0274C125.291 44.7091 125.549 44.4502 125.866 44.4502Z" fill="#6938DA"/>
<path d="M32.4188 12.4553L17.1881 0.229714C16.8041 -0.0770769 16.2597 -0.0789943 15.8757 0.229714L0.644983 12.4553C0.0718958 12.9155 -0.142057 13.6633 0.10055 14.3594C0.343157 15.0554 0.975463 15.506 1.71092 15.506H1.95735V30.487C1.95735 32.2664 3.39962 33.7141 5.17237 33.7141H27.8934C29.6661 33.7141 31.1084 32.2664 31.1084 30.487V26.9819C31.1084 26.399 30.6384 25.9273 30.0577 25.9273H29.0854C28.5046 25.9273 28.0347 26.399 28.0347 26.9819V30.5484C28.0347 30.5925 27.9984 30.6289 27.9545 30.6289H5.10933C5.06539 30.6289 5.0291 30.5925 5.0291 30.5484V13.4735C5.0291 13.2952 4.98516 13.1284 4.90684 12.9807L16.5309 3.65044L28.1551 12.9807C28.0767 13.1284 28.0328 13.2952 28.0328 13.4735V18.6679C28.0328 19.2508 28.5027 19.7225 29.0835 19.7225H30.0558C30.6365 19.7225 31.1065 19.2508 31.1065 18.6679V15.5041H31.3529C32.0883 15.5041 32.7207 15.0535 32.9633 14.3575C33.2059 13.6614 32.9919 12.9136 32.4188 12.4515V12.4553Z" fill="#74DB07"/>
<path d="M39.932 40.6403C39.6894 39.9442 39.0571 39.4936 38.3216 39.4936H38.0752V24.5126C38.0752 22.7333 36.6329 21.2856 34.8602 21.2856H12.1392C10.3665 21.2856 8.92419 22.7333 8.92419 24.5126V28.0177C8.92419 28.6006 9.39412 29.0723 9.97485 29.0723H10.9472C11.5279 29.0723 11.9978 28.6006 11.9978 28.0177V24.4513C11.9978 24.4072 12.0341 24.3708 12.0781 24.3708H34.9232C34.9672 24.3708 35.0035 24.4072 35.0035 24.4513V41.5261C35.0035 41.7045 35.0474 41.8713 35.1257 42.0189L23.5016 51.3492L11.8775 42.0189C11.9558 41.8713 11.9998 41.7045 11.9998 41.5261V36.3318C11.9998 35.7489 11.5298 35.2772 10.9491 35.2772H9.97676C9.39603 35.2772 8.9261 35.7489 8.9261 36.3318V39.4956H8.67967C7.94421 39.4956 7.31191 39.9462 7.0693 40.6422C6.82669 41.3382 7.04065 42.086 7.61373 42.5481L22.8445 54.7718C23.0355 54.9252 23.2686 55.0019 23.4997 55.0019C23.7308 55.0019 23.9639 54.9252 24.1549 54.7718L39.3857 42.5462C39.9588 42.086 40.1727 41.3382 39.9301 40.6422L39.932 40.6403Z" fill="#6938DA"/>
<path d="M101.087 16.7336C98.3302 13.9667 94.6472 12.4423 90.7158 12.4423C86.7844 12.4423 83.1033 13.9667 80.3449 16.7336C77.5864 19.5004 76.0391 23.2721 76.0391 27.2949C76.0391 31.3177 77.5673 35.2676 80.3429 38.1342C83.1033 40.9854 86.7883 42.5558 90.7158 42.5558C94.6434 42.5558 98.3283 40.9854 101.089 38.1342C103.864 35.2676 105.393 31.4174 105.393 27.2949C105.393 23.1723 103.862 19.5196 101.087 16.7336ZM102.991 27.2968C102.991 34.5716 97.6005 40.2702 90.7177 40.2702C83.835 40.2702 78.4441 34.5716 78.4441 27.2968C78.4441 20.022 83.835 14.7318 90.7177 14.7318C97.6005 14.7318 102.991 20.2521 102.991 27.2968Z" fill="white"/>
<path d="M129.572 39.8618C128.855 39.8618 128.521 39.764 128.296 39.1504L118.916 14.0165C118.673 13.3685 118.047 12.9313 117.357 12.9313C116.668 12.9313 116.041 13.3665 115.799 14.0165L106.417 39.1523C106.194 39.764 105.857 39.8618 105.126 39.8618C104.52 39.8618 104.025 40.3565 104.025 40.9662C104.025 41.576 104.518 42.0707 105.126 42.0707H105.183C107.351 42.0707 108.026 41.5932 108.784 39.5167L111.519 32.1958H123.195L125.929 39.5147C126.689 41.5913 127.361 42.0707 129.532 42.0707H129.589C130.194 42.0707 130.689 41.576 130.689 40.9662C130.689 40.3565 130.196 39.8618 129.574 39.8618H129.572ZM122.408 29.9869H112.341L116.505 18.7852C116.784 18.0202 117.122 16.8966 117.34 16.1392C117.571 16.8985 117.927 18.0317 118.204 18.7872L122.406 29.9869H122.408Z" fill="white"/>
<path d="M72.8516 39.8618H71.9175C71.4858 39.8618 71.31 39.6854 71.31 39.252V15.7499C71.31 15.3166 71.4858 15.1402 71.9175 15.1402H72.8516C73.4572 15.1402 73.952 14.6455 73.952 14.0357C73.952 13.426 73.4591 12.9313 72.8516 12.9313H71.6329C70.1753 12.9313 68.989 14.122 68.989 15.585V26.3553H51.5137V15.585C51.5137 14.122 50.3274 12.9313 48.8699 12.9313H47.6511C47.0455 12.9313 46.5508 13.426 46.5508 14.0357C46.5508 14.6455 47.0436 15.1402 47.6511 15.1402H48.5872C49.0189 15.1402 49.1946 15.3166 49.1946 15.7499V39.252C49.1946 39.6854 49.0189 39.8618 48.5872 39.8618H47.6511C47.0455 39.8618 46.5508 40.3565 46.5508 40.9662C46.5508 41.576 47.0436 42.0707 47.6511 42.0707H48.8699C50.3274 42.0707 51.5137 40.88 51.5137 39.4169V28.5661H68.989V39.4169C68.989 40.88 70.1753 42.0707 71.6329 42.0707H72.8516C73.4572 42.0707 73.952 41.576 73.952 40.9662C73.952 40.3565 73.4591 39.8618 72.8516 39.8618Z" fill="white"/>
</g>
<defs>
<clipPath id="clip0_1200_16102">
<rect width="131" height="55" fill="white"/>
</clipPath>
</defs>
</svg>
