<svg width="96" height="96" viewBox="0 0 96 96" fill="none" xmlns="http://www.w3.org/2000/svg">
<path d="M51.9586 11.081C51.9479 11.0718 51.9426 11.0672 51.9366 11.0622C51.9316 11.0581 51.9253 11.053 51.9203 11.049C51.9142 11.0441 51.9095 11.0405 51.9 11.0332C51.6427 10.8348 49.7676 9.40186 49.0457 9.2064C48.3611 9.02104 47.6395 9.02104 46.9549 9.2064C46.233 9.40187 44.3579 10.8348 44.1005 11.0332C44.0911 11.0405 44.0864 11.0441 44.0802 11.049C44.0752 11.053 44.0689 11.0581 44.064 11.0622C44.058 11.0672 44.0526 11.0718 44.0419 11.081L8 42H14.0002V73.2C14.0002 77.6804 14.0002 79.9206 14.8721 81.6319C15.6391 83.1372 16.863 84.3611 18.3682 85.1281C20.0795 86 22.3198 86 26.8002 86C48.0724 86 47.9281 86 69.2003 86C73.6808 86 75.921 86 77.6323 85.1281C79.1376 84.3611 80.3614 83.1372 81.1284 81.6319C82.0003 79.9206 82.0004 77.6804 82.0004 73.2V42H88L51.9586 11.081Z" stroke="#471EA7" stroke-width="4" stroke-linecap="round" stroke-linejoin="round"/>
</svg>
