<svg width="24" height="24" viewBox="0 0 24 24" fill="none" xmlns="http://www.w3.org/2000/svg">
<path d="M5.50003 21.282C5.50036 20.4727 5.50521 20.0799 5.57687 19.7197C5.89249 18.1329 6.91327 16.8925 8.50003 16.5769C8.88643 16.5 9.0707 16.5 10 16.5H14C14.9293 16.5 15.1136 16.5 15.5 16.5769C17.0868 16.8925 18.1076 18.1329 18.4232 19.7197C18.4949 20.0799 18.4997 20.4727 18.5 21.282M4.5 6V3.50002M4.5 3.50002V1M4.5 3.50002H7M4.5 3.50002H2M20.5 10.5V18.3C20.5 19.4201 20.5 19.9802 20.282 20.408C20.0903 20.7843 19.7843 21.0903 19.408 21.282C18.9802 21.5 18.4201 21.5 17.3 21.5C11.982 21.5 12.0181 21.5 6.70003 21.5C5.57993 21.5 5.01987 21.5 4.59205 21.282C4.21573 21.0903 3.90976 20.7843 3.71802 20.408C3.50003 19.9802 3.50003 19.4201 3.50003 18.3V10.5H2.00003L10.9886 2.78904C10.999 2.78012 11.0042 2.77566 11.0108 2.77015C11.0157 2.76607 11.0237 2.75964 11.0287 2.75567C11.0355 2.75032 11.0396 2.74716 11.0479 2.74085C11.1625 2.65346 11.5726 2.34659 11.7387 2.30163C11.9098 2.25529 12.0902 2.25529 12.2614 2.30163C12.4274 2.34659 12.8375 2.65346 12.9521 2.74085C12.9604 2.74716 12.9646 2.75032 12.9713 2.75567C12.9763 2.75964 12.9843 2.76607 12.9892 2.77015C12.9959 2.77566 13.0011 2.78012 13.0115 2.78904L22 10.5H20.5ZM15 11.5C15 13 13.5 14.5 12 14.5C10.5 14.5 9.00002 13 9.00002 11.5C9.00002 10 10.5 8.50003 12 8.50003C13.5 8.50003 15 10 15 11.5Z" stroke="#979797" stroke-linecap="round" stroke-linejoin="round"/>
</svg>
