<svg width="18" height="18" viewBox="0 0 18 18" fill="none" xmlns="http://www.w3.org/2000/svg">
<path d="M9.19602 12.75V10.1251M9.19602 10.1251V7.50005M9.19602 10.1251H11.821M9.19602 10.1251H6.57102M15.375 7.87506V13.7251C15.375 14.5651 15.375 14.9852 15.2115 15.306C15.0677 15.5883 14.8382 15.8178 14.556 15.9616C14.2351 16.1251 13.8151 16.1251 12.975 16.1251C8.98645 16.1251 9.01355 16.1251 5.025 16.1251C4.18492 16.1251 3.76488 16.1251 3.44401 15.9616C3.16177 15.8178 2.9323 15.5883 2.78849 15.306C2.625 14.9852 2.625 14.5651 2.625 13.7251V7.87506H1.5L8.23411 2.09807C8.24438 2.08925 8.24952 2.08484 8.25639 2.07916C8.26132 2.07508 8.26985 2.0682 8.27487 2.06424C8.28187 2.05872 8.28576 2.05576 8.29355 2.04984C8.38878 1.9775 8.68289 1.75905 8.80398 1.72626C8.93234 1.69151 9.06763 1.69151 9.196 1.72626C9.31708 1.75905 9.6112 1.97751 9.70642 2.04985C9.71421 2.05576 9.71811 2.05872 9.7251 2.06424C9.73013 2.0682 9.73865 2.07508 9.74359 2.07916C9.75045 2.08484 9.75559 2.08925 9.76587 2.09807L16.5 7.87506H15.375Z" stroke="white" stroke-linecap="round" stroke-linejoin="round"/>
</svg>
