<svg width="24" height="24" viewBox="0 0 24 24" fill="none" xmlns="http://www.w3.org/2000/svg">
<path d="M12.2614 16.9997V13.4998M12.2614 13.4998V9.99974M12.2614 13.4998H15.7614M12.2614 13.4998H8.76136M20.5 10.4998V18.2998C20.5 19.4199 20.5 19.9799 20.282 20.4077C20.0903 20.7841 19.7843 21.09 19.408 21.2818C18.9802 21.4998 18.4201 21.4998 17.3 21.4998C11.9819 21.4998 12.0181 21.4998 6.7 21.4998C5.57989 21.4998 5.01984 21.4998 4.59202 21.2818C4.21569 21.09 3.90973 20.7841 3.71799 20.4077C3.5 19.9799 3.5 19.4199 3.5 18.2998V10.4998H2L10.9885 2.78876C10.9989 2.77984 11.0041 2.77538 11.0108 2.76987C11.0157 2.76579 11.0236 2.75936 11.0287 2.75539C11.0354 2.75004 11.0396 2.74688 11.0479 2.74057C11.1625 2.65318 11.5726 2.34632 11.7386 2.30136C11.9098 2.25502 12.0902 2.25502 12.2613 2.30136C12.4274 2.34632 12.8375 2.65318 12.9521 2.74057C12.9604 2.74689 12.9645 2.75004 12.9713 2.75539C12.9763 2.75936 12.9843 2.76579 12.9892 2.76987C12.9958 2.77538 13.001 2.77984 13.0114 2.78876L22 10.4998H20.5Z" stroke="#979797" stroke-linecap="round" stroke-linejoin="round"/>
</svg>
