<svg width="96" height="96" viewBox="0 0 96 96" fill="none" xmlns="http://www.w3.org/2000/svg">
<path d="M22 85.1281C22.0013 81.8907 22.0207 80.3194 22.3073 78.8786C23.5698 72.5315 27.6529 67.5699 34 66.3074C35.5456 66 36.2827 66 39.9999 66H55.9999C59.7171 66 60.4544 66 62 66.3074C68.347 67.5699 72.4302 72.5315 73.6927 78.8786C73.9793 80.3194 73.9987 81.8907 74 85.1281M82 42V73.2C82 77.6804 82 79.9206 81.128 81.6319C80.3611 83.1372 79.1372 84.3611 77.6319 85.1281C75.9206 86 73.6804 86 69.2 86C47.9277 86 48.0723 86 26.8 86C22.3196 86 20.0794 86 18.3681 85.1281C16.8628 84.3611 15.6389 83.1372 14.8719 81.6319C14 79.9206 14 77.6804 14 73.2V42H8L44.0416 11.081C44.0523 11.0718 44.0576 11.0672 44.0637 11.0622C44.0686 11.0581 44.0749 11.053 44.0799 11.049C44.086 11.0441 44.0907 11.0405 44.1002 11.0332C44.3575 10.8348 46.2326 9.40186 46.9545 9.2064C47.6391 9.02104 48.3607 9.02104 49.0453 9.2064C49.7672 9.40186 51.6423 10.8348 51.8997 11.0332C51.9091 11.0405 51.9138 11.0441 51.92 11.049C51.925 11.053 51.9313 11.0581 51.9362 11.0622C51.9422 11.0672 51.9476 11.0718 51.9583 11.081L88 42H82ZM59.9999 46C59.9999 52 54 58 47.9999 58C41.9999 58 35.9999 52 35.9999 46C35.9999 40 42 34 47.9999 34C53.9999 34 59.9999 40 59.9999 46Z" stroke="#471EA7" stroke-width="4" stroke-linecap="round" stroke-linejoin="round"/>
</svg>
