<svg width="24" height="24" viewBox="0 0 24 24" fill="none" xmlns="http://www.w3.org/2000/svg">
<path d="M16.5 10.5V7.5C16.5 4.73858 15 2.5 12 2.5C9 2.5 7.5 4.73858 7.5 7.5V10.5M8.3 21.5H15.7C17.3802 21.5 18.2202 21.5 18.862 21.173C19.4265 20.8854 19.8854 20.4265 20.173 19.862C20.5 19.2202 20.5 17.8802 20.5 16.2V15.3C20.5 13.6198 20.5 12.7798 20.173 12.138C19.8854 11.5735 19.4265 11.1146 18.862 10.827C18.2202 10.5 17.3802 10.5 16.2 10.5H8.3C6.61984 10.5 5.77976 10.5 5.13803 10.827C4.57354 11.1146 4.1146 11.5735 3.82698 12.138C3.5 12.7798 3.5 13.6198 3.5 15.3V16.2C3.5 17.8802 3.5 19.2202 3.82698 19.862C4.1146 20.4265 4.57354 20.8854 5.13803 21.173C5.77976 21.5 6.61984 21.5 8.3 21.5Z" stroke="#6938DA" stroke-linecap="round" stroke-linejoin="round"/>
</svg>
