<svg width="132" height="56" viewBox="0 0 132 56" fill="none" xmlns="http://www.w3.org/2000/svg">
<g clip-path="url(#clip0_468_23926)">
<path d="M51.3764 51.7018H47.8194L47.0171 54.0372C46.9369 54.2692 46.7191 54.4265 46.4727 54.4265H46.337C45.9397 54.4265 45.6608 54.0295 45.7964 53.6537L48.7803 45.332C48.8624 45.1038 49.0783 44.9504 49.3209 44.9504H49.9035C50.1462 44.9504 50.362 45.1038 50.4442 45.332L53.428 53.6537C53.5637 54.0295 53.2848 54.4265 52.8874 54.4265H52.7365C52.492 54.4265 52.2742 54.2711 52.194 54.0391L51.3783 51.6998L51.3764 51.7018ZM49.5979 46.2524C49.5979 46.2524 49.384 47.1114 49.2235 47.5946L48.1671 50.6012H51.0287L49.9857 47.5946C49.8252 47.1114 49.6246 46.2524 49.6246 46.2524H49.5979Z" fill="#6938DA"/>
<path d="M57.2859 44.9504H57.4598C57.7769 44.9504 58.0348 45.2093 58.0348 45.5276V53.2722H61.6853C62.0024 53.2722 62.2603 53.531 62.2603 53.8493C62.2603 54.1676 62.0024 54.4265 61.6853 54.4265H57.2859C56.9688 54.4265 56.7109 54.1676 56.7109 53.8493V45.5276C56.7109 45.2093 56.9688 44.9504 57.2859 44.9504Z" fill="#6938DA"/>
<path d="M65.9793 44.9504H66.1531C66.4702 44.9504 66.7281 45.2093 66.7281 45.5276V53.2722H70.3787C70.6958 53.2722 70.9537 53.531 70.9537 53.8493C70.9537 54.1676 70.6958 54.4265 70.3787 54.4265H65.9793C65.6622 54.4265 65.4043 54.1676 65.4043 53.8493V45.5276C65.4043 45.2093 65.6622 44.9504 65.9793 44.9504Z" fill="#6938DA"/>
<path d="M79.7254 44.9504H79.8992C80.2163 44.9504 80.4742 45.2093 80.4742 45.5276V53.8493C80.4742 54.1676 80.2163 54.4265 79.8992 54.4265H79.7254C79.4083 54.4265 79.1504 54.1676 79.1504 53.8493V45.5276C79.1504 45.2093 79.4083 44.9504 79.7254 44.9504Z" fill="#6938DA"/>
<path d="M85.2351 44.9504H85.6668C85.856 44.9504 86.0336 45.0444 86.1406 45.2016L90.1694 51.1112C90.5171 51.6212 90.9583 52.4802 90.9583 52.4802H90.9851C90.9851 52.4802 90.8915 51.6347 90.8915 51.1112V45.5276C90.8915 45.2093 91.1494 44.9504 91.4665 44.9504H91.6403C91.9574 44.9504 92.2153 45.2093 92.2153 45.5276V53.8493C92.2153 54.1676 91.9574 54.4265 91.6403 54.4265H91.22C91.0309 54.4265 90.8533 54.3325 90.7463 54.1772L86.7041 48.2791C86.3564 47.7557 85.9152 46.8966 85.9152 46.8966H85.8884C85.8884 46.8966 85.982 47.7422 85.982 48.2791V53.8493C85.982 54.1676 85.7241 54.4265 85.407 54.4265H85.2332C84.9161 54.4265 84.6582 54.1676 84.6582 53.8493V45.5276C84.6582 45.2093 84.9161 44.9504 85.2332 44.9504H85.2351Z" fill="#6938DA"/>
<path d="M105.667 44.7893C108.394 44.7893 110.507 46.8966 110.507 49.6213C110.507 52.346 108.394 54.5875 105.667 54.5875C102.939 54.5875 100.812 52.4131 100.812 49.6213C100.812 46.8295 102.939 44.7893 105.667 44.7893ZM105.667 53.366C107.592 53.366 109.143 51.7554 109.143 49.6213C109.143 47.4872 107.592 45.9973 105.667 45.9973C103.741 45.9973 102.176 47.5543 102.176 49.6213C102.176 51.6883 103.741 53.366 105.667 53.366Z" fill="#6938DA"/>
<path d="M114.626 44.9504H115.057C115.247 44.9504 115.424 45.0444 115.531 45.2016L119.56 51.1112C119.908 51.6212 120.349 52.4802 120.349 52.4802H120.376C120.376 52.4802 120.282 51.6347 120.282 51.1112V45.5276C120.282 45.2093 120.54 44.9504 120.857 44.9504H121.031C121.348 44.9504 121.606 45.2093 121.606 45.5276V53.8493C121.606 54.1676 121.348 54.4265 121.031 54.4265H120.611C120.422 54.4265 120.244 54.3325 120.137 54.1772L116.095 48.2791C115.747 47.7557 115.306 46.8966 115.306 46.8966H115.279C115.279 46.8966 115.373 47.7422 115.373 48.2791V53.8493C115.373 54.1676 115.115 54.4265 114.798 54.4265H114.624C114.307 54.4265 114.049 54.1676 114.049 53.8493V45.5276C114.049 45.2093 114.307 44.9504 114.624 44.9504H114.626Z" fill="#6938DA"/>
<path d="M126.366 44.9504H130.699C131.016 44.9504 131.274 45.2093 131.274 45.5276C131.274 45.8459 131.016 46.1047 130.699 46.1047H127.115V49.071H129.923C130.24 49.071 130.498 49.3299 130.498 49.6482C130.498 49.9665 130.24 50.2253 129.923 50.2253H127.115V53.2722H130.926C131.243 53.2722 131.501 53.531 131.501 53.8493C131.501 54.1676 131.243 54.4265 130.926 54.4265H126.366C126.049 54.4265 125.791 54.1676 125.791 53.8493V45.5276C125.791 45.2093 126.049 44.9504 126.366 44.9504Z" fill="#6938DA"/>
<path d="M32.9188 12.9555L17.6881 0.729836C17.3041 0.423045 16.7597 0.421128 16.3757 0.729836L1.14498 12.9555C0.571896 13.4157 0.357943 14.1635 0.60055 14.8595C0.843157 15.5555 1.47546 16.0061 2.21092 16.0061H2.45735V30.9871C2.45735 32.7665 3.89962 34.2142 5.67237 34.2142H28.3934C30.1661 34.2142 31.6084 32.7665 31.6084 30.9871V27.482C31.6084 26.8991 31.1384 26.4274 30.5577 26.4274H29.5854C29.0046 26.4274 28.5347 26.8991 28.5347 27.482V31.0485C28.5347 31.0926 28.4984 31.129 28.4545 31.129H5.60933C5.56539 31.129 5.5291 31.0926 5.5291 31.0485V13.9736C5.5291 13.7953 5.48516 13.6285 5.40684 13.4808L17.0309 4.15056L28.6551 13.4808C28.5767 13.6285 28.5328 13.7953 28.5328 13.9736V19.168C28.5328 19.7509 29.0027 20.2226 29.5835 20.2226H30.5558C31.1365 20.2226 31.6065 19.7509 31.6065 19.168V16.0042H31.8529C32.5883 16.0042 33.2207 15.5536 33.4633 14.8576C33.7059 14.1615 33.4919 13.4137 32.9188 12.9516V12.9555Z" fill="#74DB07"/>
<path d="M40.432 41.1403C40.1894 40.4443 39.5571 39.9937 38.8216 39.9937H38.5752V25.0127C38.5752 23.2333 37.1329 21.7856 35.3602 21.7856H12.6392C10.8665 21.7856 9.42419 23.2333 9.42419 25.0127V28.5178C9.42419 29.1007 9.89412 29.5724 10.4748 29.5724H11.4472C12.0279 29.5724 12.4978 29.1007 12.4978 28.5178V24.9513C12.4978 24.9072 12.5341 24.8708 12.5781 24.8708H35.4232C35.4672 24.8708 35.5035 24.9072 35.5035 24.9513V42.0262C35.5035 42.2045 35.5474 42.3713 35.6257 42.519L24.0016 51.8493L12.3775 42.519C12.4558 42.3713 12.4998 42.2045 12.4998 42.0262V36.8318C12.4998 36.2489 12.0298 35.7772 11.4491 35.7772H10.4768C9.89603 35.7772 9.4261 36.2489 9.4261 36.8318V39.9956H9.17967C8.44421 39.9956 7.81191 40.4462 7.5693 41.1423C7.32669 41.8383 7.54065 42.5861 8.11373 43.0482L23.3445 55.2719C23.5355 55.4253 23.7686 55.502 23.9997 55.502C24.2308 55.502 24.4639 55.4253 24.6549 55.2719L39.8857 43.0463C40.4588 42.5861 40.6727 41.8383 40.4301 41.1423L40.432 41.1403Z" fill="#6938DA"/>
<path d="M101.587 17.2336C98.8302 14.4668 95.1472 12.9424 91.2158 12.9424C87.2844 12.9424 83.6033 14.4668 80.8449 17.2336C78.0864 20.0005 76.5391 23.7721 76.5391 27.7949C76.5391 31.8177 78.0673 35.7677 80.8429 38.6342C83.6033 41.4855 87.2883 43.0559 91.2158 43.0559C95.1434 43.0559 98.8283 41.4855 101.589 38.6342C104.364 35.7677 105.893 31.9174 105.893 27.7949C105.893 23.6724 104.362 20.0197 101.587 17.2336ZM103.491 27.7968C103.491 35.0716 98.1005 40.7703 91.2177 40.7703C84.335 40.7703 78.9441 35.0716 78.9441 27.7968C78.9441 20.522 84.335 15.2318 91.2177 15.2318C98.1005 15.2318 103.491 20.7521 103.491 27.7968Z" fill="white"/>
<path d="M130.072 40.3617C129.355 40.3617 129.021 40.2639 128.796 39.6503L119.416 14.5164C119.173 13.8683 118.547 13.4312 117.857 13.4312C117.168 13.4312 116.541 13.8664 116.299 14.5164L106.917 39.6522C106.694 40.2639 106.357 40.3617 105.626 40.3617C105.02 40.3617 104.525 40.8564 104.525 41.4661C104.525 42.0759 105.018 42.5706 105.626 42.5706H105.683C107.851 42.5706 108.526 42.0931 109.284 40.0165L112.019 32.6957H123.695L126.429 40.0146C127.189 42.0912 127.861 42.5706 130.032 42.5706H130.089C130.694 42.5706 131.189 42.0759 131.189 41.4661C131.189 40.8564 130.696 40.3617 130.074 40.3617H130.072ZM122.908 30.4868H112.841L117.005 19.2851C117.284 18.5201 117.622 17.3964 117.84 16.639C118.071 17.3983 118.427 18.5316 118.704 19.287L122.906 30.4868H122.908Z" fill="white"/>
<path d="M73.3516 40.3617H72.4175C71.9858 40.3617 71.81 40.1853 71.81 39.7519V16.2498C71.81 15.8165 71.9858 15.64 72.4175 15.64H73.3516C73.9572 15.64 74.452 15.1453 74.452 14.5356C74.452 13.9259 73.9591 13.4312 73.3516 13.4312H72.1329C70.6753 13.4312 69.489 14.6219 69.489 16.0849V26.8552H52.0137V16.0849C52.0137 14.6219 50.8274 13.4312 49.3699 13.4312H48.1511C47.5455 13.4312 47.0508 13.9259 47.0508 14.5356C47.0508 15.1453 47.5436 15.64 48.1511 15.64H49.0872C49.5189 15.64 49.6946 15.8165 49.6946 16.2498V39.7519C49.6946 40.1853 49.5189 40.3617 49.0872 40.3617H48.1511C47.5455 40.3617 47.0508 40.8564 47.0508 41.4661C47.0508 42.0759 47.5436 42.5706 48.1511 42.5706H49.3699C50.8274 42.5706 52.0137 41.3798 52.0137 39.9168V29.066H69.489V39.9168C69.489 41.3798 70.6753 42.5706 72.1329 42.5706H73.3516C73.9572 42.5706 74.452 42.0759 74.452 41.4661C74.452 40.8564 73.9591 40.3617 73.3516 40.3617Z" fill="white"/>
</g>
<defs>
<clipPath id="clip0_468_23926">
<rect width="131" height="55" fill="white" transform="translate(0.5 0.5)"/>
</clipPath>
</defs>
</svg>
