<svg width="25" height="24" viewBox="0 0 25 24" fill="none" xmlns="http://www.w3.org/2000/svg">
<g clip-path="url(#clip0_468_20544)">
<path d="M22.5 13.5V8.3C22.5 6.61984 22.5 5.77976 22.173 5.13803C21.8854 4.57354 21.4265 4.1146 20.862 3.82698C20.2202 3.5 19.3802 3.5 17.7 3.5H7.3C5.61984 3.5 4.77976 3.5 4.13803 3.82698C3.57354 4.1146 3.1146 4.57354 2.82698 5.13803C2.5 5.77976 2.5 6.61984 2.5 8.3V15.7C2.5 17.3802 2.5 18.2202 2.82698 18.862C3.1146 19.4265 3.57354 19.8854 4.13803 20.173C4.77976 20.5 5.61984 20.5 7.3 20.5H15M17.7 14.5L15.3571 12.5M9.64286 12.5L3.00003 18.5M2.5 6.5L10.6649 13.2154C11.3261 13.6783 11.6567 13.9097 12.0163 13.9993C12.3339 14.0785 12.6661 14.0785 12.9837 13.9993C13.3433 13.9097 13.6739 13.6783 14.3351 13.2154L22.5 6.5M21 22.5V19.5M21 19.5V16.5M21 19.5H18M21 19.5H24" stroke="#979797" stroke-linecap="round" stroke-linejoin="round"/>
</g>
<defs>
<clipPath id="clip0_468_20544">
<rect width="24" height="24" fill="white" transform="translate(0.5)"/>
</clipPath>
</defs>
</svg>
