<svg width="24" height="24" viewBox="0 0 24 24" fill="none" xmlns="http://www.w3.org/2000/svg">
<path d="M22 13.5V8.3C22 6.61984 22 5.77976 21.673 5.13803C21.3854 4.57354 20.9265 4.1146 20.362 3.82698C19.7202 3.5 18.8802 3.5 17.2 3.5H6.8C5.11984 3.5 4.27976 3.5 3.63803 3.82698C3.07354 4.1146 2.6146 4.57354 2.32698 5.13803C2 5.77976 2 6.61984 2 8.3V15.7C2 17.3802 2 18.2202 2.32698 18.862C2.6146 19.4265 3.07354 19.8854 3.63803 20.173C4.27976 20.5 5.11984 20.5 6.8 20.5H14.5M17.2 14.5L14.8571 12.5M9.14286 12.5L2.50003 18.5M2 6.5L10.1649 13.2154C10.8261 13.6783 11.1567 13.9097 11.5163 13.9993C11.8339 14.0785 12.1661 14.0785 12.4837 13.9993C12.8433 13.9097 13.1739 13.6783 13.8351 13.2154L22 6.5M20.5 22.5V19.5M20.5 19.5V16.5M20.5 19.5H17.5M20.5 19.5H23.5" stroke="white" stroke-linecap="round" stroke-linejoin="round"/>
</svg>
