<svg width="96" height="96" viewBox="0 0 96 96" fill="none" xmlns="http://www.w3.org/2000/svg">
<path d="M26 44.0005V60.0005M70 36.0005V52.0005M65.8713 15.0713C75.6661 15.0713 81.0925 17.4995 83.7285 18.6622C84.0795 18.8171 84.255 18.8945 84.7616 19.378C85.0653 19.6677 85.6195 20.518 85.7621 20.9128C86 21.5714 86 21.9314 86 22.6514V65.645C86 69.2801 86 71.0977 85.4549 72.0319C84.9004 72.9822 84.3656 73.424 83.3278 73.7892C82.3075 74.1483 80.1192 72.8234 76 72.0319C73.1168 71.4779 69.6974 71.0713 65.8713 71.0713C53.8713 71.0713 46 82.0005 30 82.0005C20.2052 82.0005 14.9075 78.5014 12.2715 77.3387C11.9205 77.1838 11.745 77.1064 11.2384 76.623C10.9347 76.3332 10.3805 75.4829 10.2379 75.0881C10 74.4295 10 74.0695 10 73.3495L10 30.3559C10 26.7208 10 24.9033 10.5451 23.969C11.0996 23.0187 11.6344 22.5769 12.6722 22.2117C16.8128 20.7547 25.3155 26.0005 30 26.0005C42 26.0005 49.8713 15.0713 65.8713 15.0713ZM58 48.0005C58 53.5233 53.5228 58.0005 48 58.0005C42.4772 58.0005 38 53.5233 38 48.0005C38 42.4776 42.4772 38.0005 48 38.0005C53.5228 38.0005 58 42.4776 58 48.0005Z" stroke="#471EA7" stroke-width="4" stroke-linecap="round" stroke-linejoin="round"/>
</svg>
