<svg width="24" height="25" viewBox="0 0 24 25" fill="none" xmlns="http://www.w3.org/2000/svg">
<path d="M11.5 4H8.3C6.61984 4 5.77976 4 5.13803 4.32698C4.57354 4.6146 4.1146 5.07354 3.82698 5.63803C3.5 6.27976 3.5 7.11984 3.5 8.8V16.2C3.5 17.8802 3.5 18.7202 3.82698 19.362C4.1146 19.9265 4.57354 20.3854 5.13803 20.673C5.77976 21 6.61984 21 8.3 21H15.7C17.3802 21 18.2202 21 18.862 20.673C19.4265 20.3854 19.8854 19.9265 20.173 19.362C20.5 18.7202 20.5 17.8802 20.5 16.2V13M20.1213 4.37868C21.2929 5.55025 21.2929 7.44975 20.1213 8.62132C18.9498 9.79289 17.0503 9.79289 15.8787 8.62132C14.7071 7.44975 14.7071 5.55025 15.8787 4.37868C17.0503 3.20711 18.9498 3.20711 20.1213 4.37868Z" stroke="white" stroke-linecap="round" stroke-linejoin="round"/>
</svg>
