<svg width="20" height="20" viewBox="0 0 20 20" fill="none" xmlns="http://www.w3.org/2000/svg">
<path d="M12.4983 15.8337C12.4983 17.2144 11.379 18.3337 9.9983 18.3337C8.61759 18.3337 7.4983 17.2144 7.4983 15.8337M11.4954 5.19912C11.8583 4.82419 12.0816 4.31334 12.0816 3.75033C12.0816 2.59973 11.1489 1.66699 9.9983 1.66699C8.84771 1.66699 7.91497 2.59973 7.91497 3.75033C7.91497 4.31334 8.1383 4.82419 8.50122 5.19912M14.9983 9.33366C14.9983 8.18439 14.4715 7.08219 13.5338 6.26953C12.5962 5.45687 11.3244 5.00032 9.9983 5.00032C8.67222 5.00032 7.40045 5.45687 6.46277 6.26953C5.52509 7.08219 4.9983 8.18439 4.9983 9.33366C4.9983 11.2352 4.52674 12.6258 3.93836 13.6209C3.26775 14.755 2.93245 15.3221 2.94569 15.4575C2.96084 15.6125 2.98873 15.6614 3.11442 15.7533C3.22428 15.8337 3.77623 15.8337 4.88013 15.8337H15.1165C16.2204 15.8337 16.7723 15.8337 16.8822 15.7533C17.0079 15.6614 17.0358 15.6125 17.0509 15.4575C17.0642 15.3221 16.7289 14.755 16.0582 13.6209C15.4699 12.6258 14.9983 11.2352 14.9983 9.33366Z" stroke="white" stroke-linecap="round" stroke-linejoin="round"/>
</svg>
