<svg width="49" height="48" viewBox="0 0 49 48" fill="none" xmlns="http://www.w3.org/2000/svg">
<path d="M24.334 21V13M24.334 27V29M20.134 37.4L23.054 41.2934C23.4882 41.8723 23.7053 42.1618 23.9715 42.2654C24.2047 42.356 24.4633 42.356 24.6965 42.2654C24.9626 42.1618 25.1797 41.8723 25.614 41.2934L28.534 37.4C29.1203 36.6183 29.4134 36.2274 29.771 35.929C30.2478 35.5311 30.8106 35.2497 31.415 35.107C31.8682 35 33.3568 35 34.334 35C37.1296 35 38.5275 35 39.6301 34.5433C41.1003 33.9343 42.2683 32.7663 42.8773 31.2961C43.334 30.1935 43.334 28.7957 43.334 26V14.6C43.334 11.2397 43.334 9.55956 42.68 8.27609C42.1048 7.14712 41.1869 6.22923 40.0579 5.65399C38.7745 5.00003 37.0943 5.00003 33.734 5.00003H14.934C11.5737 5.00003 9.89351 5.00003 8.61004 5.65399C7.48107 6.22923 6.56319 7.14712 5.98795 8.27609C5.33398 9.55956 5.33398 11.2397 5.33398 14.6V26C5.33398 28.7957 5.33398 30.1935 5.79071 31.2961C6.39967 32.7663 7.56772 33.9343 9.03788 34.5433C10.1405 35 11.5383 35 14.334 35C15.3111 35 16.7997 35 17.253 35.107C17.8574 35.2497 18.4202 35.5311 18.897 35.929C19.2545 36.2274 19.5477 36.6183 20.134 37.4Z" stroke="#471EA7" stroke-linecap="round" stroke-linejoin="round"/>
</svg>
