<svg width="48" height="48" viewBox="0 0 48 48" fill="none" xmlns="http://www.w3.org/2000/svg">
<path d="M33 32L43 42M43 32L33 42M43 19H5M43 25V17.4C43 15.1598 43 14.0397 42.564 13.184C42.1806 12.4314 41.5686 11.8195 40.816 11.436C39.9603 11 38.8402 11 36.6 11H11.4C9.15979 11 8.03969 11 7.18404 11.436C6.43139 11.8195 5.81947 12.4314 5.43597 13.184C5 14.0397 5 15.1598 5 17.4V30.6C5 32.8402 5 33.9603 5.43597 34.816C5.81947 35.5686 6.43139 36.1805 7.18404 36.564C8.03969 37 9.15979 37 11.4 37H25" stroke="#471EA7" stroke-linecap="round" stroke-linejoin="round"/>
</svg>
