<svg width="49" height="48" viewBox="0 0 49 48" fill="none" xmlns="http://www.w3.org/2000/svg">
<path d="M27.725 16.7037C26.5802 17.5199 25.1792 18 23.666 18C19.8 18 16.666 14.866 16.666 11C16.666 7.13401 19.8 4 23.666 4C26.172 4 28.3704 5.31683 29.607 7.29628M13.666 41H17.8866C18.5673 41 19.2438 41.081 19.9036 41.243L25.4198 42.5835C26.6167 42.875 27.8636 42.9034 29.073 42.6685L35.172 41.4819C36.7831 41.1681 38.2652 40.3966 39.4267 39.2667L43.7418 35.0691C44.9741 33.8724 44.9741 31.9306 43.7418 30.7318C42.6323 29.6526 40.8755 29.5311 39.6203 30.4463L34.9291 34.1902C34.2089 34.7167 33.3325 35.0001 32.4312 35.0001H27.5749L30.666 35C32.4083 35 33.4817 33.5524 33.4817 31.8575V31.244C33.4817 29.8367 32.4971 28.6096 31.0942 28.2694L26.3232 27.1092C25.5468 26.9209 24.7516 26.8257 23.9523 26.8257C22.0227 26.8257 18.5298 28.4233 18.5298 28.4233L13.666 30.8755M40.666 13C40.666 16.866 37.532 20 33.666 20C29.8 20 26.666 16.866 26.666 13C26.666 9.13401 29.8 6 33.666 6C37.532 6 40.666 9.13401 40.666 13ZM5.66602 28.2L5.66602 41.8C5.66602 42.9201 5.66602 43.4802 5.884 43.908C6.07575 44.2843 6.38171 44.5903 6.75803 44.782C7.18586 45 7.74591 45 8.86601 45H10.466C11.5861 45 12.1462 45 12.574 44.782C12.9503 44.5903 13.2563 44.2843 13.448 43.908C13.666 43.4802 13.666 42.9201 13.666 41.8V28.2C13.666 27.0799 13.666 26.5198 13.448 26.092C13.2563 25.7157 12.9503 25.4097 12.574 25.218C12.1462 25 11.5861 25 10.466 25L8.86602 25C7.74591 25 7.18586 25 6.75804 25.218C6.38171 25.4097 6.07575 25.7157 5.884 26.092C5.66602 26.5198 5.66602 27.0799 5.66602 28.2Z" stroke="#471EA7" stroke-linecap="round" stroke-linejoin="round"/>
</svg>
