<svg width="48" height="48" viewBox="0 0 48 48" fill="none" xmlns="http://www.w3.org/2000/svg">
<path d="M33 10L33 38M19 8.00001L19 40M5 25L43 25M5 11.9784L5 36.0217C5 38.7497 5 40.1138 5.56268 41.0592C6.05605 41.8882 6.8324 42.511 7.74868 42.8128C8.79369 43.157 10.1252 42.8611 12.7884 42.2693L37.9884 37.1137C39.7766 36.7163 40.6707 36.5176 41.3381 36.0368C41.9268 35.6127 42.3891 35.0364 42.6754 34.3697C43 33.6139 43 32.698 43 30.8661V17.1339C43 15.3021 43 14.3861 42.6754 13.6303C42.3891 12.9636 41.9268 12.3873 41.3381 11.9632C40.6707 11.4824 39.7766 11.2837 37.9884 10.8863L12.7884 5.73076C10.1252 5.13896 8.79369 4.84306 7.74868 5.18724C6.8324 5.48903 6.05605 6.11179 5.56268 6.94079C5 7.88625 5 9.25028 5 11.9784Z" stroke="#471EA7" stroke-linecap="round" stroke-linejoin="round"/>
</svg>
