<svg width="24" height="24" viewBox="0 0 24 24" fill="none" xmlns="http://www.w3.org/2000/svg">
<path d="M16.5 5.00007L16.5 19.0001M9.5 4.00007L9.5 20.0001M2.5 12.5001L21.5 12.5001M2.5 5.98924L2.5 18.0109C2.5 19.3749 2.5 20.0569 2.78134 20.5297C3.02803 20.9442 3.4162 21.2556 3.87434 21.4065C4.39685 21.5785 5.06262 21.4306 6.39418 21.1347L18.9942 18.5569C19.8883 18.3582 20.3354 18.2589 20.6691 18.0185C20.9634 17.8064 21.1945 17.5183 21.3377 17.1849C21.5 16.807 21.5 16.3491 21.5 15.4331V8.56702C21.5 7.65109 21.5 7.19312 21.3377 6.8152C21.1945 6.48186 20.9634 6.19374 20.6691 5.98168C20.3354 5.74126 19.8883 5.64191 18.9942 5.44322L6.39418 2.86544C5.06262 2.56954 4.39685 2.42159 3.87434 2.59368C3.4162 2.74457 3.02803 3.05596 2.78134 3.47045C2.5 3.94318 2.5 4.6252 2.5 5.98924Z" stroke="#6938DA" stroke-linecap="round" stroke-linejoin="round"/>
</svg>
