<svg width="24" height="24" viewBox="0 0 24 24" fill="none" xmlns="http://www.w3.org/2000/svg">
<path d="M18 7.5V5.7C18 4.5799 18 4.01984 17.782 3.59202C17.5902 3.21569 17.2843 2.90973 16.908 2.71799C16.4801 2.5 15.9201 2.5 14.8 2.5H9.19997C8.07986 2.5 7.51981 2.5 7.09199 2.71799C6.71566 2.90973 6.4097 3.21569 6.21796 3.59202C5.99997 4.01984 5.99997 4.5799 5.99997 5.7V7.5M5.99997 18.5C5.07 18.5 4.10504 18.5 3.72354 18.3978C2.68827 18.1204 1.87962 17.3117 1.60222 16.2765C1.5 15.895 1.5 15.43 1.5 14.5V12.3C1.5 10.6198 1.5 9.77976 1.82698 9.13803C2.1146 8.57354 2.57354 8.1146 3.13803 7.82698C3.77976 7.5 5.11981 7.5 6.79997 7.5H17.2C18.8801 7.5 20.2202 7.5 20.8619 7.82698C21.4264 8.1146 21.8854 8.57354 22.173 9.13803C22.5 9.77976 22.5 10.6198 22.5 12.3V14.5C22.5 15.43 22.5 15.895 22.3977 16.2765C22.1203 17.3117 21.3117 18.1204 20.2764 18.3978C19.8949 18.5 18.9299 18.5 18 18.5M15 10.5H18M9.19997 22.5H14.8C15.9201 22.5 16.4801 22.5 16.908 22.282C17.2843 22.0903 17.5902 21.7843 17.782 21.408C18 20.9802 18 20.4201 18 19.3V17.7C18 16.5799 18 16.0198 17.782 15.592C17.5902 15.2157 17.2843 14.9097 16.908 14.718C16.4801 14.5 15.9201 14.5 14.8 14.5H9.19997C8.07986 14.5 7.51981 14.5 7.09199 14.718C6.71566 14.9097 6.4097 15.2157 6.21796 15.592C5.99997 16.0198 5.99997 16.5799 5.99997 17.7V19.3C5.99997 20.4201 5.99997 20.9802 6.21796 21.408C6.4097 21.7843 6.71566 22.0903 7.09199 22.282C7.51981 22.5 8.07986 22.5 9.19997 22.5Z" stroke="white" stroke-linecap="round" stroke-linejoin="round"/>
</svg>
