<svg width="48" height="48" viewBox="0 0 48 48" fill="none" xmlns="http://www.w3.org/2000/svg">
<path d="M4 34V33.6996C4 33.0666 4 32.7501 4.04841 32.4418C4.0914 32.168 4.16272 31.8995 4.26123 31.6404C4.37217 31.3487 4.5292 31.0739 4.84324 30.5243L12 18M4 34C4 38.4183 7.58172 42 12 42C16.4183 42 20 38.4183 20 34M4 34V33.6C4 33.0399 4 32.7599 4.10899 32.546C4.20487 32.3578 4.35785 32.2049 4.54601 32.109C4.75992 32 5.03995 32 5.6 32H18.4C18.9601 32 19.2401 32 19.454 32.109C19.6422 32.2049 19.7951 32.3578 19.891 32.546C20 32.7599 20 33.0399 20 33.6V34M12 18L19.1568 30.5243C19.4708 31.0739 19.6278 31.3487 19.7388 31.6404C19.8373 31.8995 19.9086 32.168 19.9516 32.4418C20 32.7501 20 33.0666 20 33.6996V34M12 18L36 14M28 30V29.6996C28 29.0666 28 28.7501 28.0484 28.4418C28.0914 28.168 28.1627 27.8995 28.2612 27.6404C28.3722 27.3487 28.5292 27.0739 28.8432 26.5243L36 14M28 30C28 34.4183 31.5817 38 36 38C40.4183 38 44 34.4183 44 30M28 30V29.6C28 29.0399 28 28.7599 28.109 28.546C28.2049 28.3578 28.3578 28.2049 28.546 28.109C28.7599 28 29.0399 28 29.6 28H42.4C42.9601 28 43.2401 28 43.454 28.109C43.6422 28.2049 43.7951 28.3578 43.891 28.546C44 28.7599 44 29.0399 44 29.6V30M36 14L43.1568 26.5243C43.4708 27.0739 43.6278 27.3487 43.7388 27.6404C43.8373 27.8995 43.9086 28.168 43.9516 28.4418C44 28.7501 44 29.0666 44 29.6996V30M24 6V16" stroke="#471EA7" stroke-linecap="round" stroke-linejoin="round"/>
</svg>
