<svg width="49" height="48" viewBox="0 0 49 48" fill="none" xmlns="http://www.w3.org/2000/svg">
<path d="M42.5 23L18.5 23M42.5 11L18.5 11M42.5 35L18.5 35M10.5 23C10.5 24.1046 9.60457 25 8.5 25C7.39543 25 6.5 24.1046 6.5 23C6.5 21.8954 7.39543 21 8.5 21C9.60457 21 10.5 21.8954 10.5 23ZM10.5 11C10.5 12.1046 9.60457 13 8.5 13C7.39543 13 6.5 12.1046 6.5 11C6.5 9.89543 7.39543 9 8.5 9C9.60457 9 10.5 9.89543 10.5 11ZM10.5 35C10.5 36.1046 9.60457 37 8.5 37C7.39543 37 6.5 36.1046 6.5 35C6.5 33.8954 7.39543 33 8.5 33C9.60457 33 10.5 33.8954 10.5 35Z" stroke="#471EA7" stroke-width="2" stroke-linecap="round" stroke-linejoin="round"/>
</svg>
