<svg width="24" height="25" viewBox="0 0 24 25" fill="none" xmlns="http://www.w3.org/2000/svg">
<path d="M16 4.5C16.93 4.5 17.895 4.5 18.2765 4.60222C19.3117 4.87962 20.1204 5.68827 20.3978 6.72354C20.5 7.10504 20.5 7.57003 20.5 8.5V18.7C20.5 20.3802 20.5 21.2202 20.173 21.862C19.8854 22.4265 19.4265 22.8854 18.862 23.173C18.2202 23.5 17.3802 23.5 15.7 23.5H8.3C6.61984 23.5 5.77976 23.5 5.13803 23.173C4.57354 22.8854 4.1146 22.4265 3.82698 21.862C3.5 21.2202 3.5 20.3802 3.5 18.7V8.5C3.5 7.57003 3.5 7.10504 3.60222 6.72354C3.87962 5.68827 4.68827 4.87962 5.72354 4.60222C6.10504 4.5 7.07003 4.5 8 4.5M9 15.5L11 17.5L15.5 13M9.6 6H14.4C14.9601 6 15.2401 6 15.454 5.89101C15.6422 5.79513 15.7951 5.64215 15.891 5.45399C16 5.24008 16 4.96005 16 4.4V4.6C16 4.03995 16 3.75992 15.891 3.54601C15.7951 3.35785 15.6422 3.20487 15.454 3.10899C15.2401 3 14.9601 3 14.4 3H9.6C9.03995 3 8.75992 3 8.54601 3.10899C8.35785 3.20487 8.20487 3.35785 8.10899 3.54601C8 3.75992 8 4.03995 8 4.6V4.4C8 4.96005 8 5.24008 8.10899 5.45399C8.20487 5.64215 8.35785 5.79513 8.54601 5.89101C8.75992 6 9.03995 6 9.6 6Z" stroke="white" stroke-linecap="round" stroke-linejoin="round"/>
</svg>
