<svg width="96" height="96" viewBox="0 0 96 96" fill="none" xmlns="http://www.w3.org/2000/svg">
<path d="M54 26L65.349 26C66.3274 26 66.8166 26 67.2769 26.1106C67.6851 26.2085 68.0753 26.3702 68.4331 26.5895C68.8368 26.8368 69.1827 27.1827 69.8745 27.8746L88.1255 46.1255C88.8173 46.8173 89.1632 47.1632 89.4106 47.5669C89.6299 47.9248 89.7915 48.315 89.8895 48.7231C90 49.1835 90 49.6726 90 50.651V64C90 65.8638 90 66.7957 89.6955 67.5308C89.2895 68.5109 88.5108 69.2896 87.5307 69.6956C86.7956 70 83.8638 70 82 70M62 70L54 70M54 70V26.8C54 22.3196 54 20.0794 53.1281 18.3681C52.3611 16.8628 51.1372 15.6389 49.6319 14.8719C47.9206 14 45.6804 14 41.2 14L18.8 14C14.3196 14 12.0794 14 10.3681 14.872C8.86278 15.639 7.63893 16.8628 6.87195 18.3681C6 20.0794 6 22.3196 6 26.8L6 62C6 66.4183 10.3681 69.6956 16 70M54 70L40 70M40 70C40 76.6275 34.6274 82 28 82C21.3726 82 16 76.6275 16 70M40 70C40 63.3726 34.6274 58 28 58C21.3726 58 16 63.3726 16 70M82 72C82 77.5229 77.5228 82 72 82C66.4772 82 62 77.5229 62 72C62 66.4772 66.4772 62 72 62C77.5228 62 82 66.4772 82 72Z" stroke="#471EA7" stroke-width="4" stroke-linecap="round" stroke-linejoin="round"/>
</svg>
