<svg width="96" height="96" viewBox="0 0 96 96" fill="none" xmlns="http://www.w3.org/2000/svg">
<path d="M88 84V76C88 68.5446 82.9009 62.2802 76 60.5041M62 13.163C67.8637 15.5366 72 21.2852 72 28C72 34.7148 67.8637 40.4634 62 42.837M68 84C68 76.5449 68 72.8174 66.7821 69.8771C65.1582 65.9566 62.0434 62.8418 58.1229 61.2179C55.1826 60 51.4551 60 44 60H32C24.5449 60 20.8174 60 17.8771 61.2179C13.9566 62.8418 10.8418 65.9566 9.21793 69.8771C8 72.8174 8 76.5449 8 84M54 28C54 36.8366 46.8366 44 38 44C29.1634 44 22 36.8366 22 28C22 19.1634 29.1634 12 38 12C46.8366 12 54 19.1634 54 28Z" stroke="#471EA7" stroke-width="4" stroke-linecap="round" stroke-linejoin="round"/>
</svg>
