<svg width="40" height="40" viewBox="0 0 40 40" fill="none" xmlns="http://www.w3.org/2000/svg">
<path d="M36.6673 14.8858C36.6673 13.8761 36.6673 13.3712 36.4677 13.1375C36.2944 12.9346 36.0345 12.827 35.7686 12.8479C35.4621 12.872 35.1051 13.229 34.3912 13.943L28.334 20.0002L34.3912 26.0574C35.1051 26.7713 35.4621 27.1283 35.7686 27.1524C36.0345 27.1733 36.2944 27.0657 36.4677 26.8629C36.6673 26.6291 36.6673 26.1242 36.6673 25.1145V14.8858Z" stroke="#8956FF" stroke-width="2" stroke-linecap="round" stroke-linejoin="round"/>
<path d="M3.33398 16.3335C3.33398 13.5332 3.33398 12.1331 3.87895 11.0635C4.35832 10.1227 5.12322 9.35783 6.06403 8.87846C7.13359 8.3335 8.53372 8.3335 11.334 8.3335H20.334C23.1342 8.3335 24.5344 8.3335 25.6039 8.87846C26.5447 9.35783 27.3097 10.1227 27.789 11.0635C28.334 12.1331 28.334 13.5332 28.334 16.3335V23.6668C28.334 26.4671 28.334 27.8672 27.789 28.9368C27.3097 29.8776 26.5447 30.6425 25.6039 31.1219C24.5344 31.6668 23.1342 31.6668 20.334 31.6668H11.334C8.53372 31.6668 7.13359 31.6668 6.06403 31.1219C5.12322 30.6425 4.35832 29.8776 3.87895 28.9368C3.33398 27.8672 3.33398 26.4671 3.33398 23.6668V16.3335Z" stroke="#8956FF" stroke-width="2" stroke-linecap="round" stroke-linejoin="round"/>
</svg>
